<svg width="448" height="99" viewBox="0 0 448 99" fill="none" xmlns="http://www.w3.org/2000/svg">
<path d="M13.22 39.59H169.91C178.27 39.59 183.24 36.29 184.83 29.69C186.37 23.1 181.93 19.8 171.48 19.8H120.53L127.8 0.0100098H179.31C200.21 0.0100098 208.31 9.91001 203.63 29.69C201 40.69 196.3 47.29 189.53 49.49C195.29 51.68 196.86 58.28 194.23 69.28C189.55 89.07 176.77 98.96 155.87 98.96H85.8L84.49 79.17H157.45C167.89 79.17 173.89 75.87 175.43 69.28C177.02 62.68 173.64 59.38 165.27 59.38H0L13.23 39.59H13.22Z" fill="#1D1E30"/>
<path d="M82.53 98.96L69.5 24.88L21.43 98.96H0.929993L65.17 0H85.6L102.96 98.96H82.53Z" fill="#1D1E30"/>
<path d="M232.1 66.7854V32.6916H250.475V37.1243H237.272V47.4357H248.337V51.8684H237.272V62.337H252.346V66.7697H232.1V66.7854Z" fill="#1D1E30"/>
<path d="M289.332 67.5399L273.346 50.0608C270.784 47.2786 267.844 43.8676 265.487 41.0854L265.377 41.1325C265.487 44.2291 265.487 47.1214 265.487 49.6835V66.7854H260.299V32.6916H263.883L278.533 48.7247C280.514 50.9096 283.61 54.3362 285.701 56.8984L285.811 56.8512C285.701 54.2262 285.701 51.2868 285.701 48.8347V32.6916H290.888V67.5399H289.332Z" fill="#1D1E30"/>
<path d="M302.048 66.7854V32.6916H320.423V37.1243H307.22V47.4357H318.286V51.8684H307.22V62.337H322.294V66.7697H302.048V66.7854Z" fill="#1D1E30"/>
<path d="M350.037 66.7854L339.301 51.8212H335.403V66.7854H330.279V32.6916H340.543C345.353 32.6916 350.808 35.7882 350.808 42.2486C350.808 46.7913 348.135 49.6835 344.819 51.0196L356.466 66.7854H350.053H350.037ZM339.616 37.1872H335.388V47.5615H339.616C342.665 47.5615 345.495 45.9582 345.495 42.3743C345.495 38.7905 342.665 37.1872 339.616 37.1872Z" fill="#1D1E30"/>
<path d="M378.095 67.4299C368.9 67.4299 359.39 61.2839 359.39 49.7464C359.39 38.2089 369.277 32 377.781 32C382.481 32 386.285 33.116 388.784 34.7193L387.825 39.3092C385.31 37.7059 381.946 36.5899 378.362 36.5899C371.682 36.5899 364.624 40.9754 364.624 49.8879C364.624 58.8004 371.462 63.0287 378.41 63.0287C381.569 63.0287 384.021 62.3842 385.624 61.2682V53.7389H377.765V49.5735H390.529V63.736C387.275 66.361 383.157 67.4299 378.079 67.4299H378.095Z" fill="#1D1E30"/>
<path d="M401.72 66.7854V32.6916H406.908V66.7854H401.72Z" fill="#1D1E30"/>
<path d="M441.913 66.7854L438.219 57.9673H424.968L421.274 66.7854H416.197L430.737 32.2043H432.608L447.147 66.7854H441.913ZM433.095 45.5181C432.608 44.402 432.073 42.7987 431.649 41.3526H431.539C431.161 42.7987 430.58 44.402 430.093 45.5181L426.729 53.8489H436.459L433.095 45.5181Z" fill="#1D1E30"/>
</svg>
