<?xml version="1.0" encoding="UTF-8"?>
<svg xmlns="http://www.w3.org/2000/svg" xmlns:xlink="http://www.w3.org/1999/xlink" viewBox="0 0 208.67 103.58">
  <defs>
    <style>
      .cls-1 {
        fill: #fff;
      }

      .cls-2 {
        mask: url(#mask-2);
      }

      .cls-3 {
        fill: #d0d6e3;
      }
    </style>
    <mask id="mask" x="-1102.44" y="-737.31" width="2566.25" height="1219.31" maskUnits="userSpaceOnUse"/>
    <mask id="mask-1" x="-43.53" y="-505.05" width="297.43" height="254.52" maskUnits="userSpaceOnUse"/>
    <mask id="mask-2" x="1.93" y="1.41" width="204.92" height="98.96" maskUnits="userSpaceOnUse">
      <path class="cls-1" d="m181.24,1.41h-51.51l-7.27,19.79h50.95c10.44,0,14.89,3.3,13.35,9.89-1.59,6.6-6.56,9.9-14.92,9.9h-77.36L87.53,1.41h-20.43l-25.7,39.58H15.15L1.93,60.79h26.63L2.86,100.37h20.5l25.68-39.58h28.46l6.96,39.58h73.33c20.9,0,33.68-9.89,38.36-29.68,2.63-11,1.06-17.6-4.7-19.79,6.77-2.2,11.47-8.8,14.1-19.8,4.69-19.79-3.42-29.68-24.32-29.68ZM61.88,41l9.55-14.71,2.59,14.71h-12.13Zm115.47,29.69c-1.55,6.59-7.54,9.89-17.98,9.89h-57.95l-3.47-19.79h69.25c8.36,0,11.75,3.3,10.16,9.9Z"/>
    </mask>
  </defs>
  <g class="cls-2">
    <g id="Livello_5" data-name="Livello 5">
      <g>
        <path class="cls-3" d="m5.28,100.37h-2.42l.69-1.06c.57.35,1.14.7,1.73,1.06Z"/>
        <path class="cls-3" d="m21.51,100.37h-12.39c-1.55-.88-3.08-1.74-4.58-2.59l3.62-5.57c4.11,2.51,8.59,5.25,13.35,8.16Z"/>
        <path class="cls-3" d="m27.45,94.06l-3.2,4.94c-4.46-2.52-8.87-5.01-13.23-7.46-.59-.32-1.18-.65-1.79-.99l3.54-5.44c4.4,2.68,9.54,5.82,14.68,8.95Z"/>
        <path class="cls-3" d="m32.07,86.94l-3.15,4.85c-4.1-2.34-8.16-4.65-12.16-6.91-.9-.51-1.84-1.05-2.8-1.6l3.41-5.26c4.45,2.7,9.4,5.7,14.7,8.92Z"/>
        <path class="cls-3" d="m7.1,60.79H1.93l1.84-2.76,3.18,2.64s.1.08.15.12Z"/>
        <path class="cls-3" d="m36.69,79.83l-3.1,4.77c-5-2.92-9.97-5.79-14.9-8.62l3.29-5.06c4.44,2.69,9.39,5.69,14.71,8.91Z"/>
        <path class="cls-3" d="m21.56,60.79h-11.84l-.71-.37c-1.69-.87-3.38-1.75-5.07-2.63l4.56-6.82,4.05,3.29c2.22,1.69,4.21,3.76,6.67,5.11l2.34,1.42Z"/>
        <path class="cls-3" d="m41.3,72.72l-3.05,4.7c-5.43-3.17-10.67-6.23-14.86-8.67l3.2-4.92c4.42,2.67,9.37,5.66,14.71,8.89Z"/>
        <path class="cls-3" d="m87.09,100.37h-2.62l-.31-1.77c.98.59,1.95,1.18,2.93,1.77Z"/>
        <path class="cls-3" d="m45.92,65.6h0s-2.98,4.59-2.98,4.59c-2.99-1.76-5.99-3.52-8.98-5.27-.75-.45-3.29-1.95-5.84-3.45-.38-.23-.76-.46-1.14-.68-2.27-1.34-4.35-2.56-4.97-2.93-1.63-.89-3.06-2.11-4.78-2.83l-2.5-1.23c-2.04-1-4.07-2-6.11-3.01l4.59-6.87,4.93,3.93c2.23,1.68,4.26,3.7,6.7,5.06l2.38,1.43c5.28,3.18,11.64,7.01,18.7,11.26Z"/>
        <path class="cls-3" d="m103.66,100.37h-9.11c-3.75-2.13-7.48-4.27-11.21-6.43h0s-1.15-6.49-1.15-6.49c7.16,4.31,14.4,8.67,21.47,12.92Z"/>
        <path class="cls-3" d="m54.37,60.79h-5.33l-1.41,2.17c-2.64-1.57-5.28-3.14-7.93-4.7-1.55-.93-10.51-6.26-11.93-7.1-1.62-.91-3.04-2.14-4.8-2.8l-2.52-1.18c-2.4-1.11-4.79-2.23-7.18-3.35l1.89-2.83h8.02l.56.44c2.24,1.66,4.29,3.64,6.73,5l2.38,1.43c5.97,3.59,13.33,8,21.52,12.92Z"/>
        <path class="cls-3" d="m120.27,100.37h-8.7c-10.13-5.62-20.16-11.43-30.15-17.31h0s-1.18-6.73-1.18-6.73c13.29,7.98,27.17,16.32,40.03,24.04Z"/>
        <path class="cls-3" d="m70.85,60.79h-10.16c-5.08-3.06-10.17-6.12-15.25-9.18-1.65-.99-10.42-6.26-11.91-7.16-1.24-.62-2.26-1.63-3.53-2.2l-1.28-.57c-.52-.23-1.04-.45-1.55-.68h10.65l.67.4c8.52,5.1,19.83,11.88,32.36,19.39Z"/>
        <path class="cls-3" d="m136.95,100.37h-8.1c-2.28-1.21-4.56-2.45-6.83-3.69-14.3-8.01-28.45-16.27-42.54-24.65l-1.2-6.8c7.42,4.45,15.14,9.07,22.85,13.69l.29,1.66h2.48c11.43,6.84,22.77,13.63,33.05,19.79Z"/>
        <path class="cls-3" d="m99.18,67.8l1.19,6.81c-7.64-4.48-15.25-9.08-22.85-13.7-.07-.04-.14-.08-.2-.12-8.73-5.31-17.44-10.65-26.13-15.86-1.11-.68-5.67-3.43-8.86-5.35l2.68-4.12c13.46,8.04,33.46,19.98,54.17,32.34Z"/>
        <path class="cls-3" d="m153.71,100.37h-6.8c-12.41-6.1-24.67-13.14-36.24-19.79h9.9c11.87,7.09,23.3,13.92,33.14,19.79Z"/>
        <path class="cls-3" d="m104.05,60.79h-6.1l.49,2.81c-13.89-8.36-27.67-16.9-41.51-25.33-1.26-.77-6.73-4.09-9.86-5.99l2.54-3.91c.05.03.1.05.14.08,4.25,2.53,9.19,5.47,14.63,8.72,2.08,1.23,4.23,2.51,6.45,3.83,10.13,6.04,21.55,12.84,33.22,19.79Z"/>
        <path class="cls-3" d="m168.75,99.32c-.99.2-2.01.38-3.05.52h-.01c-11.18-4.61-21.85-10.19-32.47-16-1.94-1.08-3.88-2.17-5.82-3.26h9.87c11.74,6.98,22.64,13.47,31.48,18.74Z"/>
        <path class="cls-3" d="m72.45,32.11c14.14,8.4,31.31,18.59,48.3,28.68h-10.59c-12.27-7.37-24.43-14.94-36.61-22.47-2.36-1.46-4.72-2.92-7.09-4.37-1.26-.78-2.53-1.56-3.8-2.34-1.39-.85-8.07-4.95-10.84-6.64l2.4-3.69c.41.25.8.48,1.17.69,3.98,2.36,8.57,5.09,13.6,8.08,1.13.67,2.28,1.36,3.46,2.06Z"/>
        <path class="cls-3" d="m179.54,95.71l-.3.53c-.28-.1-.57-.2-.85-.3h-.01c-11.74-4.14-22.81-9.54-33.72-15.36h9.4c9.56,5.68,18.2,10.81,25.13,14.92.12.07.24.14.35.21Z"/>
        <path class="cls-3" d="m104.09,41c10.9,6.46,22.35,13.24,33.4,19.79h-10.82c-.5-.29-1-.58-1.5-.87-5.34-3.08-13.68-8.25-19.02-11.49-11.5-7.05-23.06-14.35-34.61-21.54-.12-.08-.24-.15-.36-.22-4.87-3.04-9.74-6.05-14.59-9.02h-.01s2.25-3.47,2.25-3.47c.79.5,1.53.94,2.19,1.32,8.52,5.04,19.82,11.73,32.34,19.14h0s1.12,6.36,1.12,6.36h9.61Z"/>
        <path class="cls-3" d="m185.26,89.08l-.3.54c-7.66-2.57-15.07-5.69-22.31-9.16,2.32-.17,4.38-.55,6.16-1.13,6.13,3.64,11.7,6.93,16.45,9.75Z"/>
        <path class="cls-3" d="m91.43,23.65l1.09,6.2c-10.06-6.34-20.14-12.72-30.17-18.9-.36-.18-.7-.4-1.02-.63l2.12-3.26c1.19.76,2.27,1.43,3.21,1.96,6.76,3.99,15.28,9.03,24.77,14.63Z"/>
        <path class="cls-3" d="m135.2,49.51c6.48,3.83,12.91,7.62,19.11,11.28h-11c-10.66-6.07-21.13-12.51-31.5-18.87-.49-.3-.99-.61-1.48-.92h10.46c3.44,2.03,6.9,4.07,10.36,6.12,1.35.79,2.7,1.59,4.05,2.39Z"/>
        <path class="cls-3" d="m190.98,82.46l-.31.54c-5.78-1.8-11.33-4.02-16.76-6.44.94-.81,1.7-1.76,2.29-2.83,5.47,3.23,10.46,6.18,14.78,8.73Z"/>
        <path class="cls-3" d="m89.51,12.68l.99,5.68c-7.47-4.75-14.94-9.49-22.39-14.11-.71-.35-1.32-.87-1.97-1.34l.97-1.49h3.32c.67.42,1.29.79,1.86,1.11,4.91,2.89,10.75,6.34,17.22,10.14h0Z"/>
        <path class="cls-3" d="m137.59,41c11.91,7.02,23.75,13.99,34.4,20.27-1.35-.32-2.95-.48-4.79-.48h-6.64c-1.22-.65-2.44-1.31-3.65-1.97-1.06-.58-2.12-1.16-3.18-1.75-.98-.54-1.95-1.09-2.92-1.64-1.02-.58-2.04-1.16-3.05-1.74-.06-.03-.12-.07-.18-.11-1.12-.63-2.24-1.28-3.36-1.95-5.94-3.46-11.83-7.03-17.67-10.63h11.04Z"/>
        <path class="cls-3" d="m195.01,74.83c-.1.34-.21.68-.33,1.01-5.89-1.84-11.52-4.13-17.05-6.62.3-2.14-.03-3.87-.97-5.2,6.81,4.02,13.04,7.68,18.35,10.81Z"/>
        <path class="cls-3" d="m87.58,1.73l.88,5c-2.81-1.79-5.61-3.56-8.43-5.31h7.03c.17.1.34.2.52.3h0Z"/>
        <path class="cls-3" d="m197.06,66.05c-.1.65-.21,1.33-.34,2.02-5.38-1.82-10.55-3.98-15.64-6.3-13.19-6.23-25.94-13.29-38.45-20.77h11.8c15.89,9.34,31,18.22,42.63,25.05Z"/>
        <path class="cls-3" d="m137.56,21.21h-10.72c-1.18-.76-2.36-1.52-3.54-2.28l1.84-5.01c4.08,2.39,8.23,4.83,12.42,7.29Z"/>
        <path class="cls-3" d="m197.32,59.71c-3.6-1.36-7.12-2.85-10.6-4.42-9.34-4.38-18.45-9.19-27.41-14.29h12.03c9.01,5.28,17.53,10.27,25.02,14.66.5,1.17.82,2.52.96,4.05Z"/>
        <path class="cls-3" d="m154.45,21.21h-11.71c-5.5-3.45-10.96-6.98-16.41-10.53l1.79-4.87c3.72,2.17,6.87,4.02,9.04,5.29l17.29,10.11Z"/>
        <path class="cls-3" d="m198.06,46.71c-1.15,1.2-2.41,2.18-3.78,2.95-.65-.27-1.29-.55-1.93-.84-5.53-2.56-10.96-5.28-16.33-8.14,2.78-.46,5.04-1.42,6.8-2.89l15.24,8.92Z"/>
        <path class="cls-3" d="m171.35,21.21h-12.52c-9.94-6.04-19.72-12.39-29.46-18.81l.36-.98h7.46c11.43,6.65,22.96,13.31,34.16,19.79Z"/>
        <path class="cls-3" d="m202.8,39.44c-.66,1.48-1.39,2.83-2.18,4.04-.89-.37-1.76-.75-2.64-1.14-4.5-2.07-8.94-4.25-13.33-6.52.98-1.32,1.67-2.89,2.11-4.72.07-.3.13-.59.17-.88,5.44,3.15,10.75,6.23,15.87,9.22Z"/>
        <path class="cls-3" d="m205.55,31.13c-.42,1.78-.9,3.45-1.44,5-5.83-2.51-11.5-5.36-17.11-8.39-.53-3.97-4.35-6.14-11.48-6.48-10.82-6.3-21.41-13-31.92-19.84h10.61c17.73,10.28,35.36,20.42,51.34,29.71Z"/>
        <path class="cls-3" d="m206.84,21.99c-.05,1.88-.26,3.88-.64,6.02-16.33-7.67-31.82-16.85-47-26.59h12.05c12.25,7.08,24.29,14.02,35.59,20.57Z"/>
        <path class="cls-3" d="m206.77,19.24c-3.99-1.95-7.92-4.04-11.83-6.2-6.64-3.72-13.19-7.61-19.66-11.62h5.96c2.98,0,5.69.2,8.15.61,5.03,2.9,9.98,5.76,14.84,8.56h0c1.47,2.42,2.32,5.3,2.54,8.65Z"/>
        <path class="cls-3" d="m201.02,6.84c-.15-.08-.31-.17-.46-.25-1.8-1.01-3.59-2.03-5.37-3.07,2.28.84,4.22,1.95,5.83,3.32Z"/>
      </g>
      <path class="cls-3" d="m3.55,99.31l-.69,1.06h2.42c-.59-.36-1.16-.71-1.73-1.06Zm9.22-14.2l-3.54,5.44c.61.34,1.2.67,1.79.99,4.36,2.45,8.77,4.94,13.23,7.46l3.2-4.94c-5.14-3.13-10.28-6.27-14.68-8.95Zm9.21-14.19l-3.29,5.06c4.93,2.83,9.9,5.7,14.9,8.62l3.1-4.77c-5.32-3.22-10.27-6.22-14.71-8.91Zm-2.76-11.55c-2.46-1.35-4.45-3.42-6.67-5.11l-4.05-3.29-4.56,6.82c1.69.88,3.38,1.76,5.07,2.63l.71.37h11.84l-2.34-1.42Zm13.63-11.5l-2.38-1.43c-2.44-1.36-4.49-3.34-6.73-5l-.56-.44h-8.02l-1.89,2.83c2.39,1.12,4.78,2.24,7.18,3.35l2.52,1.18c1.76.66,3.18,1.89,4.8,2.8,1.42.84,10.38,6.17,11.93,7.1,2.65,1.56,5.29,3.13,7.93,4.7l1.41-2.17h5.33c-8.19-4.92-15.55-9.33-21.52-12.92Zm5.64-6.47l-.67-.4h-10.65c.51.23,1.03.45,1.55.68l1.28.57c1.27.57,2.29,1.58,3.53,2.2,1.49.9,10.26,6.17,11.91,7.16,5.08,3.06,10.17,6.12,15.25,9.18h10.16c-12.53-7.51-23.84-14.29-32.36-19.39Zm60.69,26.4c-20.71-12.36-40.71-24.3-54.17-32.34l-2.68,4.12c3.19,1.92,7.75,4.67,8.86,5.35,8.69,5.21,17.4,10.55,26.13,15.86h.18l.02.12c7.6,4.62,15.21,9.22,22.85,13.7l-1.19-6.81ZM55.39,21.97c-.37-.21-.76-.44-1.17-.69l-2.4,3.69c2.77,1.69,9.45,5.79,10.84,6.64,1.27.78,2.54,1.56,3.8,2.34l2.53-3.9c-5.03-2.99-9.62-5.72-13.6-8.08Zm17.06,10.14l1.1,6.21c12.18,7.53,24.34,15.1,36.61,22.47h10.59c-16.99-10.09-34.16-20.28-48.3-28.68Zm31.64,8.89h-9.61l-1.12-6.35h0c-12.52-7.42-23.82-14.11-32.34-19.15-.66-.38-1.4-.82-2.19-1.32l-2.25,3.46h.01c4.85,2.98,9.72,5.99,14.59,9.03l.25-.38.11.6c11.55,7.19,23.11,14.49,34.61,21.54,5.34,3.24,13.68,8.41,19.02,11.49.5.29,1,.58,1.5.87h10.82c-11.05-6.55-22.5-13.33-33.4-19.79Zm33.5,0h-11.04c5.84,3.6,11.73,7.17,17.67,10.63,1.12.67,2.24,1.32,3.36,1.95.06.04.12.08.18.11,1.01.58,2.03,1.16,3.05,1.74.97.55,1.94,1.1,2.92,1.64,1.06.59,2.12,1.17,3.18,1.75,1.21.66,2.43,1.32,3.65,1.97h6.64c1.84,0,3.44.16,4.79.48-10.65-6.28-22.49-13.25-34.4-20.27Zm-17.02,39.58h-9.9c11.57,6.65,23.83,13.69,36.24,19.79h6.8c-9.84-5.87-21.27-12.7-33.14-19.79Zm33.49,0h-9.4c10.91,5.82,21.98,11.22,33.72,15.36h.01c.28-.14.54-.28.8-.44-6.93-4.11-15.57-9.24-25.13-14.92Zm14.75-1.25c-1.78.58-3.84.96-6.16,1.13,7.24,3.47,14.65,6.59,22.31,9.16l.3-.54c-4.75-2.82-10.32-6.11-16.45-9.75Zm7.39-5.6c-.59,1.07-1.35,2.02-2.29,2.83,5.43,2.42,10.98,4.64,16.76,6.44l.31-.54c-4.32-2.55-9.31-5.5-14.78-8.73Zm.46-9.71c.94,1.33,1.27,3.06.97,5.2,5.53,2.49,11.16,4.78,17.05,6.62.12-.33.23-.67.33-1.01-5.31-3.13-11.54-6.79-18.35-10.81Zm-39.39,16.56h-9.87c1.94,1.09,3.88,2.18,5.82,3.26,10.62,5.81,21.29,11.39,32.47,16h.01c1.04-.14,2.06-.32,3.05-.52-8.84-5.27-19.74-11.76-31.48-18.74Zm59.09-24.92c-7.49-4.39-16.01-9.38-25.02-14.66h-12.03c8.96,5.1,18.07,9.91,27.41,14.29,3.48,1.57,7,3.06,10.6,4.42-.14-1.53-.46-2.88-.96-4.05Zm-9.43-25.44c-.04.29-.1.58-.17.88-.44,1.83-1.13,3.4-2.11,4.72,4.39,2.27,8.83,4.45,13.33,6.52.88.39,1.75.77,2.64,1.14.79-1.21,1.52-2.56,2.18-4.04-5.12-2.99-10.43-6.07-15.87-9.22Zm17.3-19.62h0c-4.86-2.81-9.81-5.67-14.84-8.57-2.46-.41-5.17-.61-8.15-.61h-5.96c6.47,4.01,13.02,7.9,19.66,11.62,3.91,2.16,7.84,4.25,11.83,6.2-.22-3.35-1.07-6.23-2.54-8.64Zm-9.04-7.08c1.78,1.04,3.57,2.06,5.37,3.07.15.08.31.17.46.25-1.61-1.37-3.55-2.48-5.83-3.32Zm-23.94-2.1h-12.05c15.18,9.74,30.67,18.92,47,26.59.38-2.14.59-4.14.64-6.02-11.3-6.55-23.34-13.49-35.59-20.57Zm-17.04,0h-10.61c10.51,6.84,21.1,13.54,31.92,19.84,7.13.34,10.95,2.51,11.48,6.48,5.61,3.03,11.28,5.88,17.11,8.39.54-1.55,1.02-3.22,1.44-5-15.98-9.29-33.61-19.43-51.34-29.71Zm-17.05,9.68c-2.17-1.27-5.32-3.12-9.04-5.29l-1.79,4.87c5.45,3.55,10.91,7.08,16.41,10.53h11.71l-17.29-10.11Zm.03-9.68h-7.46l-.36.98c9.74,6.42,19.52,12.77,29.46,18.81h12.52c-11.2-6.48-22.73-13.14-34.16-19.79Zm45.63,36.37c-1.76,1.47-4.02,2.43-6.8,2.89,5.37,2.86,10.8,5.58,16.33,8.14.64.29,1.28.57,1.93.84,1.37-.77,2.63-1.75,3.78-2.95l-15.24-8.92Zm-28.39,3.21h-11.8c12.51,7.48,25.26,14.54,38.45,20.77,5.09,2.32,10.26,4.48,15.64,6.3.13-.69.24-1.37.34-2.02-11.63-6.83-26.74-15.71-42.63-25.05Zm-19.23,8.51c-1.35-.8-2.7-1.6-4.05-2.39-3.46-2.05-6.92-4.09-10.36-6.12h-10.46c.49.31.99.62,1.48.92,10.37,6.36,20.84,12.8,31.5,18.87h11c-6.2-3.66-12.63-7.45-19.11-11.28ZM89.51,12.68h0c-6.47-3.81-12.31-7.26-17.22-10.15-.57-.32-1.19-.69-1.86-1.11h-3.32l-.97,1.49c.65.47,1.26.99,1.97,1.34,7.45,4.62,14.92,9.36,22.39,14.11l-.99-5.68Zm-1.93-10.95h0s-.05-.31-.05-.31h-7.5c2.82,1.75,5.62,3.52,8.43,5.31l-.88-5Zm3.85,21.92c-9.49-5.6-18.01-10.64-24.77-14.63-.94-.53-2.02-1.2-3.21-1.96l-2.12,3.26c.32.23.66.45,1.02.63,10.03,6.18,20.11,12.56,30.17,18.9l-1.09-6.2Zm12.62,37.14c-11.67-6.95-23.09-13.75-33.22-19.79h-8.94l2.49-3.83c-5.44-3.25-10.38-6.19-14.63-8.72-.04-.03-.09-.05-.14-.08l-2.54,3.91c3.13,1.9,8.6,5.22,9.86,5.99,13.84,8.43,27.62,16.97,41.51,25.33l-.49-2.81h6.1Zm-23.81,15.54l1.18,6.72h0c9.99,5.89,20.02,11.7,30.15,17.32h8.7c-12.86-7.72-26.74-16.06-40.03-24.04Zm3.92,22.27l.31,1.77h2.62c-.98-.59-1.95-1.18-2.93-1.77Zm-1.97-11.15l1.15,6.48h0c3.73,2.17,7.46,4.31,11.21,6.44h9.11c-7.07-4.25-14.31-8.61-21.47-12.92Zm21.71-6.87h-2.48l-.29-1.66c-7.71-4.62-15.43-9.24-22.85-13.69l1.2,6.8c14.09,8.38,28.24,16.64,42.54,24.65,2.27,1.24,4.55,2.48,6.83,3.69h8.1c-10.28-6.16-21.62-12.95-33.05-19.79ZM27.22,54.34l-2.38-1.43c-2.44-1.36-4.47-3.38-6.7-5.06l-4.93-3.93-4.59,6.87c2.04,1.01,4.07,2.01,6.11,3.01l2.5,1.23c1.72.72,3.15,1.94,4.78,2.83.62.37,2.7,1.59,4.97,2.93h1.58l-.44.68c2.55,1.5,5.09,3,5.84,3.45,2.99,1.75,5.99,3.51,8.98,5.27l2.98-4.58h0c-7.06-4.26-13.42-8.09-18.7-11.27Zm-.63,9.49l-3.2,4.92c4.19,2.44,9.43,5.5,14.86,8.67l3.05-4.7c-5.34-3.23-10.29-6.22-14.71-8.89Zm-19.64-3.16l-3.18-2.64-1.84,2.76h5.17c-.05-.04-.1-.08-.15-.12Zm10.42,17.35l-3.41,5.26c.96.55,1.9,1.09,2.8,1.6,4,2.26,8.06,4.57,12.16,6.91l3.15-4.85c-5.3-3.22-10.25-6.22-14.7-8.92Zm-9.21,14.19l-3.62,5.57c1.5.85,3.03,1.71,4.58,2.59h12.39c-4.76-2.91-9.24-5.65-13.35-8.16ZM126.84,21.21h10.72c-4.19-2.46-8.34-4.9-12.42-7.29l-1.84,5.01,3.54,2.28Z"/>
    </g>
  </g>
</svg>