<svg width="19" height="19" viewBox="0 0 19 19" fill="none" xmlns="http://www.w3.org/2000/svg">
<path fill-rule="evenodd" clip-rule="evenodd" d="M0.575187 17.5457C-0.164754 16.8058 -0.194746 15.6361 0.508198 14.9332L14.9332 0.508198C15.6361 -0.194745 16.8058 -0.164754 17.5457 0.575187C18.2857 1.31513 18.3157 2.48482 17.6127 3.18776L3.18776 17.6127C2.48482 18.3157 1.31513 18.2857 0.575187 17.5457Z" fill="#EAF1FF"/>
<path fill-rule="evenodd" clip-rule="evenodd" d="M0.575243 0.575221C1.31518 -0.16472 2.48487 -0.194712 3.18782 0.508232L17.6128 14.9332C18.3157 15.6362 18.2857 16.8058 17.5458 17.5458C16.8059 18.2857 15.6362 18.3157 14.9332 17.6128L0.508254 3.18779C-0.19469 2.48485 -0.164698 1.31516 0.575243 0.575221Z" fill="#EAF1FF"/>
</svg>
