<?xml version="1.0" encoding="UTF-8"?>
<svg id="Livello_1" data-name="Livello 1" xmlns="http://www.w3.org/2000/svg" viewBox="0 0 384 383.93">
  <defs>
    <style>
      .cls-1 {
        fill: #f07281;
      }

      .cls-2 {
        fill: #606a88;
      }

      .cls-3 {
        fill: #abc91b;
      }

      .cls-4 {
        fill: #b3bbcc;
      }

      .cls-5 {
        fill: #96a1b6;
      }

      .cls-6 {
        fill: #3d6d93;
      }

      .cls-7 {
        fill: #88b825;
      }

      .cls-8 {
        fill: #f9f7f8;
      }
    </style>
  </defs>
  <path d="m236.98,32.06c7.51,1.65,14.27,4.67,19.23,10.82,3.46,4.29,5.92,9.05,6.39,14.68,1.61,19.08.56,38.18.66,57.27.2,36.95.09,73.89,0,110.84,0,2.52.48,3.31,3.16,3.28,13.01-.16,26.02-.06,39.03-.07,11-.01,16.89,6.15,16.98,17.02.11,13.22.11,26.44-.02,39.65-.05,4.96-1.2,9.71-5.13,13.18-2.6,2.3-5.52,3.91-9.27,3.88-13.95-.1-27.89.02-41.84-.09-2.29-.02-3.03.47-2.93,2.88.21,4.99.21,9.99.04,14.98-.47,14.01-6.51,24.4-19.91,29.8-1.47.59-3.1.8-4.65,1.19-.7-.18-1.36-.21-1.76.56H85.79c-.16-.69-.75-.51-1.22-.64-6.52-1.66-12.07-4.8-16.33-10.18-5.18-6.55-6.84-13.82-6.82-22.15.19-84.62.12-169.24.11-253.86,0-3.18-.32-6.32.52-9.5,1.99-7.49,5.5-13.68,12.18-18.17,3.84-2.58,8.07-3.72,12.18-5.37h150.57Zm60.61,261.05c2.8.03,5.6-.02,8.4.12,5.4.28,6.97-2.23,7.04-6.77.21-14,.11-28.01.06-42.02-.01-3.63-2.51-6.09-6.16-6.17-3.11-.07-6.22.05-9.33.09-5.62-.04-11.24-.15-16.85-.1-44.51.37-89.02-.8-133.52.59-4.09.13-5.18,1.21-5.18,5.47-.01,14.26-.02,28.52,0,42.78,0,4.5,1.61,6.1,6.1,6.1,13.95.01,27.9,0,41.84,0,4.43,0,5.5.85,6.5,4.91-.74,3.41-2.94,4.51-6.29,4.49-13.74-.1-27.49-.1-41.23.01-2.72.02-5.25-.37-7.75-1.32-4.92-1.86-8.69-8.19-8.63-12.29.2-15.41.29-30.82.03-46.22-.14-7.93,8.13-13.95,14.09-13.94,28.42.07,56.84-.02,85.27.1,2.82.01,3.32-.76,3.32-3.41-.08-51.95-.06-103.9-.07-155.85,0-1.66.05-3.34-.14-4.99-.24-2.02-1-3.45-3.44-4-4.64-1.04-9.27-.15-13.88-.56-2.74-.24-4.27,1.25-5.11,3.49-2.62,7.05-7.15,10.1-14.96,10.05-19.36-.13-38.73-.04-58.09-.04-4.79,0-9.59-.18-14.36.06-5.78.29-11.63-4.18-12.86-9.95-.43-2.04-.92-4.03-4.16-3.7-4.43.45-8.94.02-13.42.14-3.71.1-5.25,1.7-5.21,5.06.17,13.53.03,27.07.1,40.6.02,3.29-1.19,5.47-4.46,6.31-3.66-.48-4.94-1.81-4.95-5.42-.03-13.84-.03-27.67,0-41.51,0-3.64.83-7.25,3.63-9.61,2.79-2.36,6.07-4.56,9.86-4.74,6.12-.3,12.28-.21,18.41-.02,4.75.15,8.07,3.47,8.65,8.15.51,4.1,1.92,5.35,6,5.35,23.3,0,46.61,0,69.91-.01,1.24,0,2.5-.04,3.72-.26,1.83-.32,2.79-1.3,2.9-3.39.33-5.87,4.69-9.86,10.6-9.9,5.1-.04,10.2,0,15.29-.01,2.93,0,5.73.57,8.37,1.85,4.43,3.51,7.07,7.41,7.04,13.73-.25,52.37-.11,104.75-.09,157.12,0,5.38,0,5.2,5.46,5.44,3.07.14,4-.6,3.99-3.87-.12-52.79-.08-105.58-.09-158.37,0-1.25-.14-2.51-.02-3.74.4-4.16-.7-8.01-2.78-11.49-4.6-7.69-12.01-9.88-20.41-9.9-.41-.04-.83-.12-1.24-.12-46.23,0-92.46-.06-138.69.07-6.39.02-11.8,2.83-15.77,8.05-3.36,4.41-4.19,9.41-4.19,14.87.05,86,0,172.01-.01,258.01,0,11.66,10.77,20.17,19.66,20.15,46.13-.1,92.25-.04,138.38-.04.62,0,1.24-.08,1.87-.12,2.11.46,4.36.25,6.31-.07,9.87-1.63,16.78-10.12,16.89-20.16.04-4.26.01-8.52.01-12.79,0-7.16,0-7.09-7.09-6.88-1.76.05-2.36.57-2.32,2.33.1,4.05-.11,8.11.06,12.16.26,6.09-1.92,10.87-6.98,14.32-1.99.84-3.88,1.85-6.16,1.85-45.91-.03-91.81-.02-137.72-.02-3.61,0-6.59-1.49-9.11-3.97-3.76-3.7-4.45-8.26-4.44-13.38.09-61.83.03-123.67,0-185.5,0-3.65,1.26-4.96,4.98-5.24,2.93-.02,4.11,1.76,4.35,4.37.14,1.55.12,3.12.12,4.68,0,55.49,0,110.99,0,166.48,0,5.72,0,11.45-.09,17.17-.07,4.21,1.57,6.03,5.74,6.04,44.77,0,89.54,0,134.31,0,3.73,0,5.57-1.83,5.61-5.65.04-4.48-.08-8.96.06-13.43.06-1.83-.57-2.22-2.28-2.2-6.35.09-12.7,0-19.05.05-3.11.03-4.71-1.5-5.14-4.47.66-3.56,2.22-4.91,5.83-4.91,9.57-.02,19.13,0,28.7,0,18.09-.03,36.18-.07,54.27-.1Z"/>
  <path class="cls-6" d="m236.98,351.94c.4-.77,1.06-.74,1.76-.56-.12.22-.08.41.12.56h-1.87Z"/>
  <path class="cls-8" d="m85.21,112.18c3.28-.84,4.48-3.02,4.46-6.31-.07-13.53.08-27.07-.1-40.6-.04-3.36,1.5-4.96,5.21-5.06,4.47-.13,8.99.3,13.42-.14,3.24-.33,3.73,1.66,4.16,3.7,1.22,5.77,7.08,10.24,12.86,9.95,4.78-.24,9.58-.06,14.36-.06,19.36,0,38.73-.09,58.09.04,7.81.05,12.34-3.01,14.96-10.05.83-2.23,2.36-3.73,5.11-3.49,4.61.41,9.25-.47,13.88.56,2.44.54,3.2,1.98,3.44,4,.2,1.65.14,3.32.14,4.99,0,51.95-.02,103.9.07,155.85,0,2.65-.5,3.42-3.32,3.41-28.42-.12-56.84-.02-85.27-.1-5.96-.02-14.22,6.01-14.09,13.94.26,15.4.17,30.82-.03,46.22-.05,4.11,3.71,10.43,8.63,12.29,2.5.95,5.04,1.34,7.75,1.32,13.74-.11,27.49-.11,41.23-.01,3.35.02,5.56-1.08,6.29-4.49,4.1,0,8.2,0,12.3,0,.43,2.96,2.03,4.5,5.14,4.47,6.35-.06,12.7.04,19.05-.05,1.71-.02,2.33.37,2.28,2.2-.13,4.47-.01,8.95-.06,13.43-.04,3.82-1.88,5.65-5.61,5.65-44.77,0-89.54,0-134.31,0-4.17,0-5.81-1.83-5.74-6.04.1-5.72.09-11.45.09-17.17,0-55.49,0-110.99,0-166.48,0-1.56.02-3.13-.12-4.68-.24-2.61-1.42-4.39-4.35-4.37.01-4.3.03-8.6.04-12.9Zm55.99,77.68c2.87,0,5.17-.07,7.45.02,3.75.15,7.67-2.89,7.81-6.58.19-5.4.16-10.82-.03-16.22-.11-3.21-2.44-5.78-5.7-6.29-5.85-.91-11.75-.86-17.61-.01-3.86.56-5.92,3-5.96,6.81-.05,5.41-.09,10.82-.04,16.23.02,2.71,3.37,6.49,5.65,6.22,3.02-.36,6.02,0,8.43-.18Zm27.11-55.85c0,2.39,0,4.78,0,7.17,0,4.75,2.79,7.53,7.6,7.55,4.57.02,9.14.02,13.71,0,4.65,0,7.99-3.1,8.08-7.68.1-4.78.1-9.56,0-14.34-.09-4.28-3.11-7.33-7.4-7.43-4.98-.11-9.98-.11-14.96.03-4.36.12-7.03,3.11-7.04,7.52,0,2.39,0,4.78,0,7.17Zm-41.17-.45h.01c0,2.7-.08,5.41.02,8.11.11,2.98,1.32,5,4.46,6.08,5.49,1.88,11.09.35,16.57,1.04,4.11.52,8.7-3.6,8.44-8.11-.26-4.46,0-8.94-.07-13.41-.08-5.01-3.07-7.94-8.12-8-4.37-.05-8.73.03-13.1-.02-5.79-.07-8.21,2.28-8.22,8.08,0,2.08,0,4.16,0,6.24Zm72.55,74.88c0,.05,0,.1,0,.15,1.87,0,3.74-.08,5.61.02,3.32.17,6.18-.63,8.58-3.13,2.17-2.26,3.28-4.43,2.76-7.89-.65-4.37-.07-8.91-.2-13.38-.09-3.01-2.49-4.91-5.59-4.72-2.42.15-3.76,1.89-3.75,4.82.02,4.16-.09,8.31.05,12.46.06,1.89-.43,2.53-2.41,2.48-4.57-.13-9.14-.1-13.71.06-2.61.09-4.03,1.52-4.07,4.35-.04,2.88,1.09,4.6,4,4.73,2.9.14,5.81.03,8.72.03Zm-91.22-92.62c0,4.18.05,7.19-.03,10.21-.03,1.01.24,1.72.96,2.43,1.15,1.13,2.84,2.43,3.96,1.53,1.75-1.41,4.54-2.22,4.44-5.38-.13-4.16.06-8.32-.07-12.48-.05-1.82.57-2.3,2.31-2.28,4.47.07,8.94.05,13.41-.11,2.82-.1,4.17-1.87,4.2-4.63.03-2.92-1.73-4.44-4.37-4.51-5.61-.15-11.24-.19-16.84.11-3.33.18-6.14,1.61-7.4,5.25-1.26,3.66-.17,7.37-.56,9.86Zm-.07,76.15c0,2.81-.02,5.61,0,8.42.04,3.76,3.66,8.52,7.07,8.33,6.42-.35,12.85.42,19.25-.44,1.01-.13,1.52-.34,2.03-1.32,2.23-4.28.37-7.64-4.46-7.72-4.05-.07-8.11-.11-12.16.03-1.98.07-2.46-.62-2.4-2.5.13-4.15.13-8.32,0-12.47-.1-3.07-2.39-4.93-5.52-4.79-2.07.09-3.82,2.39-3.81,4.97.02,2.5,0,4.99,0,7.49Zm108.08-75.17c0-2.18-.08-4.37.02-6.55.26-5.68-4.83-9.74-9.67-9.73-4.99.01-9.98-.03-14.97.03-1.09.01-2.19.05-3.22.79-2.11,1.5-1.9,3.68-1.5,5.61.34,1.6,1.75,2.74,3.65,2.78,1.25.03,2.49.1,3.73.16,4.12.19,8.25-.4,12.35.33.08,4.14.16,8.28.23,12.41.02,1.35-.06,2.71.09,4.05.23,2.13,3.79,4.38,5.24,3.23,2.26-1.8,4.84-3.48,4.11-7.2-.37-1.9-.07-3.94-.07-5.91Zm-33.51,63.69v.06c-3.53,0-7.06-.1-10.58.03-2.59.1-4.1,1.4-4.15,4.26-.05,2.83.96,4.74,3.89,4.81,6.95.17,13.9.21,20.85.12,2.52-.03,4.88-2.68,4.66-4.82-.19-1.93-2.56-4.7-5.02-4.52-3.2.24-6.43.06-9.65.06Zm5.3-12.73c0,1.14-.02,2.28,0,3.42.06,3.12,2.02,5.26,4.75,5.2,2.6-.05,5.37-2.85,4.92-5.53-.31-1.86-.19-3.65-.27-5.47-.13-3.18-1.69-4.64-5.07-4.62-3.16.03-4.31,1.22-4.33,4.51,0,.83,0,1.66,0,2.49Zm-10.58-2.63c-.22-2.23,1.28-5.23-3.34-4.93-6.05.39-6.07.09-6.07,3.77q0,5.7,3.66,5.7,5.75,0,5.75-4.54Z"/>
  <path class="cls-5" d="m85.21,112.18c-.01,4.3-.03,8.6-.04,12.9-3.73.28-4.98,1.59-4.98,5.24.02,61.83.08,123.67,0,185.5,0,5.12.68,9.68,4.44,13.38,2.52,2.48,5.5,3.97,9.11,3.97,45.91,0,91.81,0,137.72.02,2.28,0,4.17-1.01,6.16-1.85.04,1.89-1.17,3.25-1.95,4.81-1.22,2.45-4.04,3.6-4.94,6.27-.62.04-1.24.12-1.87.12-46.13,0-92.25-.06-138.38.04-8.89.02-19.66-8.5-19.66-20.15,0-86,.06-172.01.01-258.01,0-5.45.83-10.46,4.19-14.87,3.97-5.22,9.38-8.03,15.77-8.05,46.23-.13,92.46-.07,138.69-.07.41,0,.83.08,1.24.12.28,1.72,1.84,2.43,2.82,3.6,1.87,2.22,3.79,4.41,4.06,7.49-2.65-1.28-5.44-1.85-8.37-1.85-5.1.01-10.2-.03-15.29.01-5.91.04-10.27,4.03-10.6,9.9-.12,2.09-1.07,3.07-2.9,3.39-1.22.21-2.48.26-3.72.26-23.3.01-46.61,0-69.91.01-4.08,0-5.48-1.25-6-5.35-.58-4.68-3.9-8-8.65-8.15-6.13-.19-12.29-.27-18.41.02-3.79.18-7.07,2.38-9.86,4.74-2.8,2.36-3.62,5.97-3.63,9.61-.03,13.84-.03,27.67,0,41.51,0,3.62,1.29,4.94,4.95,5.42Zm77.23-54.51c2.59-.07,4.77-2.5,4.63-5.17-.12-2.33-2.33-4.28-4.81-4.25-2.58.03-4.72,2.2-4.61,4.68.1,2.31,2.62,4.8,4.8,4.74Z"/>
  <path class="cls-3" d="m208.78,298.13c-4.1,0-8.2,0-12.3,0-1-4.07-2.07-4.91-6.5-4.92-13.95-.01-27.9,0-41.84,0-4.49,0-6.1-1.6-6.1-6.1-.01-14.26-.01-28.52,0-42.78,0-4.26,1.09-5.35,5.18-5.47,44.5-1.39,89.02-.22,133.52-.59,5.62-.05,11.24.06,16.85.1,1.47,2.46,1.28,5.19,1.23,7.89-3.41-.43-5.03,1.72-5.49,4.51-.39,2.4-.46,4.96.14,7.42.58,2.38.45,4.73.05,7.61-2.11-3.04-3.91-5.62-5.69-8.21-1.8-2.6-3.6-5.19-5.37-7.8-2.12-3.12-4.78-4.46-7.46-3.27-2.57,1.15-2.21,3.74-2.22,5.98-.04,9.26-.02,18.53-.02,27.79,0,3.08,2.02,5.46,4.57,5.43,2.66-.03,4.68-2.27,4.79-5.3.17-4.46-.31-8.94.25-13.39l-.06.03c2.88,3.66,6.09,7.04,8.48,11.14,1.68,2.88,2.8,6.9,7.39,6.88,1.08,2.78.98,5.47-.63,8.05-18.09.03-36.18.08-54.27.1-9.57.01-19.13,0-28.7,0-3.61,0-5.17,1.35-5.83,4.91Zm-42.37-51.77c-.6,0-.92,0-1.23,0-5.88,0-11.06,3.83-11.88,8.99-.78,4.87,1.81,10.64,7.61,12.4,2.51.76,4.93,1.88,7.31,3,1.42.67,3.13,1.43,2.5,3.55-.53,1.79-2.12,1.94-3.7,2.06-2.64.21-4.75-.8-6.64-2.56-2.55-2.38-5.58-2.51-7.63-.41-1.61,1.65-1.17,4.59.97,6.94,2.55,2.8,5.99,3.43,9.42,4.58,8.14,2.74,15.55-2.91,16.9-9.78,1.37-7-2.82-10.84-8.19-13.11-2.42-1.02-4.91-1.86-7.33-2.87-.89-.37-2.1-.65-1.86-2.07.24-1.38,1.32-1.28,2.38-1.37,2.66-.22,5.04.36,7.31,1.85,2.3,1.52,5.04.71,6.64-1.71,1.23-1.85.48-4.88-1.69-6.18-3.43-2.05-7.01-3.71-10.89-3.32Zm63.73,34.75c-.78,3.34,2.45,3.34,4.12,4.39,1.22.77,2.97-.41,3.5-1.68.53-1.28,1.67-2.21,1.82-3.73.13-1.29.95-2.02,2.54-1.92,2.8.16,5.62.12,8.42-.03,1.54-.08,2.34.49,2.62,1.89.12.62.36,1.13.63,1.69,1.6,3.39,4.06,4.85,6.66,3.86,2.1-.8,3.17-4.89,1.94-7.75-4.03-9.34-7.47-18.9-10.96-28.45-.91-2.49-2.77-2.7-4.75-3-2.2-.32-4.33.78-4.82,2.54-.58,2.13-1.91,3.85-2.43,5.96-.75,3.05-1.85,6.1-3.05,8.89-1.48,3.43-3.12,6.89-4.13,10.42-.66,2.3-2.6,4.25-2.1,6.93Zm-21.06-34.74c-1.73.16-3.47-.18-5.24.27-7.97,2.03-14.61,10.07-14.5,19.11.1,9.3,6.44,15.89,13.75,18.91,7.16,2.96,15.2-.55,18.9-4.91,1.39-1.64,1.99-3.63.74-5.37-1.23-1.7-2.78-2.9-5.52-1.99-2.09.69-2.82,2.63-4.67,3.34-3.56,1.37-7.97.39-10.95-2.6-2.48-2.48-3.27-7.57-2.27-10.86,2.01-6.62,9.95-8.1,15.18-5.33,3.23,1.72,6.08,1.05,7.28-1.5,1.22-2.61-.08-5.46-3.21-7.07-2.98-1.52-6.1-2.38-9.48-2.01Z"/>
  <path class="cls-2" d="m237.6,52.65c-.28-3.08-2.19-5.27-4.06-7.49-.98-1.16-2.54-1.88-2.82-3.6,8.4.02,15.8,2.21,20.41,9.9,2.08,3.48,3.18,7.33,2.78,11.49-.12,1.24.02,2.5.02,3.74,0,52.79-.03,105.58.09,158.37,0,3.27-.93,4.01-3.99,3.87-5.45-.25-5.46-.07-5.46-5.44-.02-52.37-.16-104.75.09-157.12.03-6.32-2.61-10.23-7.04-13.73Z"/>
  <path class="cls-7" d="m298.83,246.25c.05-2.7.24-5.42-1.23-7.89,3.11-.04,6.22-.16,9.33-.09,3.64.08,6.14,2.54,6.16,6.17.05,14.01.16,28.02-.06,42.02-.07,4.54-1.64,7.05-7.04,6.77-2.79-.15-5.6-.09-8.4-.12,1.61-2.57,1.71-5.26.63-8.05,4.36-1.66,4.92-2.64,5.01-7.76.15-9.03-.24-18.04-.62-27.05-.11-2.55-1.41-3.71-3.78-3.99Z"/>
  <path class="cls-2" d="m230.72,342.44c.9-2.67,3.72-3.82,4.94-6.27.78-1.56,1.99-2.92,1.95-4.81,5.05-3.44,7.24-8.23,6.98-14.32-.17-4.05.04-8.11-.06-12.16-.04-1.76.56-2.28,2.32-2.33,7.09-.21,7.09-.27,7.09,6.88,0,4.26.03,8.52-.01,12.79-.1,10.03-7.01,18.52-16.89,20.16-1.94.32-4.2.53-6.31.07Z"/>
  <path d="m141.19,189.86c-2.42.19-5.42-.18-8.43.18-2.28.27-5.63-3.51-5.65-6.22-.05-5.41,0-10.82.04-16.23.03-3.81,2.09-6.25,5.96-6.81,5.86-.85,11.76-.9,17.61.01,3.26.51,5.59,3.08,5.7,6.29.19,5.4.22,10.82.03,16.22-.13,3.69-4.06,6.73-7.81,6.58-2.29-.09-4.58-.02-7.45-.02Zm-4.69-14.94q0,5.61,5.43,5.56,5.26-.05,5.26-5.24,0-5.55-5.51-5.58-5.18-.03-5.18,5.26Z"/>
  <path d="m168.3,134.01c0-2.39,0-4.78,0-7.17,0-4.42,2.68-7.4,7.04-7.52,4.98-.14,9.97-.14,14.96-.03,4.28.09,7.31,3.15,7.4,7.43.1,4.78.1,9.56,0,14.34-.1,4.58-3.43,7.67-8.08,7.68-4.57,0-9.14,0-13.71,0-4.82-.02-7.61-2.8-7.6-7.55,0-2.39,0-4.78,0-7.17Zm14.66-5.37q-5.29-.04-5.29,5.39t5.35,5.34,5.31-5.41-5.38-5.32Z"/>
  <path d="m127.13,133.56c0-2.08,0-4.16,0-6.24,0-5.8,2.43-8.15,8.22-8.08,4.37.05,8.73-.03,13.1.02,5.06.06,8.05,2.99,8.12,8,.07,4.47-.19,8.95.07,13.41.26,4.51-4.34,8.63-8.44,8.11-5.48-.7-11.08.84-16.57-1.04-3.14-1.08-4.35-3.1-4.46-6.08-.1-2.7-.02-5.4-.02-8.11h-.01Zm9.37.16q0,5.69,5.71,5.64,4.98-.04,4.98-5.15,0-5.53-5.45-5.58-5.23-.05-5.23,5.09Z"/>
  <path d="m199.67,208.44c-2.91,0-5.82.11-8.72-.03-2.91-.14-4.04-1.85-4-4.73.04-2.83,1.46-4.26,4.07-4.35,4.57-.16,9.14-.18,13.71-.06,1.98.05,2.47-.59,2.41-2.48-.14-4.15-.03-8.31-.05-12.46-.01-2.93,1.33-4.68,3.75-4.82,3.1-.19,5.5,1.71,5.59,4.72.13,4.46-.46,9.01.2,13.38.52,3.46-.59,5.63-2.76,7.89-2.4,2.5-5.26,3.29-8.58,3.13-1.87-.09-3.74-.02-5.61-.02,0-.05,0-.1,0-.15Z"/>
  <path d="m108.46,115.82c.39-2.49-.7-6.2.56-9.86,1.26-3.64,4.07-5.07,7.4-5.25,5.6-.31,11.23-.27,16.84-.11,2.64.07,4.4,1.6,4.37,4.51-.03,2.77-1.38,4.53-4.2,4.63-4.47.16-8.94.18-13.41.11-1.74-.03-2.37.46-2.31,2.28.13,4.16-.06,8.32.07,12.48.1,3.16-2.69,3.97-4.44,5.38-1.12.9-2.81-.4-3.96-1.53-.71-.7-.98-1.41-.96-2.43.08-3.01.03-6.03.03-10.21Z"/>
  <path d="m108.38,191.97c0-2.5.01-4.99,0-7.49-.02-2.58,1.73-4.88,3.81-4.97,3.13-.14,5.43,1.72,5.52,4.79.13,4.15.13,8.32,0,12.47-.06,1.88.43,2.57,2.4,2.5,4.05-.14,8.11-.09,12.16-.03,4.83.08,6.69,3.44,4.46,7.72-.51.98-1.02,1.19-2.03,1.32-6.4.85-12.83.09-19.25.44-3.41.19-7.03-4.57-7.07-8.33-.03-2.81,0-5.61,0-8.42Z"/>
  <path d="m216.47,116.79c0,1.98-.31,4.01.07,5.91.73,3.72-1.85,5.4-4.11,7.2-1.45,1.15-5.01-1.11-5.24-3.23-.14-1.34-.06-2.7-.09-4.05-.08-4.14-.16-8.28-.23-12.41-4.1-.73-8.24-.14-12.35-.33-1.24-.06-2.49-.13-3.73-.16-1.9-.05-3.32-1.19-3.65-2.78-.41-1.93-.61-4.11,1.5-5.61,1.03-.73,2.13-.77,3.22-.79,4.99-.06,9.98-.02,14.97-.03,4.84-.01,9.93,4.05,9.67,9.73-.1,2.18-.02,4.37-.01,6.55Z"/>
  <path d="m182.96,180.49c3.22,0,6.45.18,9.65-.06,2.46-.18,4.83,2.59,5.02,4.52.21,2.15-2.14,4.79-4.66,4.82-6.95.09-13.9.05-20.85-.12-2.93-.07-3.94-1.99-3.89-4.81.05-2.87,1.57-4.16,4.15-4.26,3.52-.14,7.05-.03,10.58-.03v-.06Z"/>
  <path d="m188.25,167.76c0-.83,0-1.66,0-2.49.02-3.29,1.17-4.48,4.33-4.51,3.37-.03,4.93,1.44,5.07,4.62.08,1.82-.04,3.62.27,5.47.45,2.68-2.31,5.48-4.92,5.53-2.73.05-4.69-2.08-4.75-5.2-.02-1.14,0-2.28,0-3.42Z"/>
  <path d="m177.67,165.13q0,4.54-5.75,4.54-3.67,0-3.66-5.7c0-3.68.02-3.38,6.07-3.77,4.63-.3,3.13,2.7,3.34,4.93Z"/>
  <path d="m162.44,57.67c-2.18.06-4.7-2.44-4.8-4.74-.11-2.47,2.04-4.65,4.61-4.68,2.48-.03,4.69,1.92,4.81,4.25.14,2.67-2.04,5.1-4.63,5.17Z"/>
  <path d="m298.83,246.25c2.37.28,3.67,1.44,3.78,3.99.38,9.01.76,18.02.62,27.05-.08,5.12-.64,6.1-5.01,7.76-4.59.03-5.71-4-7.39-6.88-2.39-4.1-5.6-7.47-8.48-11.14.03-.07.09-.15.08-.22-.01-.06-.1-.11-.15-.17.04.12.09.24.13.36-.57,4.45-.08,8.93-.25,13.39-.12,3.03-2.14,5.27-4.79,5.3-2.55.03-4.57-2.35-4.57-5.43,0-9.27-.02-18.53.02-27.79,0-2.24-.36-4.83,2.22-5.98,2.68-1.19,5.34.15,7.46,3.27,1.77,2.61,3.57,5.2,5.37,7.8,1.79,2.58,3.58,5.16,5.69,8.21.39-2.88.53-5.23-.05-7.61-.6-2.46-.54-5.02-.14-7.42.46-2.78,2.07-4.94,5.49-4.51Z"/>
  <path d="m166.42,246.36c3.88-.39,7.46,1.27,10.89,3.32,2.17,1.3,2.92,4.33,1.69,6.18-1.6,2.41-4.34,3.22-6.64,1.71-2.27-1.49-4.64-2.08-7.31-1.85-1.06.09-2.15,0-2.38,1.37-.24,1.42.97,1.69,1.86,2.07,2.42,1.01,4.91,1.85,7.33,2.87,5.37,2.27,9.56,6.11,8.19,13.11-1.35,6.87-8.76,12.52-16.9,9.78-3.43-1.16-6.87-1.78-9.42-4.58-2.15-2.35-2.59-5.29-.97-6.94,2.05-2.1,5.09-1.96,7.63.41,1.89,1.76,4,2.77,6.64,2.56,1.58-.13,3.16-.27,3.7-2.06.63-2.12-1.08-2.88-2.5-3.55-2.38-1.12-4.8-2.24-7.31-3-5.8-1.75-8.39-7.53-7.61-12.4.82-5.16,6.01-8.98,11.88-8.99.31,0,.62,0,1.23,0Z"/>
  <path d="m230.15,281.11c-.5-2.67,1.44-4.63,2.1-6.93,1.01-3.52,2.65-6.99,4.13-10.42,1.2-2.78,2.3-5.84,3.05-8.89.52-2.11,1.85-3.83,2.43-5.96.48-1.76,2.62-2.87,4.82-2.54,1.99.29,3.84.5,4.75,3,3.49,9.54,6.93,19.11,10.96,28.45,1.23,2.86.16,6.95-1.94,7.75-2.61.99-5.06-.47-6.66-3.86-.27-.56-.51-1.08-.63-1.69-.28-1.4-1.08-1.97-2.62-1.89-2.8.15-5.62.2-8.42.03-1.6-.09-2.41.64-2.54,1.92-.15,1.52-1.29,2.45-1.82,3.73-.53,1.28-2.29,2.45-3.5,1.68-1.67-1.05-4.89-1.04-4.12-4.39Zm16.31-18.47c-.7,1.63-1.06,2.65-1.56,3.59-.47.87-.85,1.91.04,2.43.7.41,1.94.41,2.71.07,1.05-.47.59-1.54.25-2.4-.41-1.02-.8-2.05-1.44-3.69Z"/>
  <path d="m209.09,246.37c3.39-.37,6.51.48,9.48,2.01,3.13,1.6,4.43,4.46,3.21,7.07-1.19,2.55-4.04,3.22-7.28,1.5-5.23-2.78-13.18-1.3-15.18,5.33-1,3.29-.21,8.38,2.27,10.86,2.98,2.99,7.4,3.97,10.95,2.6,1.84-.71,2.58-2.65,4.67-3.34,2.75-.9,4.3.29,5.52,1.99,1.25,1.74.65,3.73-.74,5.37-3.7,4.36-11.74,7.87-18.9,4.91-7.32-3.02-13.65-9.61-13.75-18.91-.1-9.04,6.54-17.08,14.5-19.11,1.76-.45,3.5-.11,5.24-.27Z"/>
  <path class="cls-1" d="m282.4,267.02c-.04-.12-.09-.24-.13-.36.05.06.14.11.15.17.01.07-.05.14-.08.22,0,0,.06-.03.06-.03Z"/>
  <path class="cls-4" d="m136.5,174.92q0-5.29,5.18-5.26,5.51.03,5.51,5.58,0,5.19-5.26,5.24-5.43.05-5.43-5.56Z"/>
  <path class="cls-4" d="m182.96,128.63q5.38.04,5.38,5.32t-5.31,5.41-5.35-5.34,5.29-5.39Z"/>
  <path class="cls-4" d="m136.5,133.72q0-5.14,5.23-5.09,5.45.05,5.45,5.58,0,5.11-4.98,5.15-5.71.05-5.71-5.64Z"/>
  <path class="cls-3" d="m246.46,262.64c.64,1.64,1.03,2.67,1.44,3.69.35.87.8,1.94-.25,2.4-.77.34-2,.34-2.71-.07-.89-.52-.51-1.56-.04-2.43.5-.94.86-1.95,1.56-3.59Z"/>
</svg>