<svg width="400" height="400" viewBox="0 0 400 400" fill="none" xmlns="http://www.w3.org/2000/svg">
<g clip-path="url(#clip0_4_593)">
<path d="M4.34 400C1.95 400 0 398.05 0 395.66V165.87C0 164.38 0.75 163.02 2 162.21C2.7 161.76 3.51 161.53 4.34 161.53C4.97 161.53 5.58 161.66 6.16 161.93L104.96 207.5V165.87C104.96 164.38 105.71 163.02 106.96 162.21C107.66 161.76 108.47 161.53 109.3 161.53C109.93 161.53 110.54 161.66 111.12 161.93L209.92 207.5V165.87C209.92 164.41 210.65 163.06 211.86 162.25C212.57 161.78 213.4 161.53 214.26 161.53C214.84 161.53 215.41 161.64 215.95 161.87L324.7 207.74V139.2C324.7 136.81 326.65 134.86 329.04 134.86H358.08L356.98 130C352.77 111.38 335.86 97.87 316.78 97.87H244.63C242.24 97.87 240.29 95.92 240.29 93.53C240.29 91.14 242.24 89.19 244.63 89.19H316.78C341.2 89.19 362.4 107.37 366.11 131.48L366.63 134.86H395.65C398.04 134.86 399.99 136.81 399.99 139.2V395.67C399.99 398.06 398.04 400.01 395.65 400.01H4.34V400ZM333.39 391.32H391.31V348.71H362.35C359.96 348.71 358.01 346.76 358.01 344.37C358.01 341.98 359.96 340.03 362.35 340.03H391.31V297.42H362.35C359.96 297.42 358.01 295.47 358.01 293.08C358.01 290.69 359.96 288.74 362.35 288.74H391.31V246.13H362.35C359.96 246.13 358.01 244.18 358.01 241.79C358.01 239.4 359.96 237.45 362.35 237.45H391.31V194.84H362.35C359.96 194.84 358.01 192.89 358.01 190.5C358.01 188.11 359.96 186.16 362.35 186.16H391.31V143.55H333.39V391.34V391.32ZM8.68 391.32H324.71V217.16L218.62 172.41V214.28C218.62 215.77 217.87 217.13 216.62 217.94C215.92 218.39 215.11 218.63 214.28 218.63C213.65 218.63 213.04 218.5 212.47 218.23L113.66 172.66V214.29C113.66 215.78 112.91 217.14 111.66 217.95C110.96 218.4 110.15 218.63 109.32 218.63C108.69 218.63 108.08 218.5 107.5 218.23L8.68 172.65V391.32Z" fill="black"/>
<path d="M34.83 333.53C32.44 333.53 30.49 331.58 30.49 329.19V283.4C30.49 281.01 32.44 279.06 34.83 279.06H78.77C79.93 279.06 81.02 279.51 81.84 280.33C82.66 281.15 83.11 282.24 83.11 283.4V300.98C83.11 303.37 81.16 305.32 78.77 305.32C76.38 305.32 74.43 303.37 74.43 300.98V287.75H39.18V324.86H56.81C59.2 324.86 61.15 326.81 61.15 329.2C61.15 331.59 59.2 333.54 56.81 333.54H34.84L34.83 333.53Z" fill="black"/>
<path d="M78.76 333.53C76.37 333.53 74.42 331.58 74.42 329.19V328.96C74.42 326.57 76.37 324.62 78.76 324.62C81.15 324.62 83.1 326.57 83.1 328.96V329.19C83.1 331.58 81.15 333.53 78.76 333.53Z" fill="black"/>
<path d="M139.73 333.53C137.34 333.53 135.39 331.58 135.39 329.19V283.4C135.39 281.01 137.34 279.06 139.73 279.06H183.67C184.83 279.06 185.92 279.51 186.74 280.33C187.56 281.15 188.01 282.24 188.01 283.4V300.98C188.01 303.37 186.06 305.32 183.67 305.32C181.28 305.32 179.33 303.37 179.33 300.98V287.75H144.08V324.86H161.71C164.1 324.86 166.05 326.81 166.05 329.2C166.05 331.59 164.1 333.54 161.71 333.54H139.74L139.73 333.53Z" fill="black"/>
<path d="M183.67 333.53C181.28 333.53 179.33 331.58 179.33 329.19V328.96C179.33 326.57 181.28 324.62 183.67 324.62C186.06 324.62 188.01 326.57 188.01 328.96V329.19C188.01 331.58 186.06 333.53 183.67 333.53Z" fill="black"/>
<path d="M244.64 333.53C242.25 333.53 240.3 331.58 240.3 329.19V283.4C240.3 281.01 242.25 279.06 244.64 279.06H288.58C289.74 279.06 290.83 279.51 291.65 280.33C292.47 281.15 292.92 282.24 292.92 283.4V300.98C292.92 303.37 290.97 305.32 288.58 305.32C286.19 305.32 284.24 303.37 284.24 300.98V287.75H248.99V324.86H266.62C269.01 324.86 270.96 326.81 270.96 329.2C270.96 331.59 269.01 333.54 266.62 333.54H244.65L244.64 333.53Z" fill="black"/>
<path d="M288.58 333.53C286.19 333.53 284.24 331.58 284.24 329.19V328.96C284.24 326.57 286.19 324.62 288.58 324.62C290.97 324.62 292.92 326.57 292.92 328.96V329.19C292.92 331.58 290.97 333.53 288.58 333.53Z" fill="black"/>
<path d="M204.37 62.11C201.98 62.11 200.03 60.16 200.03 57.77C200.03 55.38 201.98 53.43 204.37 53.43H211.41L211.82 49.58C211.83 49.44 211.85 49.3 211.87 49.16C213.38 37.87 222.72 29.11 234.08 28.32C234.64 28.28 235.2 28.26 235.76 28.26C238.7 28.26 241.59 28.79 244.34 29.83L248.33 31.34L249.57 27.26C254.35 11.52 269.11 0.31 285.47 0C285.7 0 285.94 0 286.18 0C306.67 0 323.83 16.65 324.44 37.12C324.55 40.94 324.1 44.74 323.1 48.4L321.72 53.44H334.52C336.91 53.44 338.86 55.39 338.86 57.78C338.86 60.17 336.91 62.12 334.52 62.12H204.37V62.11ZM235.73 36.95C235.38 36.95 235.03 36.96 234.67 36.99C228.23 37.44 222.55 42.13 220.85 48.4L219.49 53.42H249.27L250.79 45.75C249.96 45.41 249.27 44.83 248.79 44.08C245.93 39.61 241.05 36.95 235.73 36.95ZM285.65 8.68C269.63 8.98 256.61 22.24 256.61 38.26C256.61 39.28 256.66 40.3 256.76 41.3C256.95 43.2 255.86 45.03 254.09 45.75L255.6 53.42H311.69L312.78 51.18C314.89 46.87 315.88 42.22 315.74 37.36C315.27 21.54 302.01 8.67 286.16 8.67H285.62L285.65 8.68Z" fill="black"/>
<path d="M357.47 62.11C355.08 62.11 353.13 60.16 353.13 57.77C353.13 55.38 355.08 53.43 357.47 53.43H357.88C360.27 53.43 362.22 55.38 362.22 57.77C362.22 60.16 360.27 62.11 357.88 62.11H357.47Z" fill="black"/>
<path d="M112.94 124.49C110.55 124.49 108.6 122.54 108.6 120.15C108.6 117.76 110.55 115.81 112.94 115.81H166.08C168.47 115.81 170.42 117.76 170.42 120.15C170.42 122.54 168.47 124.49 166.08 124.49H112.94Z" fill="black"/>
<path d="M78.71 124.49C76.32 124.49 74.37 122.54 74.37 120.15C74.37 117.76 76.32 115.81 78.71 115.81H86.98C89.37 115.81 91.32 117.76 91.32 120.15C91.32 122.54 89.37 124.49 86.98 124.49H78.71Z" fill="black"/>
<path d="M215.99 97.77C214.87 97.77 213.72 97.29 212.92 96.5C212.12 95.71 211.65 94.56 211.65 93.43C211.65 92.3 212.13 91.16 212.92 90.36C213.71 89.56 214.86 89.09 215.99 89.09C217.12 89.09 218.26 89.57 219.06 90.36C219.87 91.17 220.33 92.28 220.33 93.43C220.33 94.58 219.87 95.69 219.06 96.49C218.26 97.29 217.11 97.77 215.98 97.77H215.99Z" fill="black"/>
<path d="M52.3 97.77C49.91 97.77 47.96 95.82 47.96 93.43C47.96 91.04 49.91 89.09 52.3 89.09H186.29C187.45 89.09 188.54 89.54 189.36 90.36C190.18 91.18 190.63 92.27 190.63 93.43C190.63 95.83 188.68 97.77 186.29 97.77H52.3Z" fill="black"/>
</g>
<defs>
<clipPath id="clip0_4_593">
<rect width="400" height="400" fill="white"/>
</clipPath>
</defs>
</svg>
