<?xml version="1.0" encoding="UTF-8"?>
<svg id="black" xmlns="http://www.w3.org/2000/svg" viewBox="0 0 100 100">
  <defs>
    <style>
      .cls-1 {
        fill: #32354b;
      }
    </style>
  </defs>
  <path class="cls-1" d="m37.17,55.68c-.51,0-.92-.41-.92-.92s.41-.92.92-.92.92.41.92.92-.41.92-.92.92Z"/>
  <path class="cls-1" d="m37.17,66.68c-.51,0-.92-.41-.92-.92s.41-.92.92-.92.92.41.92.92-.41.92-.92.92Z"/>
  <path class="cls-1" d="m26.18,96c-6.57,0-11.91-5.34-11.91-11.91v-7.33c0-.51.41-.92.92-.92h10.08V4.92c0-.37.22-.7.57-.85.11-.05.23-.07.35-.07.24,0,.47.1.65.27l6.68,6.68,6.68-6.68c.17-.17.4-.27.65-.27s.47.1.65.27l6.68,6.68,6.68-6.68c.17-.17.4-.27.65-.27s.47.1.65.27l6.68,6.68,6.68-6.68c.17-.17.4-.27.65-.27s.47.1.65.27l6.68,6.68,6.68-6.68c.17-.17.4-.27.65-.27.12,0,.24.02.35.07.34.14.57.47.57.85v81c0,5.56-4.52,10.08-10.07,10.08H26.18Zm-10.08-11.91c0,5.56,4.52,10.08,10.08,10.08h43.25l-1.35-1.52c-.96-1.08-1.68-2.38-2.07-3.76-1.01-3.51-.23-7.04,2.14-9.69l1.37-1.53H16.1v6.42Zm11-8.25h47.19c.45,0,.84.34.91.78l.02.1c.07.5-.27.96-.77,1.04-2.34.35-4.42,1.69-5.71,3.69-1.31,2.04-1.65,4.5-.96,6.92.96,3.35,4.14,5.72,7.73,5.78.05,0,.11,0,.17,0,4.55,0,8.25-3.7,8.25-8.24V7.13l-5.77,5.77c-.17.17-.4.27-.65.27s-.47-.1-.65-.27l-6.68-6.68-6.68,6.68c-.17.17-.4.27-.65.27s-.47-.1-.65-.27l-6.68-6.68-6.68,6.68c-.17.17-.4.27-.65.27s-.47-.1-.65-.27l-6.68-6.68-6.68,6.68c-.17.17-.4.27-.65.27s-.47-.1-.65-.27l-5.77-5.77v68.71Z"/>
  <path class="cls-1" d="m55.5,43.59c-.51,0-.92-.41-.92-.92v-2.8l-.62-.21c-1.07-.36-2.08-1.09-2.94-2.11-.16-.19-.23-.42-.21-.67.02-.24.14-.47.32-.62.21-.18.44-.21.59-.21.27,0,.53.12.7.33.93,1.1,2.02,1.71,3.08,1.71,1.52,0,2.75-1.23,2.75-2.75s-1.23-2.75-2.75-2.75c-2.53,0-4.58-2.06-4.58-4.58,0-1.94,1.23-3.67,3.06-4.32l.61-.22v-2.79c0-.51.41-.92.92-.92s.92.41.92.92v2.8l.63.21c.83.28,1.62.77,2.35,1.48.18.17.28.4.28.64,0,.24-.09.48-.26.65-.17.18-.41.28-.66.28s-.47-.09-.64-.26c-.82-.8-1.73-1.22-2.62-1.22-1.52,0-2.75,1.23-2.75,2.75s1.23,2.75,2.75,2.75c2.53,0,4.58,2.06,4.58,4.58,0,1.94-1.23,3.67-3.06,4.32l-.61.22v2.79c0,.51-.41.92-.92.92Z"/>
  <path class="cls-1" d="m44.5,66.68c-.51,0-.92-.41-.92-.92s.41-.92.92-.92h29.32c.51,0,.92.41.92.92s-.41.92-.92.92h-29.32Z"/>
  <path class="cls-1" d="m44.5,55.68c-.51,0-.92-.41-.92-.92s.41-.92.92-.92h29.32c.51,0,.92.41.92.92s-.41.92-.92.92h-29.32Z"/>
  <path class="cls-1" d="m70.16,32.59c-.51,0-.92-.41-.92-.92s.41-.92.92-.92h3.67c.51,0,.92.41.92.92s-.41.92-.92.92h-3.67Z"/>
  <path class="cls-1" d="m37.17,32.59c-.51,0-.92-.41-.92-.92s.41-.92.92-.92h3.67c.51,0,.92.41.92.92s-.41.92-.92.92h-3.67Z"/>
</svg>