<?xml version="1.0" encoding="UTF-8"?>
<svg id="black" xmlns="http://www.w3.org/2000/svg" viewBox="0 0 100 100">
  <g id="colonnina">
    <g>
      <path d="m4.92,96c-.51,0-.92-.41-.92-.92v-4.68c0-2.24,1.22-4.3,3.19-5.38l.48-.26V23.24c0-2.53,2.06-4.58,4.58-4.58h6.96v-4.03h-2.57c-.51,0-.92-.41-.92-.92V4.92c0-.51.41-.92.92-.92h29.32c.51,0,.92.41.92.92v8.8c0,.51-.41.92-.92.92h-2.57v4.03h6.96c2.53,0,4.58,2.06,4.58,4.58v49.3h6.41c.51,0,.92.41.92.92v1.1h1.47c1.82,0,3.3-1.48,3.3-3.3v-11.27c0-.51.41-.92.92-.92s.92.41.92.92v11.27c0,2.83-2.3,5.13-5.13,5.13h-1.47v5.5h1.47c5.86,0,10.63-4.77,10.63-10.63v-27.49c0-.24.1-.47.27-.65.17-.17.4-.27.65-.27h3.32l-.02-.93c-.06-2.96-1.5-5.8-3.85-7.59-.23-.17-.36-.44-.36-.73v-.92c0-2.37,1.93-4.31,4.31-4.31h5.59v-5.5h-5.59c-5.41,0-9.8,4.4-9.8,9.8v10.81c0,.51-.41.92-.92.92s-.92-.41-.92-.92v-10.81c0-6.42,5.22-11.64,11.64-11.64h6.51c.25,0,.48.1.65.28l.27.27h8.97c.51,0,.92.41.92.92v6.23c0,.51-.41.92-.92.92h-8.97l-.27.27c-.17.18-.41.28-.65.28h-6.51c-1.36,0-2.47,1.11-2.47,2.47v.46l.31.27c2.48,2.21,3.91,5.37,3.91,8.68v1.67c0,.24-.1.47-.27.65-.17.17-.4.27-.65.27h-3.3v26.57c0,6.87-5.59,12.46-12.46,12.46h-1.47v1.47c0,.51-.41.92-.92.92h-4.25l.75,1.36c.49.9.75,1.92.75,2.94v4.68c0,.51-.41.92-.92.92H4.92Zm5.22-9.9c-2.37,0-4.3,1.93-4.3,4.3v3.76h50.95v-3.76c0-2.37-1.93-4.3-4.3-4.3H10.13Zm25.08-8.13c.25,0,.48.1.65.27.36.36.36.94,0,1.3l-4.87,4.86,2.41-.14c2.17-.13,5.37-.91,8.35-3.89,4.15-4.15,4.13-8.69,3.74-11.02l-.11-.65-.65-.11c-.62-.1-1.27-.15-1.92-.15-2.36,0-5.86.68-9.09,3.91-2.97,2.97-3.75,6.18-3.88,8.34l-.15,2.41,4.86-4.86c.17-.17.4-.27.65-.27Zm19.74,6.3h5.5v-9.9h-5.5v9.9Zm-12.16-17.66c2.13,0,3.57.47,3.63.49.3.1.52.34.6.64v.02c.37,1.29,1.91,8.03-3.97,13.91-.35.35-.71.68-1.07.99l-1.92,1.62h13.06V23.24c0-1.52-1.23-2.75-2.75-2.75H12.25c-1.52,0-2.75,1.23-2.75,2.75v61.03h13.07l-1.93-1.62c-.38-.32-.74-.65-1.07-.98-5.76-5.76-4.41-12.33-4-13.82h0s.01-.08.02-.12c.08-.3.3-.54.6-.64.06-.02,1.5-.49,3.63-.49,2.7,0,6.69.77,10.36,4.44.15.15.3.31.45.47l.67.72.67-.72c.17-.18.31-.33.45-.47,3.67-3.67,7.66-4.44,10.36-4.44Zm-23.01,1.83c-.65,0-1.29.05-1.91.15l-.65.11-.11.65c-.38,2.34-.4,6.87,3.75,11.02,1.79,1.79,3.83,2.97,6.08,3.53l1.27.31-.14-1.3c-.06-.58-.09-1.16-.08-1.75v-.39s-4.38-4.39-4.38-4.39c-.17-.17-.27-.4-.27-.65s.1-.47.27-.65c.17-.17.4-.27.65-.27s.47.1.65.27l3.32,3.32.46-1.42c.3-.91.69-1.79,1.18-2.64l.32-.55-.41-.49c-.28-.34-.58-.67-.89-.97-3.23-3.23-6.73-3.9-9.11-3.9ZM86.1,27.82h8.06v-4.4h-8.06v4.4ZM21.04,18.66h20.53v-4.03h-20.53v4.03Zm-3.48-5.86h27.49v-6.96h-27.49v6.96Z"/>
      <path d="m67.96,52.66c-.24,0-.48-.1-.65-.27-.17-.17-.27-.41-.27-.65s.1-.48.27-.65c.17-.17.41-.27.65-.27s.48.1.65.27c.17.17.27.41.27.65s-.1.48-.27.65c-.17.17-.41.27-.65.27Z"/>
    </g>
    <path d="m31.31,52.37c-5.22,0-9.47-4.25-9.47-9.47s4.25-9.47,9.47-9.47,9.47,4.25,9.47,9.47-4.25,9.47-9.47,9.47Zm0-17.39c-4.37,0-7.92,3.55-7.92,7.92s3.55,7.92,7.92,7.92,7.92-3.55,7.92-7.92-3.55-7.92-7.92-7.92Z"/>
    <path d="m31.31,29.08c-.43,0-.78-.35-.78-.78v-3.1c0-.43.35-.78.78-.78s.78.35.78.78v3.1c0,.43-.35.78-.78.78Z"/>
    <path d="m31.31,61.37c-.43,0-.78-.35-.78-.78v-3.1c0-.43.35-.78.78-.78s.78.35.78.78v3.1c0,.43-.35.78-.78.78Z"/>
    <path d="m45.9,43.67c-.43,0-.78-.35-.78-.78s.35-.78.78-.78h3.1c.43,0,.78.35.78.78s-.35.78-.78.78h-3.1Z"/>
    <path d="m13.61,43.67c-.43,0-.78-.35-.78-.78s.35-.78.78-.78h3.1c.43,0,.78.35.78.78s-.35.78-.78.78h-3.1Z"/>
    <path d="m41.63,33.35c-.21,0-.4-.08-.55-.23-.3-.3-.3-.79,0-1.1l2.2-2.2c.15-.15.34-.23.55-.23s.4.08.55.23c.3.3.3.8,0,1.1l-2.2,2.19c-.15.15-.34.23-.55.23Z"/>
    <path d="m18.79,56.19c-.21,0-.4-.08-.55-.23-.3-.3-.3-.8,0-1.1l2.2-2.19c.15-.15.34-.23.55-.23s.4.08.55.23c.15.15.23.34.23.55s-.08.4-.23.55l-2.2,2.2c-.15.15-.34.23-.55.23Z"/>
    <path d="m43.82,56.19c-.21,0-.4-.08-.55-.23l-2.2-2.2c-.3-.3-.3-.8,0-1.1.15-.15.34-.23.55-.23s.4.08.55.23l2.2,2.2c.3.3.3.8,0,1.1-.15.15-.34.23-.55.23Z"/>
    <path d="m20.99,33.35c-.21,0-.4-.08-.55-.23l-2.2-2.2c-.3-.3-.3-.8,0-1.1.15-.15.34-.23.55-.23s.4.08.55.23l2.19,2.2c.3.3.3.8,0,1.1-.15.15-.34.23-.55.23Z"/>
  </g>
</svg>