<svg width="440" height="400" viewBox="0 0 440 400" fill="none" xmlns="http://www.w3.org/2000/svg">
<g clip-path="url(#clip0_4_591)">
<path d="M237.09 109.197C234.462 109.197 232.328 107.063 232.328 104.435C232.328 101.806 234.462 99.6728 237.09 99.6728H249.869L249.979 95.4057C250.012 94.1189 250.111 92.8542 250.276 91.6224C250.815 87.6303 252.025 83.792 253.895 80.2178L254.884 78.3261L254.005 76.3795C250.848 69.4069 249.177 61.6975 249.177 54.0651C249.177 24.2501 273.427 0 303.242 0C318.957 0 333.848 6.80762 344.109 18.6742L345.836 20.6758L348.409 20.0819C352.303 19.1801 356.262 18.6852 360.188 18.6082C360.54 18.6082 360.881 18.6082 361.233 18.6082C391.356 18.6082 416.585 43.0783 417.465 73.1572C417.673 80.2617 416.574 87.2123 414.198 93.822L412.087 99.6838H434.577C435.853 99.6838 437.041 100.179 437.942 101.081C438.844 101.982 439.339 103.181 439.339 104.446C439.339 107.074 437.206 109.208 434.577 109.208H237.079L237.09 109.197ZM284.71 71.0236C284.128 71.0236 283.534 71.0456 282.951 71.0896C271.073 71.9144 261.296 81.0756 259.723 92.8872C259.624 93.635 259.558 94.3719 259.525 95.0867L259.317 99.6728H400.913L402.167 97.4183C406.214 90.1378 408.215 81.8344 407.973 73.4211C407.237 48.4342 386.286 28.1103 361.266 28.1103C360.98 28.1103 360.694 28.1103 360.397 28.1103C335.124 28.5832 314.558 49.534 314.558 74.8179C314.558 76.4015 314.635 78.0182 314.8 79.6129C315.02 81.8234 313.723 83.869 311.633 84.5949C311.127 84.7708 310.599 84.8588 310.071 84.8588C308.433 84.8588 306.937 84.034 306.057 82.6593C301.372 75.3567 293.41 70.9906 284.732 70.9906L284.71 71.0236ZM303.242 9.52407C291.364 9.52407 280.179 14.1651 271.755 22.5784C263.331 31.0027 258.69 42.1765 258.701 54.0651C258.701 57.3974 259.075 60.7407 259.822 63.996L261.197 69.9898L266.421 66.7345C271.216 63.7431 276.704 61.9615 282.302 61.5765C283.105 61.5215 283.919 61.4886 284.721 61.4886C290.077 61.4886 295.444 62.7423 300.239 65.1288L305.221 67.6033L306.464 62.1814C308.763 52.1075 313.854 42.8583 321.168 35.4128C324.28 32.2455 327.756 29.452 331.506 27.0985L336.576 23.9202L332.012 20.0489C324.016 13.2633 313.811 9.52407 303.264 9.52407H303.242Z" fill="black"/>
<path d="M32.3445 101.443C29.716 101.443 27.5824 99.3099 27.5824 96.6814C27.5824 84.1 17.3435 73.8611 4.76204 73.8611C2.13357 73.8611 0 71.7275 0 69.099C0 66.4705 2.13357 64.337 4.76204 64.337C14.0442 64.337 22.8974 68.3622 29.0561 75.3677L32.3445 79.118L35.6328 75.3677C41.7915 68.3622 50.6447 64.337 59.9269 64.337C62.5553 64.337 64.6889 66.4705 64.6889 69.099C64.6889 71.7275 62.5553 73.8611 59.9269 73.8611C47.3454 73.8611 37.1065 84.1 37.1065 96.6814C37.1065 99.3099 34.9729 101.443 32.3445 101.443Z" fill="black"/>
<path d="M113.596 37.1065C110.968 37.1065 108.834 34.9729 108.834 32.3444C108.834 19.763 98.5951 9.52407 86.0136 9.52407C83.3852 9.52407 81.2516 7.3905 81.2516 4.76204C81.2516 2.13357 83.3852 0 86.0136 0C95.2957 0 104.149 4.02518 110.308 11.0308L113.596 14.781L116.884 11.0308C123.043 4.02518 131.896 0 141.178 0C143.807 0 145.94 2.13357 145.94 4.76204C145.94 7.3905 143.807 9.52407 141.178 9.52407C128.597 9.52407 118.358 19.763 118.358 32.3444C118.358 34.9729 116.225 37.1065 113.596 37.1065Z" fill="black"/>
<path d="M434.588 400C431.96 400 429.826 397.866 429.826 395.238C429.826 392.61 431.96 390.476 434.588 390.476H434.709C437.337 390.476 439.471 392.61 439.471 395.238C439.471 397.866 437.337 400 434.709 400H434.588Z" fill="black"/>
<path d="M72.6182 295.609C69.9898 295.609 67.8562 293.476 67.8562 290.847V276.22C67.8562 273.592 69.9898 271.458 72.6182 271.458C75.2467 271.458 77.3803 273.592 77.3803 276.22V290.847C77.3803 293.476 75.2467 295.609 72.6182 295.609Z" fill="black"/>
<path d="M104.622 295.609C101.993 295.609 99.8597 293.476 99.8597 290.847V276.22C99.8597 273.592 101.993 271.458 104.622 271.458C107.25 271.458 109.384 273.592 109.384 276.22V290.847C109.384 293.476 107.25 295.609 104.622 295.609Z" fill="black"/>
<path d="M72.6182 343.164C69.9898 343.164 67.8562 341.03 67.8562 338.402V323.774C67.8562 321.146 69.9898 319.012 72.6182 319.012C75.2467 319.012 77.3803 321.146 77.3803 323.774V338.402C77.3803 341.03 75.2467 343.164 72.6182 343.164Z" fill="black"/>
<path d="M104.622 343.164C101.993 343.164 99.8597 341.03 99.8597 338.402V323.774C99.8597 321.146 101.993 319.012 104.622 319.012C107.25 319.012 109.384 321.146 109.384 323.774V338.402C109.384 341.03 107.25 343.164 104.622 343.164Z" fill="black"/>
<path d="M204.119 400C201.49 400 199.357 397.866 199.357 395.238V124.748H118.369V151.802H176.118C178.747 151.802 180.88 153.936 180.88 156.564C180.88 159.193 178.747 161.326 176.118 161.326H118.369V181.067H176.118C178.747 181.067 180.88 183.201 180.88 185.829C180.88 188.458 178.747 190.591 176.118 190.591H118.369V210.299H176.118C178.747 210.299 180.88 212.433 180.88 215.061C180.88 217.69 178.747 219.823 176.118 219.823H118.369V239.564H176.118C178.747 239.564 180.88 241.698 180.88 244.327C180.88 246.955 178.747 249.089 176.118 249.089H139.419V268.797H176.118C178.747 268.797 180.88 270.93 180.88 273.559C180.88 276.187 178.747 278.321 176.118 278.321H139.419V298.029H176.118C178.747 298.029 180.88 300.162 180.88 302.791C180.88 305.419 178.747 307.553 176.118 307.553H139.419V327.261H176.118C178.747 327.261 180.88 329.394 180.88 332.023C180.88 334.651 178.747 336.785 176.118 336.785H139.419V356.493H176.118C178.747 356.493 180.88 358.626 180.88 361.255C180.88 363.883 178.747 366.017 176.118 366.017H139.419V395.227C139.419 397.855 137.285 399.989 134.657 399.989C132.028 399.989 129.895 397.855 129.895 395.227V249.078H48.8851V351.016L53.0643 351.214C66.4375 351.841 78.0842 359.825 83.4621 372.044L84.3419 374.034L86.4645 374.54C96.0766 376.828 102.796 385.329 102.796 395.216C102.796 397.844 100.663 399.978 98.0342 399.978H4.76204C2.13357 399.978 0 397.844 0 395.216C0 384.636 7.10456 375.387 17.2665 372.737L19.1911 372.231L20.0819 370.46C23.6342 363.366 29.573 357.648 36.7985 354.348L39.361 353.182V244.327C39.361 241.698 41.4946 239.564 44.1231 239.564H108.834V119.986C108.834 117.357 110.968 115.224 113.596 115.224H204.119C206.747 115.224 208.881 117.357 208.881 119.986V175.579H296.456L296.731 175.601L298.15 175.678L299.348 174.909C314.096 165.34 331.198 160.282 348.794 160.282C399.032 160.282 439.911 201.16 439.911 251.398C439.911 274.251 431.377 296.137 415.87 312.997C400.462 329.757 379.566 340.106 357.032 342.141L353.04 342.504V390.498H405.004C407.632 390.498 409.766 392.631 409.766 395.26C409.766 397.888 407.632 400.022 405.004 400.022H240.862C238.234 400.022 236.1 397.888 236.1 395.26C236.1 392.631 238.234 390.498 240.862 390.498H257.161V365.269L253.62 364.576C233.527 360.628 218.944 342.9 218.944 322.411C218.944 300.646 235.242 282.302 256.842 279.75L261.835 279.156L260.57 274.295C258.646 266.872 257.667 259.173 257.667 251.409C257.667 229.798 265.409 208.826 279.464 192.351L285.634 185.125H208.87V210.321H227.918C230.546 210.321 232.68 212.455 232.68 215.083C232.68 217.712 230.546 219.845 227.918 219.845H208.87V239.586H227.918C230.546 239.586 232.68 241.72 232.68 244.348C232.68 246.977 230.546 249.111 227.918 249.111H208.87V268.852H227.918C230.546 268.852 232.68 270.985 232.68 273.614C232.68 276.242 230.546 278.376 227.918 278.376H208.87V395.271C208.87 397.899 206.736 400.033 204.108 400.033L204.119 400ZM302.747 335.828C297.875 350.554 285.425 361.563 270.237 364.543L266.696 365.236V390.465H343.515V342.405L339.567 342.009C328.811 340.931 318.474 337.984 308.817 333.265L304.308 331.055L302.736 335.828H302.747ZM51.3926 360.694C40.3508 360.694 30.6068 367.744 27.1535 378.235C26.5266 380.127 24.778 381.447 22.7874 381.513C21.9955 381.535 21.2147 381.634 20.4559 381.788L21.3357 390.465H88.4551L77.8972 382.569C77.0284 381.92 76.4015 380.974 76.1266 379.918C73.2562 368.601 63.0832 360.694 51.3926 360.694ZM261.934 288.933C243.491 288.933 228.479 303.934 228.479 322.389C228.479 336.818 237.695 349.575 251.398 354.128L257.161 356.042V316.78C257.161 314.151 259.295 312.018 261.923 312.018C264.551 312.018 266.685 314.151 266.685 316.78V356.042L272.448 354.128C286.162 349.575 295.367 336.818 295.367 322.389C295.367 303.945 280.366 288.933 261.912 288.933H261.934ZM378.785 242.864C380.061 242.864 381.249 243.359 382.151 244.261C383.052 245.162 383.547 246.361 383.547 247.626C383.547 248.891 383.052 250.089 382.151 250.991L353.04 280.102V332.991L357.912 332.452C399.23 327.833 430.387 292.981 430.387 251.387C430.387 206.395 393.786 169.795 348.794 169.795C303.802 169.795 267.202 206.395 267.202 251.387C267.202 260.724 268.775 269.896 271.876 278.629L272.613 280.696L274.702 281.345C291.177 286.492 302.945 300.877 304.682 318.012L304.902 320.189L306.783 321.322C316.549 327.206 327.25 330.901 338.588 332.32L343.515 332.936V296.72L312.194 265.398C310.335 263.54 310.335 260.515 312.194 258.657C313.096 257.755 314.294 257.26 315.559 257.26C316.824 257.26 318.023 257.755 318.924 258.657L343.515 283.248V234.747C343.515 232.119 345.649 229.985 348.277 229.985C350.906 229.985 353.04 232.119 353.04 234.747V266.63L375.409 244.261C376.311 243.359 377.51 242.864 378.774 242.864H378.785Z" fill="black"/>
</g>
<defs>
<clipPath id="clip0_4_591">
<rect width="439.911" height="400" fill="white"/>
</clipPath>
</defs>
</svg>
