<svg width="422" height="400" viewBox="0 0 422 400" fill="none" xmlns="http://www.w3.org/2000/svg">
<g clip-path="url(#clip0_4_592)">
<path d="M282.364 335.951C281.143 335.951 279.996 335.477 279.133 334.614C277.354 332.835 277.354 329.93 279.133 328.151L279.217 328.067C280.08 327.204 281.227 326.73 282.448 326.73C283.669 326.73 284.817 327.204 285.68 328.067C287.459 329.846 287.459 332.751 285.68 334.53L285.617 334.593C284.743 335.467 283.596 335.94 282.375 335.94L282.364 335.951Z" fill="black"/>
<path d="M208.768 138.498C206.252 138.498 204.2 136.445 204.2 133.93V133.709C204.2 131.193 206.252 129.141 208.768 129.141C211.284 129.141 213.336 131.193 213.336 133.709V133.93C213.336 136.445 211.284 138.498 208.768 138.498Z" fill="black"/>
<path d="M284.995 138.498C282.48 138.498 280.427 136.445 280.427 133.93V133.709C280.427 131.193 282.48 129.141 284.995 129.141C287.511 129.141 289.564 131.193 289.564 133.709V133.93C289.564 136.445 287.511 138.498 284.995 138.498Z" fill="black"/>
<path d="M149.897 158.634C147.382 158.634 145.329 156.581 145.329 154.066C145.329 151.55 147.382 149.497 149.897 149.497H162.128V95.3528C162.128 92.8372 164.181 90.7847 166.696 90.7847H208.757C211.273 90.7847 213.326 92.8372 213.326 95.3528V106.921C213.326 109.436 211.273 111.489 208.757 111.489C206.242 111.489 204.189 109.436 204.189 106.921V99.921H171.265V149.497H238.356V95.3528C238.356 92.8372 240.408 90.7847 242.924 90.7847H284.985C287.501 90.7847 289.553 92.8372 289.553 95.3528V106.921C289.553 109.436 287.501 111.489 284.985 111.489C282.469 111.489 280.417 109.436 280.417 106.921V99.921H247.492V149.497H314.615V95.3528C314.615 92.8372 316.667 90.7847 319.183 90.7847H361.244C363.76 90.7847 365.812 92.8372 365.812 95.3528V106.921C365.812 109.436 363.76 111.489 361.244 111.489C358.728 111.489 356.676 109.436 356.676 106.921V99.921H323.751V149.497H378.033C380.548 149.497 382.601 151.55 382.601 154.066C382.601 156.581 380.548 158.634 378.033 158.634H149.887H149.897Z" fill="black"/>
<path d="M361.255 138.498C358.739 138.498 356.687 136.445 356.687 133.93V133.709C356.687 131.193 358.739 129.141 361.255 129.141C363.77 129.141 365.823 131.193 365.823 133.709V133.93C365.823 136.445 363.77 138.498 361.255 138.498Z" fill="black"/>
<path d="M208.768 234.83C206.252 234.83 204.2 232.777 204.2 230.262V230.041C204.2 227.525 206.252 225.472 208.768 225.472C211.284 225.472 213.336 227.525 213.336 230.041V230.262C213.336 232.777 211.284 234.83 208.768 234.83Z" fill="black"/>
<path d="M284.995 234.83C282.48 234.83 280.427 232.777 280.427 230.262V230.041C280.427 227.525 282.48 225.472 284.995 225.472C287.511 225.472 289.564 227.525 289.564 230.041V230.262C289.564 232.777 287.511 234.83 284.995 234.83Z" fill="black"/>
<path d="M149.897 254.955C147.382 254.955 145.329 252.903 145.329 250.387C145.329 247.871 147.382 245.819 149.897 245.819H162.128V191.674C162.128 189.159 164.181 187.106 166.696 187.106H208.757C211.273 187.106 213.326 189.159 213.326 191.674V203.242C213.326 205.758 211.273 207.81 208.757 207.81C206.242 207.81 204.189 205.758 204.189 203.242V196.242H171.265V245.819H238.356V191.674C238.356 189.159 240.408 187.106 242.924 187.106H284.985C287.501 187.106 289.553 189.159 289.553 191.674V203.242C289.553 205.758 287.501 207.81 284.985 207.81C282.469 207.81 280.417 205.758 280.417 203.242V196.242H247.492V245.819H314.615V189.769C314.615 187.253 316.667 185.201 319.183 185.201H361.244C363.76 185.201 365.812 187.253 365.812 189.769V201.337C365.812 203.852 363.76 205.905 361.244 205.905C358.728 205.905 356.676 203.852 356.676 201.337V194.337H323.751V245.808H378.033C380.548 245.808 382.601 247.861 382.601 250.376C382.601 252.892 380.548 254.945 378.033 254.945H149.887L149.897 254.955Z" fill="black"/>
<path d="M361.255 234.83C358.739 234.83 356.687 232.777 356.687 230.262V230.041C356.687 227.525 358.739 225.472 361.255 225.472C363.77 225.472 365.823 227.525 365.823 230.041V230.262C365.823 232.777 363.77 234.83 361.255 234.83Z" fill="black"/>
<path d="M4.56818 400C2.05252 400 0 397.947 0 395.432C0 392.916 2.05252 390.864 4.56818 390.864H74.0487V353.202L70.3016 352.802C51.1342 350.771 33.4088 341.75 20.3884 327.393C7.2733 312.931 0.042103 294.248 0.042103 274.786C0.042103 250.397 11.0836 227.841 30.3352 212.905L32.8509 210.947L31.6404 208C29.1353 201.874 27.8617 195.421 27.8617 188.79C27.8617 160.844 50.6394 138.098 78.638 138.098C92.3425 138.098 105.468 143.329 115.604 152.824L122.667 159.444V50.3237H111.478C108.963 50.3237 106.91 48.2711 106.91 45.7555V4.56818C106.91 2.05252 108.963 0 111.478 0H416.452C418.967 0 421.02 2.05252 421.02 4.56818V45.7555C421.02 48.2711 418.967 50.3237 416.452 50.3237H405.263V390.853H416.452C418.967 390.853 421.02 392.906 421.02 395.421C421.02 397.937 418.967 399.989 416.452 399.989H4.56818V400ZM131.814 390.864H213.841V276.754C213.841 274.238 215.894 272.186 218.41 272.186H309.552C312.068 272.186 314.12 274.238 314.12 276.754V390.853H396.127V50.3237H131.814V390.853V390.864ZM262.313 346.866C263.534 346.866 264.681 347.34 265.544 348.203C267.323 349.982 267.323 352.887 265.544 354.666L229.346 390.864H304.973V281.333H284.248L222.967 342.614V384.317L259.071 348.213C259.934 347.35 261.081 346.876 262.302 346.876L262.313 346.866ZM116.468 343.55C107.3 348.571 97.3633 351.676 86.9428 352.781L83.1956 353.181V390.853H122.678V340.151L116.468 343.54V343.55ZM97.7843 203.589C99.0053 203.589 100.153 204.063 101.016 204.926C101.879 205.789 102.353 206.936 102.353 208.157C102.353 209.378 101.879 210.526 101.016 211.389L83.1956 229.209V344.108L87.9322 343.487C100.089 341.887 111.236 337.245 121.046 329.677L122.678 328.414V189.495L122.657 189.264C122.636 189.106 122.625 188.937 122.625 188.78C122.625 166.644 102.079 147.234 78.659 147.234C55.2392 147.234 37.0191 165.875 37.0191 188.78C37.0191 196.284 39.0506 203.642 42.8925 210.063C44.1766 212.199 43.5345 214.926 41.4189 216.273C21.241 229.093 9.18899 250.966 9.18899 274.775C9.18899 309.299 35.0297 338.824 69.3016 343.445L74.0593 344.087V289.648L42.6504 258.239C41.7873 257.376 41.3136 256.229 41.3136 255.008C41.3136 253.787 41.7873 252.639 42.6504 251.776C43.5135 250.913 44.6608 250.439 45.8818 250.439C47.1028 250.439 48.2501 250.913 49.1132 251.776L74.0593 276.722V198.4C74.0593 195.884 76.1118 193.832 78.6274 193.832C81.1431 193.832 83.1956 195.884 83.1956 198.4V216.273L94.5529 204.916C95.416 204.052 96.5633 203.579 97.7843 203.579V203.589ZM222.978 329.667L271.323 281.312H222.978V329.667ZM116.057 41.1873H411.894V9.13636H116.057V41.1873Z" fill="black"/>
<path d="M158.371 351.434C155.855 351.434 153.802 349.382 153.802 346.866V293.374C153.802 290.858 155.855 288.806 158.371 288.806H187.295C189.811 288.806 191.864 290.858 191.864 293.374V303.91C191.864 306.426 189.811 308.479 187.295 308.479C184.78 308.479 182.727 306.426 182.727 303.91V297.942H162.949V346.866C162.949 349.382 160.897 351.434 158.381 351.434H158.371Z" fill="black"/>
<path d="M187.285 333.088C184.769 333.088 182.717 331.035 182.717 328.52V328.32C182.717 325.804 184.769 323.751 187.285 323.751C189.801 323.751 191.853 325.804 191.853 328.32V328.52C191.853 331.035 189.801 333.088 187.285 333.088Z" fill="black"/>
<path d="M340.677 351.434C338.161 351.434 336.109 349.382 336.109 346.866V293.374C336.109 290.858 338.161 288.806 340.677 288.806H369.602C372.117 288.806 374.17 290.858 374.17 293.374V303.91C374.17 306.426 372.117 308.479 369.602 308.479C367.086 308.479 365.033 306.426 365.033 303.91V297.942H345.256V346.866C345.256 349.382 343.203 351.434 340.687 351.434H340.677Z" fill="black"/>
<path d="M369.591 333.088C367.075 333.088 365.023 331.035 365.023 328.52V328.32C365.023 325.804 367.075 323.751 369.591 323.751C372.107 323.751 374.159 325.804 374.159 328.32V328.52C374.159 331.035 372.107 333.088 369.591 333.088Z" fill="black"/>
</g>
<defs>
<clipPath id="clip0_4_592">
<rect width="421.03" height="400" fill="white"/>
</clipPath>
</defs>
</svg>
