<?xml version="1.0" encoding="UTF-8"?>
<svg id="black" xmlns="http://www.w3.org/2000/svg" viewBox="0 0 100 100">
  <defs>
    <style>
      .cls-1 {
        fill: #1d1d1b;
      }
    </style>
  </defs>
  <path class="cls-1" d="m9.94,32.97h9.16v18.78c0,.4.27.77.66.88.09.03.18.04.26.04.31,0,.6-.16.77-.42l17.96-27.43c.19-.28.2-.65.04-.94-.16-.3-.47-.48-.81-.48h-9.16V4.64c0-.4-.27-.77-.66-.88-.09-.03-.17-.04-.26-.04-.31,0-.6.16-.77.42L9.17,31.54c-.19.28-.2.65-.04.94.16.3.47.48.81.48ZM26.98,7.73v16.59c0,.51.41.92.92.92h8.38l-15.33,23.42v-16.61c0-.51-.41-.92-.92-.92h-8.37L26.98,7.73Z"/>
  <path class="cls-1" d="m91.37,93.81V17.06c0-3.26-1.83-5.82-4.16-5.82h-13.42c-2.33,0-4.16,2.56-4.16,5.82v76.74h-8.43v-24.66c0-.55-.45-1-1-1s-1,.45-1,1v24.66h-17.74v-48.97c0-1.16.97-2.1,2.16-2.1h13.42c1.19,0,2.16.94,2.16,2.1v13.41c0,.55.45,1,1,1s1-.45,1-1v-13.41c0-2.26-1.87-4.1-4.16-4.1h-13.42c-2.29,0-4.16,1.84-4.16,4.1v48.97h-8.43v-28.04c0-1.6-1.79-2.8-4.16-2.8h-13.42c-2.37,0-4.16,1.2-4.16,2.8v28.04H3.88v2h90.69v-2h-3.2Zm-19.74-76.74c0-2.25,1.14-3.82,2.16-3.82h13.42c1.02,0,2.16,1.57,2.16,3.82v76.74h-17.74V17.06ZM11.28,65.77c0-.2.77-.8,2.16-.8h13.42c1.39,0,2.16.6,2.16.8v28.04H11.28v-28.04Z"/>
  <path class="cls-1" d="m60.2,62.69c-.55,0-1,.45-1,1v.07c0,.55.45,1,1,1s1-.45,1-1v-.07c0-.55-.45-1-1-1Z"/>
</svg>