<?xml version="1.0" encoding="UTF-8"?>
<svg id="black" xmlns="http://www.w3.org/2000/svg" viewBox="0 0 100 100">
  <defs>
    <style>
      .cls-1 {
        fill: #32354b;
      }
    </style>
  </defs>
  <path class="cls-1" d="m19.77,96c-.51,0-.92-.41-.92-.92s.41-.92.92-.92h23.16v-21.59h-10.53c-2.12,0-3.85-1.73-3.85-3.85v-6.41H10.52c-1.84,0-3.61-.79-4.85-2.16-1.23-1.37-1.83-3.21-1.64-5.04L8.8,9.84c.35-3.33,3.14-5.84,6.48-5.84h69.43c3.35,0,6.13,2.51,6.48,5.84l4.77,45.27c.19,1.83-.4,3.67-1.64,5.04-1.23,1.37-3,2.16-4.85,2.16h-18.04v6.41c0,2.12-1.73,3.85-3.85,3.85h-10.53v21.59h23.16c.51,0,.92.41.92.92s-.41.92-.92.92H19.77Zm25-1.83h10.46v-21.59h-10.46v21.59Zm-14.38-25.44c0,1.11.9,2.02,2.02,2.02h35.19c1.11,0,2.02-.9,2.02-2.02v-6.41H30.39v6.41Zm43.34-8.25h15.75c1.35,0,2.58-.55,3.48-1.55.9-1,1.32-2.29,1.18-3.63l-2.23-21.23h-19.58l1.39,26.41Zm-22.81,0h20.97l-1.39-26.41h-19.58v26.41Zm-22.81,0h20.97v-26.41h-19.58l-1.39,26.41Zm-22.25-5.18c-.14,1.34.28,2.63,1.18,3.63.9,1,2.14,1.55,3.48,1.55h15.75l1.39-26.41H8.09l-2.23,21.23Zm66.38-23.06h19.48l-2.34-22.21c-.25-2.39-2.26-4.2-4.66-4.2h-13.87l1.39,26.41Zm-22.23-11.75c.51,0,.92.41.92.92v10.83h19.48l-1.39-26.41H30.99l-1.39,26.41h19.48v-10.83c0-.51.41-.92.92-.92ZM15.29,5.83c-2.41,0-4.41,1.8-4.66,4.2l-2.34,22.21h19.48l1.39-26.41h-13.87Z"/>
  <path class="cls-1" d="m50,14.08c-.24,0-.48-.1-.65-.27-.17-.17-.27-.41-.27-.65s.1-.48.27-.65.41-.27.65-.27.48.1.65.27c.17.17.27.41.27.65s-.1.48-.27.65c-.17.17-.41.27-.65.27Z"/>
</svg>