<svg width="400" height="400" viewBox="0 0 400 400" fill="none" xmlns="http://www.w3.org/2000/svg">
<g clip-path="url(#clip0_4_594)">
<path d="M289.352 378.929C286.949 378.929 284.989 376.845 284.989 374.288V374.124C284.989 371.567 286.949 369.483 289.352 369.483C291.755 369.483 293.716 371.567 293.716 374.124V374.288C293.716 376.845 291.755 378.929 289.352 378.929Z" fill="black"/>
<path d="M157.893 400C155.49 400 153.529 397.916 153.529 395.359V251.264H136.809C134.929 251.264 133.26 249.991 132.666 248.081C132.073 246.171 132.686 244.097 134.195 242.896L263.603 140.059C264.368 139.453 265.262 139.135 266.218 139.135C267.173 139.135 268.068 139.453 268.832 140.059L398.24 242.885C399.749 244.087 400.362 246.171 399.769 248.071C399.176 249.97 397.507 251.254 395.626 251.254H379.901V395.348C379.901 397.905 377.941 399.99 375.538 399.99H157.893V400ZM264.217 300.521C252.765 300.521 243.455 310.43 243.455 322.618V390.717H371.174V251.264H162.256V390.717H234.728V322.618C234.728 305.316 247.959 291.239 264.227 291.239C280.495 291.239 293.726 305.316 293.726 322.618V346.122C293.726 348.679 291.765 350.764 289.363 350.764C286.96 350.764 284.999 348.679 284.999 346.122V322.618C284.999 310.44 275.689 300.521 264.237 300.521H264.217ZM149.94 241.971H382.475L266.207 149.578L149.94 241.971Z" fill="black"/>
<path d="M182.455 338.894C180.052 338.894 178.092 336.809 178.092 334.252V301.568C178.092 299.012 180.052 296.927 182.455 296.927H211.934C214.337 296.927 216.298 299.012 216.298 301.568V314.116C216.298 316.673 214.337 318.758 211.934 318.758C209.531 318.758 207.571 316.673 207.571 314.116V306.22H186.819V334.263C186.819 336.819 184.858 338.904 182.455 338.904V338.894Z" fill="black"/>
<path d="M211.924 338.894C209.521 338.894 207.561 336.809 207.561 334.252V334.088C207.561 331.531 209.521 329.447 211.924 329.447C214.327 329.447 216.288 331.531 216.288 334.088V334.252C216.288 336.809 214.327 338.894 211.924 338.894Z" fill="black"/>
<path d="M321.024 338.894C318.621 338.894 316.66 336.809 316.66 334.252V301.568C316.66 299.012 318.621 296.927 321.024 296.927H350.503C352.906 296.927 354.866 299.012 354.866 301.568V314.116C354.866 316.673 352.906 318.758 350.503 318.758C348.1 318.758 346.139 316.673 346.139 314.116V306.22H325.397V334.263C325.397 336.819 323.437 338.904 321.034 338.904L321.024 338.894Z" fill="black"/>
<path d="M350.503 338.894C348.1 338.894 346.139 336.809 346.139 334.252V334.088C346.139 331.531 348.1 329.447 350.503 329.447C352.906 329.447 354.866 331.531 354.866 334.088V334.252C354.866 336.809 352.906 338.894 350.503 338.894Z" fill="black"/>
<path d="M94.9125 119.184C74.1504 119.184 57.2692 101.933 57.2692 80.7393C57.2692 59.5457 74.1604 42.295 94.9125 42.295C115.665 42.295 132.556 59.5457 132.556 80.7393C132.556 101.933 115.665 119.184 94.9125 119.184ZM94.9125 52.2552C79.5395 52.2552 67.0319 65.0289 67.0319 80.7291C67.0319 96.4292 79.5395 109.203 94.9125 109.203C110.286 109.203 122.793 96.4292 122.793 80.7291C122.793 65.0289 110.286 52.2552 94.9125 52.2552Z" fill="black"/>
<path d="M241.202 72.4426C239.141 72.4426 237.472 70.7278 237.472 68.633C237.472 66.5383 239.151 64.8235 241.202 64.8235H251.206L251.287 61.4145C251.307 60.3979 251.387 59.3813 251.518 58.3956C253.217 45.3857 263.764 35.2817 276.583 34.3781C277.217 34.3371 277.85 34.3062 278.484 34.3062C282.666 34.3062 286.869 35.3125 290.619 37.2122L294.51 39.1837L295.476 34.8607C297.275 26.8104 301.257 19.407 306.988 13.4514C315.122 5.00064 325.98 0.225902 337.563 0C337.824 0 338.106 0 338.377 0C361.954 0 381.701 19.561 382.395 43.6196C382.556 49.2979 381.701 54.8633 379.841 60.1412L378.192 64.8235H395.787C397.848 64.8235 399.517 66.5383 399.517 68.633C399.517 70.7278 397.838 72.4426 395.787 72.4426H241.192H241.202ZM278.464 41.9253C278.011 41.9253 277.549 41.9458 277.096 41.9766C267.796 42.6338 260.155 49.9653 258.918 59.4019C258.838 59.9872 258.787 60.5827 258.757 61.1577L258.596 64.8132H369.425L370.4 63.0163C373.567 57.1942 375.136 50.5609 374.945 43.8352C374.372 23.8634 357.973 7.61905 338.387 7.61905C338.166 7.61905 337.945 7.61905 337.714 7.61905C317.927 7.99897 301.83 24.7465 301.83 44.9544C301.83 46.2174 301.89 47.5112 302.021 48.7948C302.202 50.5609 301.176 52.2038 299.537 52.7788C299.135 52.9226 298.723 52.9945 298.311 52.9945C297.034 52.9945 295.858 52.3373 295.164 51.2386C291.504 45.4062 285.26 41.915 278.464 41.915V41.9253Z" fill="black"/>
<path d="M153.67 396.919V392.976H118.349L117.464 391.251C116.248 388.879 115.624 386.292 115.624 383.571C115.624 374.411 122.924 366.957 131.892 366.957C134.667 366.957 137.412 367.686 139.825 369.072C140.338 369.37 140.921 369.524 141.504 369.524C141.926 369.524 142.349 369.442 142.751 369.288C143.706 368.908 144.45 368.117 144.772 367.121C146.441 361.966 149.608 357.643 153.67 354.573V346.328C148.351 349.193 143.837 353.557 140.79 359.06L139.624 361.176L137.311 360.611C135.542 360.18 133.722 359.954 131.902 359.954C119.143 359.954 108.757 370.561 108.757 383.591C108.757 385.399 108.968 387.237 109.391 389.033L110.316 392.997H87.9248V327.958L90.6495 327.578C113.131 324.456 130.093 304.628 130.093 281.443C130.093 255.762 109.632 234.866 84.4862 234.866C59.3404 234.866 38.88 255.762 38.88 281.443C38.88 304.628 55.8315 324.467 78.323 327.578L81.0477 327.958V392.997H63.8649L64.7396 389.064C65.0613 387.627 65.2222 386.179 65.2222 384.752C65.2222 373.96 56.6258 365.18 46.0587 365.18C40.1468 365.18 34.4661 368.045 30.8466 372.861L29.6602 374.432L27.7499 374.062C26.855 373.888 25.93 373.795 25.0151 373.795C17.042 373.795 10.557 380.418 10.557 388.571C10.557 388.91 10.5771 389.239 10.5972 389.578L10.8184 393.018H3.43857C1.54836 393.018 0 394.589 0 396.529C0 398.47 1.53831 400.041 3.43857 400.041H222.19C223.939 400.041 225.367 398.696 225.578 396.971H153.67V396.919ZM56.4046 391.498L55.4695 392.976H18.329L17.6855 390.615C17.5045 389.937 17.404 389.239 17.404 388.53C17.404 384.259 20.8124 380.778 24.995 380.778C26.5433 380.778 28.0314 381.25 29.2982 382.143C29.8713 382.554 30.5449 382.76 31.2487 382.76C31.6006 382.76 31.9525 382.708 32.2944 382.595C33.2998 382.267 34.1142 381.466 34.4762 380.449C36.2357 375.5 40.8808 372.163 46.0386 372.163C52.8152 372.163 58.335 377.8 58.335 384.721C58.335 387.144 57.6614 389.485 56.3945 391.498H56.4046ZM106.143 288.179C105.49 287.521 104.635 287.152 103.71 287.152C102.785 287.152 101.93 287.521 101.277 288.179L84.4963 305.316L66.2377 286.659C65.5942 285.992 64.7295 285.632 63.8045 285.632C62.8796 285.632 62.0249 286.002 61.3714 286.659C60.0342 288.025 60.0342 290.253 61.3714 291.619L81.0276 311.693V320.996L77.2874 320.277C58.9986 316.765 45.7269 300.418 45.7269 281.412C45.7269 259.602 63.1007 241.859 84.4561 241.859C105.811 241.859 123.185 259.602 123.185 281.412C123.185 300.418 109.914 316.765 91.6248 320.277L87.8846 320.996V311.755L106.113 293.138C106.767 292.481 107.118 291.598 107.118 290.653C107.118 289.709 106.756 288.836 106.113 288.168L106.143 288.179Z" fill="black"/>
</g>
<defs>
<clipPath id="clip0_4_594">
<rect width="400" height="400" fill="white"/>
</clipPath>
</defs>
</svg>
