<?xml version="1.0" encoding="UTF-8"?>
<svg id="black" xmlns="http://www.w3.org/2000/svg" viewBox="0 0 100 100">
  <defs>
    <style>
      .cls-1 {
        fill: #32354b;
      }
    </style>
  </defs>
  <path class="cls-1" d="m14.08,96c-2.53,0-4.58-2.06-4.58-4.58v-54.8h-4.58c-.51,0-.92-.41-.92-.92V15.18c0-.51.41-.92.92-.92h8.98v-6.51c0-2.07,1.69-3.76,3.76-3.76h14.84c2.07,0,3.76,1.69,3.76,3.76v6.51h27.49v-6.51c0-2.07,1.69-3.76,3.76-3.76h14.84c2.07,0,3.76,1.69,3.76,3.76v6.51h8.98c.51,0,.92.41.92.92v20.53c0,.51-.41.92-.92.92h-4.58v54.8c0,2.53-2.06,4.58-4.58,4.58H14.08Zm-2.75-4.58c0,1.52,1.23,2.75,2.75,2.75h71.84c1.52,0,2.75-1.23,2.75-2.75v-54.8h-30.42c-.51,0-.92-.41-.92-.92s.41-.92.92-.92h35.92v-18.69H5.83v18.69h35.92c.51,0,.92.41.92.92s-.41.92-.92.92H11.33v54.8ZM67.5,5.83c-1.06,0-1.92.86-1.92,1.92v6.51h18.69v-6.51c0-1.06-.86-1.92-1.92-1.92h-14.84Zm-49.85,0c-1.06,0-1.92.86-1.92,1.92v6.51h18.69v-6.51c0-1.06-.86-1.92-1.92-1.92h-14.84Z"/>
  <path class="cls-1" d="m19.94,26.36c-.51,0-.92-.41-.92-.92s.41-.92.92-.92h10.26c.51,0,.92.41.92.92s-.41.92-.92.92h-10.26Z"/>
  <path class="cls-1" d="m74.92,31.49c-.51,0-.92-.41-.92-.92v-4.22h-4.22c-.51,0-.92-.41-.92-.92s.41-.92.92-.92h4.22v-4.22c0-.51.41-.92.92-.92s.92.41.92.92v4.22h4.22c.51,0,.92.41.92.92s-.41.92-.92.92h-4.22v4.22c0,.51-.41.92-.92.92Z"/>
  <path class="cls-1" d="m50,87.92c-12.42,0-22.53-10.1-22.53-22.53s10.1-22.53,22.53-22.53,22.53,10.1,22.53,22.53-10.1,22.53-22.53,22.53Zm.92-1.83l1-.09c10.53-.97,18.78-10.02,18.78-20.6,0-11.41-9.28-20.69-20.69-20.69s-20.69,9.28-20.69,20.69c0,10.58,8.25,19.63,18.78,20.6l1,.09v-9.81l-1.07.18c-.7.11-1.39.17-2.08.17-3.2,0-6.16-1.19-8.32-3.36-3.07-3.07-4.14-7.71-2.79-12.12.09-.29.32-.52.61-.61,1.24-.38,2.52-.57,3.79-.57,3.2,0,6.16,1.19,8.32,3.36.63.63,1.19,1.35,1.66,2.13l.78,1.3.78-1.3c.47-.78,1.03-1.49,1.66-2.13,2.17-2.17,5.12-3.36,8.32-3.36,1.27,0,2.55.19,3.79.57.29.09.52.32.61.61,1.34,4.41.28,9.05-2.79,12.12-2.17,2.17-5.12,3.36-8.32,3.36-.68,0-1.38-.06-2.08-.17l-1.07-.18v9.81Zm-11.69-24.29c-.73,0-1.47.08-2.2.22l-.59.12-.12.59c-.7,3.45.27,6.9,2.6,9.23,1.72,1.72,4.07,2.72,6.61,2.82l2.34.09-4.25-4.25c-.36-.36-.36-.94,0-1.3.17-.17.4-.27.65-.27s.48.1.65.27l4.25,4.25-.09-2.34c-.1-2.55-1.1-4.9-2.82-6.61-1.82-1.82-4.32-2.82-7.03-2.82Zm16.5,7.26c.24,0,.47.1.65.27.36.36.36.94,0,1.3l-4.25,4.25,2.34-.09c2.55-.1,4.9-1.1,6.61-2.81,2.33-2.33,3.3-5.78,2.6-9.23l-.12-.59-.59-.12c-.73-.15-1.47-.22-2.2-.22-2.71,0-5.21,1-7.03,2.83-1.72,1.72-2.72,4.07-2.82,6.61l-.09,2.34,4.25-4.25c.17-.17.4-.27.65-.27Z"/>
  <path class="cls-1" d="m50,36.62c-.24,0-.48-.1-.65-.27s-.27-.41-.27-.65.1-.48.27-.65c.17-.17.41-.27.65-.27s.48.1.65.27c.17.17.27.41.27.65s-.1.48-.27.65c-.17.17-.41.27-.65.27Z"/>
</svg>