<?xml version="1.0" encoding="UTF-8"?>
<svg id="green" xmlns="http://www.w3.org/2000/svg" viewBox="0 0 100 100">
  <defs>
    <style>
      .cls-1 {
        fill: #abc91b;
      }
    </style>
  </defs>
  <circle class="cls-1" cx="79.32" cy="87.75" r=".91"/>
  <circle class="cls-1" cx="57.33" cy="37.9" r=".91"/>
  <circle class="cls-1" cx="42.67" cy="37.9" r=".91"/>
  <path class="cls-1" d="m9.68,96c-.5,0-.91-.41-.91-.91,0-6.3,1.93-11.71,5.73-16.06,3.83-4.38,9.43-7.57,16.66-9.48l.13-.04,6.8-4.25v-7.47l-.33-.28c-2.56-2.11-4.54-4.86-5.72-7.95l-.17-.45-4.94-1.2c-2.06-.5-3.49-2.33-3.49-4.45v-12.88c0-14.65,11.92-26.57,26.58-26.57,1.16,0,2.33.08,3.49.22,6.39.82,12.26,4.07,16.52,9.16,4.23,5.04,6.56,11.46,6.56,18.08v11.2c0,2.53-2.05,4.58-4.58,4.58h-3.29l-.19.67c-1.07,3.77-3.23,7.09-6.27,9.59l-.33.28v7.47l6.8,4.25.13.04c7.23,1.91,12.83,5.1,16.66,9.48,3.8,4.35,5.73,9.76,5.73,16.06,0,.5-.41.91-.91.91H9.68Zm46.63-1.83h33.1l-.07-.98c-.91-13.42-11.43-19.18-20.09-21.64l-.59-.17-10.62,13.28c-.17.22-.44.34-.72.34-.15,0-.38-.04-.59-.22l-1.8-1.53,1.36,10.91Zm-9.1-13.32l-1.66,13.32h8.92l-1.67-13.32-2.8-2.8-2.8,2.8Zm-16.46-9.3c-8.66,2.46-19.18,8.22-20.09,21.64l-.07.98h33.1l1.36-10.92-1.8,1.53c-.21.18-.44.22-.59.22-.28,0-.54-.12-.71-.34l-10.62-13.28-.59.17Zm2.28-.97l9.72,12.15,5.96-5.96-9.84-9.84-5.84,3.65Zm18.26,6.18l5.96,5.96,9.72-12.15-5.84-3.65-9.84,9.84Zm-11.38-11.38l10.08,10.08,10.08-10.08v-6.25l-1.34.69c-2.71,1.39-5.66,2.1-8.74,2.1s-6.03-.71-8.74-2.1l-1.34-.69v6.25Zm-4.95-13.91c3.11,5.31,8.87,8.61,15.03,8.61,8.25,0,15.43-5.86,17.06-13.93.23-1.15.35-2.32.35-3.49v-11.18h-9.41c-1.07,0-2.08-.34-2.85-.96-1.7-1.36-3.17-2.97-4.38-4.8l-.76-1.15-.76,1.15c-1.21,1.82-2.69,3.44-4.39,4.8-.77.62-1.79.96-2.85.96h-9.41v11.18c0,1.48.19,2.95.56,4.37l.14.53,6.3,1.54c.24.06.44.2.56.41s.16.45.11.69c-.1.41-.47.7-.89.7h0c-.07,0-.15,0-.22-.03l-5.28-1.29,1.09,1.87Zm-6.96-19.98c-1.52,0-2.75,1.23-2.75,2.75v9.22c0,1.27.86,2.37,2.1,2.67l3.86.94-.22-1.36c-.16-1-.24-2.02-.24-3.04v-11.18h-2.75Zm41.24,11.18c0,.57-.03,1.16-.08,1.75l-.09,1h2.92c1.52,0,2.75-1.23,2.75-2.75v-8.43c0-1.52-1.23-2.75-2.75-2.75h-2.75v11.18ZM49.97,5.83c-12.99,0-23.82,10.17-24.66,23.15l-.09,1.38,1.3-.45c.48-.16.98-.25,1.48-.25h2.76l.08-.84c.43-4.76,2.62-9.17,6.16-12.42,3.56-3.27,8.18-5.07,13.01-5.07s9.52,1.82,13.08,5.13c3.5,3.25,5.66,7.64,6.08,12.36l.07.84h2.76c.48,0,.97.08,1.43.23l1.33.44-.13-1.4c-1.12-11.82-10.1-21.45-21.36-22.89-1.1-.14-2.2-.21-3.29-.21Zm.03,15.75c.36,0,.68.21.83.53,1.24,2.71,3.13,5.12,5.46,6.99.45.36,1.05.56,1.71.56h9.41l-.11-1.02c-.97-8.83-8.41-15.48-17.3-15.48s-16.32,6.65-17.3,15.48l-.11,1.02h9.42c.65,0,1.26-.2,1.71-.56,2.33-1.87,4.22-4.29,5.46-6.99.15-.32.47-.53.83-.53Z"/>
  <path class="cls-1" d="m64.66,88.67c-.5,0-.91-.41-.91-.91s.41-.91.91-.91h7.33c.5,0,.91.41.91.91s-.41.91-.91.91h-7.33Z"/>
  <path class="cls-1" d="m46.33,50.91c-.5,0-.91-.41-.91-.91s.41-.91.91-.91h7.33c.5,0,.91.41.91.91s-.41.91-.91.91h-7.33Z"/>
</svg>