<?xml version="1.0" encoding="UTF-8"?>
<svg id="green" xmlns="http://www.w3.org/2000/svg" viewBox="0 0 100 100">
  <defs>
    <style>
      .cls-1 {
        fill: #abc91b;
      }
    </style>
  </defs>
  <path class="cls-1" d="m24.04,96c-.51,0-.92-.41-.92-.92v-7.29l-.69-.18c-2.73-.71-4.63-3.18-4.63-5.99V10.19c0-3.42,2.78-6.19,6.19-6.19h52c1.65,0,3.21.65,4.38,1.82,1.17,1.17,1.82,2.73,1.82,4.38v27.59c0,.51-.41.92-.92.92s-.92-.41-.92-.92V10.19c0-2.4-1.96-4.36-4.36-4.36h-5.26v41.93c0,2.64-2.15,4.79-4.79,4.79h-31.9c-2.64,0-4.79-2.15-4.79-4.79V5.83h-5.26c-1.16,0-2.26.45-3.08,1.28-.82.82-1.28,1.92-1.28,3.08v71.42c0,2.31,1.81,4.22,4.12,4.35h.08s.03,0,.03,0c.89,0,13.67,0,26.13,0s25.24,0,26.13,0h.03s.08,0,.08,0c2.31-.13,4.12-2.04,4.12-4.35v-27.71c0-.51.41-.92.92-.92s.92.41.92.92v27.71c0,2.82-1.91,5.28-4.63,5.99l-.69.18v7.29c0,.51-.41.92-.92.92H24.04Zm.92-1.83h50.09v-6.36H24.96v6.36Zm6.14-46.4c0,1.63,1.33,2.96,2.96,2.96h31.9c1.63,0,2.96-1.33,2.96-2.96v-4.19H31.09v4.19Zm0-6.03h37.81v-7.46H31.09v7.46Zm0-9.29h37.81v-7.46H31.09v7.46Zm0-9.29h37.81v-7.46H31.09v7.46Zm0-9.29h37.81V5.83H31.09v8.02Z"/>
  <path class="cls-1" d="m33.13,77.12c-2.58,0-4.67-2.1-4.67-4.67v-6.76c0-2.58,2.1-4.67,4.67-4.67h33.73c2.58,0,4.67,2.1,4.67,4.67v6.76c0,2.58-2.1,4.67-4.67,4.67h-33.73Zm0-14.27c-1.57,0-2.84,1.27-2.84,2.84v6.76c0,1.57,1.27,2.84,2.84,2.84h33.73c1.57,0,2.84-1.27,2.84-2.84v-6.76c0-1.57-1.27-2.84-2.84-2.84h-33.73Z"/>
  <path class="cls-1" d="m37.38,69.98c-.51,0-.92-.41-.92-.92s.41-.92.92-.92h3.12c.51,0,.92.41.92.92s-.41.92-.92.92h-3.12Z"/>
  <path class="cls-1" d="m48.44,69.98c-.51,0-.92-.41-.92-.92s.41-.92.92-.92h3.12c.51,0,.92.41.92.92s-.41.92-.92.92h-3.12Z"/>
  <path class="cls-1" d="m59.5,69.98c-.51,0-.92-.41-.92-.92s.41-.92.92-.92h3.12c.51,0,.92.41.92.92s-.41.92-.92.92h-3.12Z"/>
  <path class="cls-1" d="m81.29,46.82c-.31,0-.61-.15-.77-.4-.13-.2-.18-.44-.13-.69.05-.24.18-.45.38-.58.15-.1.32-.15.5-.15.32,0,.6.15.77.4.13.2.18.44.13.68-.05.25-.19.46-.38.59-.14.1-.32.15-.5.15h0Z"/>
</svg>