<?xml version="1.0" encoding="UTF-8"?>
<svg id="green" xmlns="http://www.w3.org/2000/svg" viewBox="0 0 100 100">
  <defs>
    <style>
      .cls-1 {
        fill: #abc91b;
      }
    </style>
  </defs>
  <path class="cls-1" d="m18.84,36.25c-.51,0-.92-.41-.92-.92s.41-.92.92-.92.92.41.92.92-.41.92-.92.92Z"/>
  <path class="cls-1" d="m11.51,96c-2.53,0-4.58-2.06-4.58-4.58V23.24c0-.24.1-.48.27-.65L25.53,4.27c.17-.17.41-.27.65-.27h43.98c2.53,0,4.58,2.06,4.58,4.58v82.84c0,2.53-2.06,4.58-4.58,4.58H11.51Zm-2.75-4.58c0,1.52,1.23,2.75,2.75,2.75h58.65c1.52,0,2.75-1.23,2.75-2.75V8.58c0-1.52-1.23-2.75-2.75-2.75H27.09v17.41c0,.51-.41.92-.92.92H8.76v67.26Zm1.3-69.09h15.2V7.13l-15.2,15.2Z"/>
  <path class="cls-1" d="m86.65,96c-.38,0-.72-.24-.86-.59l-5.5-14.66c-.03-.09-.06-.23-.06-.32V10.41c0-3.54,2.88-6.41,6.41-6.41s6.41,2.88,6.41,6.41v70.01c0,.1-.02.23-.06.32l-5.5,14.66c-.13.36-.48.59-.86.59Zm0-3.53l4.18-11.14h-8.35l4.18,11.14Zm-4.58-12.97h9.16V24.16h-9.16v55.35Zm0-57.18h9.16v-5.5h-9.16v5.5Zm4.58-16.49c-2.53,0-4.58,2.06-4.58,4.58v4.58h9.16v-4.58c0-2.53-2.06-4.58-4.58-4.58Z"/>
  <path class="cls-1" d="m26.18,36.25c-.51,0-.92-.41-.92-.92s.41-.92.92-.92h36.65c.51,0,.92.41.92.92s-.41.92-.92.92H26.18Z"/>
  <path class="cls-1" d="m18.84,47.25c-.51,0-.92-.41-.92-.92s.41-.92.92-.92h43.98c.51,0,.92.41.92.92s-.41.92-.92.92H18.84Z"/>
  <path class="cls-1" d="m18.84,58.25c-.51,0-.92-.41-.92-.92s.41-.92.92-.92h43.98c.51,0,.92.41.92.92s-.41.92-.92.92H18.84Z"/>
  <path class="cls-1" d="m18.84,69.24c-.51,0-.92-.41-.92-.92s.41-.92.92-.92h43.98c.51,0,.92.41.92.92s-.41.92-.92.92H18.84Z"/>
  <path class="cls-1" d="m48.17,85c-.51,0-.92-.41-.92-.92s.41-.92.92-.92h14.66c.51,0,.92.41.92.92s-.41.92-.92.92h-14.66Z"/>
  <path class="cls-1" d="m48.17,24.16c-.51,0-.92-.41-.92-.92s.41-.92.92-.92h14.66c.51,0,.92.41.92.92s-.41.92-.92.92h-14.66Z"/>
</svg>