<?xml version="1.0" encoding="UTF-8"?>
<svg id="Livello_1" data-name="Livello 1" xmlns="http://www.w3.org/2000/svg" xmlns:xlink="http://www.w3.org/1999/xlink" viewBox="0 0 112 112">
  <defs>
    <style>
      .cls-1 {
        fill: url(#Nuovo_pattern);
      }

      .cls-2 {
        fill: none;
      }
    </style>
    <pattern id="Nuovo_pattern" data-name="Nuovo pattern" x="0" y="0" width="112" height="112" patternTransform="translate(-144 -56)" patternUnits="userSpaceOnUse" viewBox="0 0 112 112">
      <g>
        <rect class="cls-2" width="112" height="112"/>
        <g>
          <path d="m28.33,141.09c.18,0,.33-.15.33-.33s-.15-.33-.33-.33h-2.68l-2.89-11.72h2.25v1.56c0,.18.15.33.33.33s.33-.15.33-.33v-1.88c0-.18-.15-.33-.33-.33h-2.74l-1.79-7.24h2.31v1.67c0,.18.15.33.33.33s.33-.15.33-.33v-2c0-.18-.15-.33-.33-.33h-2.8l-1.53-6.19h2.67v2.04c0,.18.15.33.33.33s.33-.15.33-.33v-2.37c0-.18-.15-.33-.33-.33h-3.43l.55-.56c1.07-1.09,1.44-2.73.97-4.28-.03-.1-.11-.19-.22-.22-.44-.13-.89-.2-1.35-.2-1.14,0-2.19.42-2.96,1.19-.22.22-.42.47-.59.75l-.28.46-.28-.46c-.17-.27-.36-.52-.58-.75-.77-.77-1.82-1.19-2.96-1.19-.45,0-.91.07-1.35.2-.1.03-.19.11-.22.22-.47,1.55-.1,3.19.97,4.28l.55.56h-2.92c-.18,0-.33.15-.33.33v2.37c0,.18.15.33.33.33s.33-.15.33-.33v-2.04h2.67l-1.53,6.19h-2.8c-.18,0-.33.15-.33.33v2c0,.18.15.33.33.33s.33-.15.33-.33v-1.67h2.31l-1.79,7.24h-2.74c-.18,0-.33.15-.33.33v1.88c0,.18.15.33.33.33s.33-.15.33-.33v-1.56h2.25l-2.89,11.72H1.82c-.18,0-.33.15-.33.33s.15.33.33.33h26.51Zm-13.26-7.21l9.29,6.55H5.79l9.29-6.55Zm7.06-4.98l2.74,11.08-9.22-6.51,6.49-4.58Zm-14.11,0l6.49,4.58-9.22,6.51,2.74-11.08Zm.88-.19h3.22c.18,0,.33-.15.33-.33s-.15-.33-.33-.33h-3.12l6.08-3.83,6.08,3.83h-3.12c-.18,0-.33.15-.33.33s.15.33.33.33h3.22l-6.18,4.36-6.18-4.36Zm1.07-7.7l4.49,2.83-6.15,3.87,1.65-6.7Zm10.22,0l1.65,6.7-6.15-3.87,4.49-2.83Zm-9.29-.19h8.37l-4.19,2.64-4.19-2.64Zm4.19-3.99l4.35,3.33h-8.71l4.35-3.33Zm-3.43-2.62l2.89,2.21-4.23,3.24,1.34-5.45Zm6.86,0l1.34,5.45-4.23-3.24,2.89-2.21Zm-6.09-.24h5.32l-2.66,2.03-2.66-2.03Zm4.2-2.6l-1.51,1.51.04-.85c.04-.9.39-1.72,1-2.32.65-.65,1.53-1,2.49-1,.26,0,.52.03.77.08l.21.04.04.21c.25,1.22-.1,2.44-.92,3.27-.6.6-1.43.96-2.32,1l-.85.04,1.51-1.51c.06-.06.1-.14.1-.23s-.03-.17-.1-.23c-.06-.06-.14-.1-.23-.1s-.17.03-.23.1Zm-3.13-1.67c.6.6.96,1.43,1,2.32l.04.85-1.51-1.51c-.06-.06-.14-.1-.23-.1s-.17.03-.23.1c-.06.06-.1.14-.1.23s.03.17.1.23l1.51,1.51-.85-.04c-.9-.04-1.72-.39-2.32-1-.82-.83-1.17-2.05-.92-3.27l.04-.21.21-.04c.26-.05.52-.08.77-.08.96,0,1.85.36,2.49,1Z"/>
          <path d="m100.28,151.89c.24,0,.43-.19.43-.43s-.19-.43-.43-.43h-10.98v-10.24h4.99c1.01,0,1.83-.82,1.83-1.83v-3.04h8.55c.88,0,1.71-.37,2.3-1.02.59-.65.87-1.52.78-2.39l-2.26-21.47c-.17-1.58-1.49-2.77-3.08-2.77h-32.93c-1.59,0-2.91,1.19-3.08,2.77l-2.26,21.47c-.09.87.19,1.74.78,2.39.59.65,1.42,1.02,2.3,1.02h8.55v3.04c0,1.01.82,1.83,1.83,1.83h4.99v10.24h-10.98c-.24,0-.43.19-.43.43s.19.43.43.43h28.67Zm-16.82-11.11h4.96v10.24h-4.96v-10.24Zm-6.82-4.87h18.6v3.04c0,.53-.43.96-.96.96h-16.69c-.53,0-.96-.43-.96-.96v-3.04Zm19.89-13.39h9.28l1.06,10.07c.07.63-.13,1.25-.56,1.72-.43.47-1.01.74-1.65.74h-7.47l-.66-12.52Zm-10.16,0h9.29l.66,12.52h-9.95v-12.52Zm-10.16,0h9.29v12.52h-9.95l.66-12.52Zm-10.15,0h9.28l-.66,12.52h-7.47c-.64,0-1.23-.26-1.65-.74-.43-.47-.63-1.09-.56-1.72l1.06-10.07Zm29.76-13.39h6.58c1.14,0,2.09.86,2.21,1.99l1.11,10.53h-9.24l-.66-12.52Zm-10.32,7.39v5.14h-9.24l.66-12.52h18.03l.66,12.52h-9.24v-5.14c0-.24-.19-.43-.43-.43s-.43.19-.43.43Zm-9.45-7.39l-.66,12.52h-9.24l1.11-10.53c.12-1.13,1.07-1.99,2.21-1.99h6.58Z"/>
        </g>
        <g>
          <path d="m121.49,87.81l.02-.15.14-.06c.42-.17.71-.58.71-1.04v-4.43c0-.72.38-1.38,1.01-1.77,1.31-.79,2.4-1.91,3.17-3.23.79-1.36,1.2-2.92,1.2-4.51,0-2-.64-3.9-1.86-5.49-1.18-1.54-2.85-2.67-4.7-3.2-.02,0-.05-.01-.07-.01-.12,0-.22.08-.25.19-.02.07-.01.14.02.2s.09.11.16.13c3.63,1.03,6.17,4.4,6.17,8.18,0,3-1.54,5.73-4.11,7.28-.65.39-1.09,1.04-1.23,1.78l-.04.22h-2.86v-4.32l.3.03c.19.02.38.03.57.03,1.28,0,2.49-.5,3.4-1.41,1.18-1.18,1.66-2.85,1.29-4.48-.02-.1-.1-.18-.2-.2-.35-.08-.72-.12-1.08-.12-.67,0-1.32.14-1.93.4l-.49.21.12-.52c.09-.37.13-.75.13-1.13,0-1.66-.84-3.19-2.25-4.08-.04-.03-.09-.04-.14-.04s-.1.01-.14.04c-1.41.89-2.25,2.42-2.25,4.08,0,.38.04.76.13,1.13l.12.52-.49-.21c-.61-.27-1.26-.4-1.93-.4-.36,0-.72.04-1.08.12-.1.02-.18.1-.2.2-.37,1.63.12,3.3,1.29,4.48.91.91,2.12,1.41,3.4,1.41.19,0,.38-.01.57-.03l.3-.03v4.32h-2.86l-.04-.22c-.13-.74-.57-1.38-1.21-1.77-2.58-1.55-4.12-4.28-4.12-7.29,0-3.81,2.57-7.18,6.26-8.2.14-.04.22-.19.18-.33-.03-.11-.14-.19-.26-.19-.02,0-.05,0-.07,0-3.91,1.08-6.65,4.66-6.65,8.71,0,1.59.42,3.15,1.21,4.51.77,1.32,1.86,2.44,3.18,3.23.61.37,1,1.04,1,1.76v4.43c0,.45.29.87.71,1.04l.14.06.02.15c.2,1.37,1.39,2.41,2.78,2.41s2.58-1.04,2.78-2.41Zm-5.07-.13h4.58l-.09.34c-.27.99-1.17,1.68-2.2,1.68s-1.93-.69-2.2-1.68l-.09-.34Zm-.84-2.62h6.25v1.77h-.06c-.1.19-.29.32-.52.32h-5.09c-.32,0-.58-.26-.58-.58v-1.5Zm0-2.62h6.25v2.09h-6.25v-2.09Zm1.6-9.2c.07.07.15.15.23.25,0,0,.04.05.04.05.58.7.92,1.54.98,2.44l.05.71-1.45-1.45c-.05-.05-.12-.08-.19-.08s-.14.03-.19.08c-.1.1-.1.27,0,.38l1.53,1.53h-.65c-1.13-.02-2.19-.46-2.99-1.26-.96-.96-1.4-2.28-1.22-3.63l.03-.2.2-.03c.2-.03.4-.04.6-.04,1.14,0,2.22.45,3.03,1.26Zm3.2,1.99l-1.45,1.45.05-.71c.06-.9.4-1.74.98-2.44h0s.03-.03.04-.05c.08-.09.15-.17.22-.24.81-.81,1.89-1.26,3.03-1.26.2,0,.4.01.6.04l.2.03.03.2c.19,1.34-.26,2.67-1.22,3.63-.8.8-1.86,1.25-2.99,1.26h-.65s1.53-1.52,1.53-1.52c.05-.05.08-.12.08-.19s-.03-.14-.08-.19c-.05-.05-.12-.08-.19-.08s-.14.03-.19.08Zm-1.68-8.36l.16.12c1.08.82,1.7,2.07,1.7,3.42,0,1.09-.4,2.12-1.14,2.91l-.46.5v-2.11c0-.15-.12-.27-.27-.27s-.27.12-.27.27v2.11l-.46-.5c-.73-.79-1.14-1.83-1.14-2.91,0-1.36.62-2.61,1.7-3.42l.16-.12Z"/>
          <g>
            <path d="m127.88,55.17v-2.87c0-.14-.11-.25-.25-.25s-.25.11-.25.25v2.87c0,.76-.61,1.37-1.37,1.37s-1.37-.61-1.37-1.37v-5.46c0-1.27-1.04-2.31-2.31-2.31s-2.31,1.03-2.31,2.31v4.35c0,1.37-1.12,2.48-2.49,2.48s-2.48-1.11-2.48-2.48v-8.21l.12-.07c1-.59,1.83-1.41,2.41-2.37.57-.96.88-2.05.88-3.14,0-2.32-1.36-4.49-3.54-5.65-.04-.02-.08-.03-.12-.03s-.08.01-.12.03c-2.18,1.16-3.54,3.33-3.54,5.65,0,1.09.3,2.18.88,3.14.57.96,1.41,1.78,2.41,2.37l.12.07v8.21c0,1.65,1.34,2.99,2.99,2.99s2.98-1.34,2.99-2.98v-4.35c0-1,.81-1.81,1.81-1.81s1.81.81,1.81,1.81v5.46c0,1.03.84,1.87,1.87,1.87s1.87-.84,1.87-1.87Zm-13.08-20.04l.13.07c1.87,1.1,3.03,3.04,3.03,5.07,0,1.83-.94,3.59-2.51,4.73l-.4.29v-4.74c0-.14-.11-.25-.25-.25s-.25.11-.25.25v4.74l-.4-.29c-1.57-1.14-2.51-2.9-2.51-4.73,0-2.03,1.16-3.97,3.03-5.07l.13-.07Z"/>
            <path d="m107.99,40.52c-.14,0-.25-.11-.25-.25s.11-.25.25-.25h1.08c.14,0,.25.11.25.25s-.11.25-.25.25h-1.08Z"/>
            <path d="m109.79,44.88c-.07,0-.13-.03-.18-.07-.1-.1-.1-.26,0-.35l.76-.76s.11-.07.18-.07.13.03.18.07c.1.1.1.26,0,.35l-.76.76s-.11.07-.18.07Z"/>
            <path d="m110.56,36.93c-.07,0-.13-.03-.18-.07l-.77-.77c-.1-.1-.1-.26,0-.35.05-.05.11-.07.18-.07s.13.03.18.07l.76.76c.1.1.1.26,0,.35-.05.05-.11.07-.18.07Z"/>
          </g>
        </g>
        <g>
          <g>
            <path d="m28.33,29.09c.18,0,.33-.15.33-.33s-.15-.33-.33-.33h-2.68l-2.89-11.72h2.25v1.56c0,.18.15.33.33.33s.33-.15.33-.33v-1.88c0-.18-.15-.33-.33-.33h-2.74l-1.79-7.24h2.31v1.67c0,.18.15.33.33.33s.33-.15.33-.33v-2c0-.18-.15-.33-.33-.33h-2.8l-1.53-6.19h2.67v2.04c0,.18.15.33.33.33s.33-.15.33-.33V1.65c0-.18-.15-.33-.33-.33h-3.43l.55-.56c1.07-1.09,1.44-2.73.97-4.28-.03-.1-.11-.19-.22-.22-.44-.13-.89-.2-1.35-.2-1.14,0-2.19.42-2.96,1.19-.22.22-.42.47-.59.75l-.28.46-.28-.46c-.17-.27-.36-.52-.58-.75-.77-.77-1.82-1.19-2.96-1.19-.45,0-.91.07-1.35.2-.1.03-.19.11-.22.22-.47,1.55-.1,3.19.97,4.28l.55.56h-2.92c-.18,0-.33.15-.33.33v2.37c0,.18.15.33.33.33s.33-.15.33-.33V1.98h2.67l-1.53,6.19h-2.8c-.18,0-.33.15-.33.33v2c0,.18.15.33.33.33s.33-.15.33-.33v-1.67h2.31l-1.79,7.24h-2.74c-.18,0-.33.15-.33.33v1.88c0,.18.15.33.33.33s.33-.15.33-.33v-1.56h2.25l-2.89,11.72H1.82c-.18,0-.33.15-.33.33s.15.33.33.33h26.51Zm-13.26-7.21l9.29,6.55H5.79l9.29-6.55Zm7.06-4.98l2.74,11.08-9.22-6.51,6.49-4.58Zm-14.11,0l6.49,4.58-9.22,6.51,2.74-11.08Zm.88-.19h3.22c.18,0,.33-.15.33-.33s-.15-.33-.33-.33h-3.12l6.08-3.83,6.08,3.83h-3.12c-.18,0-.33.15-.33.33s.15.33.33.33h3.22l-6.18,4.36-6.18-4.36Zm1.07-7.7l4.49,2.83-6.15,3.87,1.65-6.7Zm10.22,0l1.65,6.7-6.15-3.87,4.49-2.83Zm-9.29-.19h8.37l-4.19,2.64-4.19-2.64Zm4.19-3.99l4.35,3.33h-8.71l4.35-3.33Zm-3.43-2.62l2.89,2.21-4.23,3.24,1.34-5.45Zm6.86,0l1.34,5.45-4.23-3.24,2.89-2.21Zm-6.09-.24h5.32l-2.66,2.03-2.66-2.03Zm4.2-2.6l-1.51,1.51.04-.85c.04-.9.39-1.72,1-2.32.65-.65,1.53-1,2.49-1,.26,0,.52.03.77.08l.21.04.04.21c.25,1.22-.1,2.44-.92,3.27-.6.6-1.43.96-2.32,1l-.85.04,1.51-1.51c.06-.06.1-.14.1-.23s-.03-.17-.1-.23c-.06-.06-.14-.1-.23-.1s-.17.03-.23.1Zm-3.13-1.67c.6.6.96,1.43,1,2.32l.04.85-1.51-1.51c-.06-.06-.14-.1-.23-.1s-.17.03-.23.1c-.06.06-.1.14-.1.23s.03.17.1.23l1.51,1.51-.85-.04c-.9-.04-1.72-.39-2.32-1-.82-.83-1.17-2.05-.92-3.27l.04-.21.21-.04c.26-.05.52-.08.77-.08.96,0,1.85.36,2.49,1Z"/>
            <path d="m15.08,16.72c-.09,0-.17-.04-.23-.1-.06-.06-.1-.15-.1-.23s.04-.17.1-.23c.06-.06.15-.1.23-.1s.17.04.23.1c.06.06.1.15.1.23s-.04.17-.1.23c-.06.06-.15.1-.23.1Z"/>
          </g>
          <g>
            <path d="m100.28,39.89c.24,0,.43-.19.43-.43s-.19-.43-.43-.43h-10.98v-10.24h4.99c1.01,0,1.83-.82,1.83-1.83v-3.04h8.55c.88,0,1.71-.37,2.3-1.02.59-.65.87-1.52.78-2.39l-2.26-21.47c-.17-1.58-1.49-2.77-3.08-2.77h-32.93c-1.59,0-2.91,1.19-3.08,2.77l-2.26,21.47c-.09.87.19,1.74.78,2.39.59.65,1.42,1.02,2.3,1.02h8.55v3.04c0,1.01.82,1.83,1.83,1.83h4.99v10.24h-10.98c-.24,0-.43.19-.43.43s.19.43.43.43h28.67Zm-16.82-11.11h4.96v10.24h-4.96v-10.24Zm-6.82-4.87h18.6v3.04c0,.53-.43.96-.96.96h-16.69c-.53,0-.96-.43-.96-.96v-3.04Zm19.89-13.39h9.28l1.06,10.07c.07.63-.13,1.25-.56,1.72-.43.47-1.01.74-1.65.74h-7.47l-.66-12.52Zm-10.16,0h9.29l.66,12.52h-9.95v-12.52Zm-10.16,0h9.29v12.52h-9.95l.66-12.52Zm-10.15,0h9.28l-.66,12.52h-7.47c-.64,0-1.23-.26-1.65-.74-.43-.47-.63-1.09-.56-1.72l1.06-10.07Zm29.76-13.39h6.58c1.14,0,2.09.86,2.21,1.99l1.11,10.53h-9.24l-.66-12.52Zm-10.32,7.39v5.14h-9.24l.66-12.52h18.03l.66,12.52h-9.24v-5.14c0-.24-.19-.43-.43-.43s-.43.19-.43.43Zm-9.45-7.39l-.66,12.52h-9.24l1.11-10.53c.12-1.13,1.07-1.99,2.21-1.99h6.58Z"/>
            <path d="m85.94,1.04c-.11,0-.23-.05-.31-.13-.08-.08-.13-.19-.13-.31s.05-.23.13-.31.19-.13.31-.13.23.05.31.13c.08.08.13.19.13.31s-.05.23-.13.31c-.08.08-.19.13-.31.13Z"/>
          </g>
          <g>
            <path d="m9.49,87.81l.02-.15.14-.06c.42-.17.71-.58.71-1.04v-4.43c0-.72.38-1.38,1.01-1.77,1.31-.79,2.4-1.91,3.17-3.23.79-1.36,1.2-2.92,1.2-4.51,0-2-.64-3.9-1.86-5.49-1.18-1.54-2.85-2.67-4.7-3.2-.02,0-.05-.01-.07-.01-.12,0-.22.08-.25.19-.02.07-.01.14.02.2s.09.11.16.13c3.63,1.03,6.17,4.4,6.17,8.18,0,3-1.54,5.73-4.11,7.28-.65.39-1.09,1.04-1.23,1.78l-.04.22h-2.86v-4.32l.3.03c.19.02.38.03.57.03,1.28,0,2.49-.5,3.4-1.41,1.18-1.18,1.66-2.85,1.29-4.48-.02-.1-.1-.18-.2-.2-.35-.08-.72-.12-1.08-.12-.67,0-1.32.14-1.93.4l-.49.21.12-.52c.09-.37.13-.75.13-1.13,0-1.66-.84-3.19-2.25-4.08-.04-.03-.09-.04-.14-.04s-.1.01-.14.04c-1.41.89-2.25,2.42-2.25,4.08,0,.38.04.76.13,1.13l.12.52-.49-.21c-.61-.27-1.26-.4-1.93-.4-.36,0-.72.04-1.08.12-.1.02-.18.1-.2.2-.37,1.63.12,3.3,1.29,4.48.91.91,2.12,1.41,3.4,1.41.19,0,.38-.01.57-.03l.3-.03v4.32h-2.86l-.04-.22c-.13-.74-.57-1.38-1.21-1.77-2.58-1.55-4.12-4.28-4.12-7.29,0-3.81,2.57-7.18,6.26-8.2.14-.04.22-.19.18-.33-.03-.11-.14-.19-.26-.19-.02,0-.05,0-.07,0-3.91,1.08-6.65,4.66-6.65,8.71,0,1.59.42,3.15,1.21,4.51.77,1.32,1.86,2.44,3.18,3.23.61.37,1,1.04,1,1.76v4.43c0,.45.29.87.71,1.04l.14.06.02.15c.2,1.37,1.39,2.41,2.78,2.41s2.58-1.04,2.78-2.41Zm-5.07-.13h4.58l-.09.34c-.27.99-1.17,1.68-2.2,1.68s-1.93-.69-2.2-1.68l-.09-.34Zm-.84-2.62h6.25v1.77h-.06c-.1.19-.29.32-.52.32h-5.09c-.32,0-.58-.26-.58-.58v-1.5Zm0-2.62h6.25v2.09H3.58v-2.09Zm1.6-9.2c.07.07.15.15.23.25,0,0,.04.05.04.05.58.7.92,1.54.98,2.44l.05.71-1.45-1.45c-.05-.05-.12-.08-.19-.08s-.14.03-.19.08c-.1.1-.1.27,0,.38l1.53,1.53h-.65c-1.13-.02-2.19-.46-2.99-1.26-.96-.96-1.4-2.28-1.22-3.63l.03-.2.2-.03c.2-.03.4-.04.6-.04,1.14,0,2.22.45,3.03,1.26Zm3.2,1.99l-1.45,1.45.05-.71c.06-.9.4-1.74.98-2.44h0s.03-.03.04-.05c.08-.09.15-.17.22-.24.81-.81,1.89-1.26,3.03-1.26.2,0,.4.01.6.04l.2.03.03.2c.19,1.34-.26,2.67-1.22,3.63-.8.8-1.86,1.25-2.99,1.26h-.65s1.53-1.52,1.53-1.52c.05-.05.08-.12.08-.19s-.03-.14-.08-.19c-.05-.05-.12-.08-.19-.08s-.14.03-.19.08Zm-1.68-8.36l.16.12c1.08.82,1.7,2.07,1.7,3.42,0,1.09-.4,2.12-1.14,2.91l-.46.5v-2.11c0-.15-.12-.27-.27-.27s-.27.12-.27.27v2.11l-.46-.5c-.73-.79-1.14-1.83-1.14-2.91,0-1.36.62-2.61,1.7-3.42l.16-.12Z"/>
            <path d="m6.75,64.13c-.07,0-.14-.03-.19-.08-.05-.05-.08-.12-.08-.19s.03-.14.08-.19c.05-.05.12-.08.19-.08s.14.03.19.08c.05.05.08.12.08.19s-.03.14-.08.19c-.05.05-.12.08-.19.08Z"/>
          </g>
          <g>
            <path d="m17.09,46.58v-1.22l.16-.06c1.61-.66,2.64-2.21,2.64-3.94v-2.97l.17-.06c.5-.18.84-.65.84-1.18,0-.69-.56-1.25-1.25-1.25h-.44v-2.86c0-.64-.52-1.15-1.15-1.15s-1.15.52-1.15,1.15v2.86h-2.53v-2.86c0-.64-.52-1.15-1.15-1.15s-1.15.52-1.15,1.15v2.86h-.44c-.69,0-1.25.56-1.25,1.25,0,.53.34,1,.84,1.18l.17.06v2.97c0,1.73,1.04,3.28,2.64,3.94l.16.06v1.22c0,.81.66,1.46,1.46,1.46s1.46-.66,1.46-1.46Zm-2.42-1.06l.29.05c.22.04.45.05.67.05s.45-.02.67-.05l.29-.05v1.06c0,.53-.43.96-.96.96s-.96-.43-.96-.96v-1.06Zm-2.8-7.12h7.52v2.96c0,2.07-1.69,3.76-3.76,3.76s-3.76-1.69-3.76-3.76v-2.96Zm7.77-2c.41,0,.75.34.75.75s-.34.75-.75.75h-8.02c-.41,0-.75-.34-.75-.75s.34-.75.75-.75h8.02Zm-.94-3.36v2.86h-1.3v-2.86c0-.36.29-.65.65-.65s.65.29.65.65Zm-4.84,0v2.86h-1.3v-2.86c0-.36.29-.65.65-.65s.65.29.65.65Z"/>
            <path d="m15.88,55.17v-2.87c0-.14-.11-.25-.25-.25s-.25.11-.25.25v2.87c0,.76-.61,1.37-1.37,1.37s-1.37-.61-1.37-1.37v-5.46c0-1.27-1.04-2.31-2.31-2.31s-2.31,1.03-2.31,2.31v4.35c0,1.37-1.12,2.48-2.49,2.48s-2.48-1.11-2.48-2.48v-8.21l.12-.07c1-.59,1.83-1.41,2.41-2.37.57-.96.88-2.05.88-3.14,0-2.32-1.36-4.49-3.54-5.65-.04-.02-.08-.03-.12-.03s-.08.01-.12.03c-2.18,1.16-3.54,3.33-3.54,5.65,0,1.09.3,2.18.88,3.14.57.96,1.41,1.78,2.41,2.37l.12.07v8.21c0,1.65,1.34,2.99,2.99,2.99s2.98-1.34,2.99-2.98v-4.35c0-1,.81-1.81,1.81-1.81s1.81.81,1.81,1.81v5.46c0,1.03.84,1.87,1.87,1.87s1.87-.84,1.87-1.87ZM2.8,35.13l.13.07c1.87,1.1,3.03,3.04,3.03,5.07,0,1.83-.94,3.59-2.51,4.73l-.4.29v-4.74c0-.14-.11-.25-.25-.25s-.25.11-.25.25v4.74l-.4-.29c-1.57-1.14-2.51-2.9-2.51-4.73,0-2.03,1.16-3.97,3.03-5.07l.13-.07Z"/>
            <path d="m14.13,40.36c-.14,0-.25-.11-.25-.25s.11-.25.25-.25h3.01c.14,0,.25.11.25.25s-.11.25-.25.25h-3.01Z"/>
            <path d="m14.13,42.56c-.14,0-.25-.11-.25-.25s.11-.25.25-.25h3.01c.14,0,.25.11.25.25s-.11.25-.25.25h-3.01Z"/>
            <path d="m-4.01,40.52c-.14,0-.25-.11-.25-.25s.11-.25.25-.25h1.08c.14,0,.25.11.25.25s-.11.25-.25.25h-1.08Z"/>
            <path d="m-2.21,44.88c-.07,0-.13-.03-.18-.07-.1-.1-.1-.26,0-.35l.76-.76s.11-.07.18-.07.13.03.18.07c.1.1.1.26,0,.35l-.76.76s-.11.07-.18.07Z"/>
            <path d="m-1.44,36.93c-.07,0-.13-.03-.18-.07l-.77-.77c-.1-.1-.1-.26,0-.35.05-.05.11-.07.18-.07s.13.03.18.07l.76.76c.1.1.1.26,0,.35-.05.05-.11.07-.18.07Z"/>
            <path d="m8.54,40.52c-.14,0-.25-.11-.25-.25s.11-.25.25-.25h1.08c.14,0,.25.11.25.25s-.11.25-.25.25h-1.08Z"/>
            <path d="m7.81,44.88c-.07,0-.13-.03-.18-.07l-.76-.76c-.1-.1-.1-.26,0-.35.05-.05.11-.07.18-.07s.13.03.18.07l.76.76c.1.1.1.26,0,.35-.05.05-.11.07-.18.07Z"/>
            <path d="m7.05,36.93c-.07,0-.13-.03-.18-.07-.1-.1-.1-.26,0-.35l.76-.76s.11-.07.18-.07.13.03.18.07c.1.1.1.26,0,.35l-.76.76s-.11.07-.18.07Z"/>
            <path d="m15.63,50.3c-.07,0-.13-.03-.18-.07-.05-.05-.07-.11-.07-.18s.03-.13.07-.18c.05-.05.11-.07.18-.07s.13.03.18.07c.05.05.07.11.07.18s-.03.13-.07.18c-.05.05-.11.07-.18.07Z"/>
          </g>
          <g>
            <path d="m95.06,104.43v-2.21c0-.11-.09-.21-.21-.21-2.07,0-4.02-.81-5.49-2.27-2.91-2.91-3.04-7.6-.29-10.67l.15-.16,1.11,1.11s.09.06.15.06c.03,0,.05,0,.08-.02.08-.03.13-.11.13-.19v-4.09c0-.11-.09-.21-.21-.21h-4.09c-.08,0-.16.05-.19.13-.03.08-.01.17.04.23l1.12,1.12-.14.15c-1.78,1.92-2.76,4.43-2.76,7.05,0,2.77,1.08,5.38,3.04,7.35,1.96,1.96,4.57,3.04,7.35,3.04.11,0,.21-.09.21-.21Zm-8.17-18.44h3.38v3.38l-.91-.91s-.09-.06-.15-.06-.11.02-.15.06c-3.19,3.19-3.19,8.37,0,11.56,1.44,1.44,3.35,2.29,5.38,2.38h.2v1.81h-.22c-2.5-.11-4.86-1.15-6.63-2.92-3.89-3.89-3.89-10.22,0-14.11.04-.04.06-.09.06-.15s-.02-.11-.06-.15l-.91-.91Z"/>
            <path d="m99.23,102.92c-.11,0-.21-.09-.21-.21v-4.09c0-.08.05-.16.13-.19.03-.01.05-.02.08-.02.06,0,.11.02.15.06l1.11,1.11.15-.16c2.75-3.07,2.62-7.75-.29-10.67-1.47-1.47-3.41-2.27-5.49-2.27-.11,0-.21-.09-.21-.21v-2.21c0-.11.09-.21.21-.21,2.12,0,4.15.63,5.89,1.83.05.03.08.08.09.13.01.05,0,.11-.03.15-.04.06-.1.09-.17.09-.04,0-.08-.01-.12-.04-1.54-1.06-3.35-1.67-5.23-1.74h-.22s0,1.79,0,1.79h.2c2.03.11,3.94.95,5.38,2.39,3.19,3.19,3.19,8.37,0,11.56-.04.04-.09.06-.15.06s-.11-.02-.15-.06l-.91-.91v3.38h3.38l-.91-.91c-.08-.08-.08-.21,0-.29,3.41-3.41,3.9-8.75,1.17-12.71-.03-.05-.04-.1-.03-.15,0-.05.04-.1.09-.13.03-.02.08-.04.12-.04.07,0,.13.03.17.09,1.34,1.94,1.98,4.3,1.8,6.64-.17,2.34-1.14,4.58-2.74,6.3l-.14.15,1.12,1.12c.06.06.08.15.04.23-.03.08-.11.13-.19.13h-4.09Z"/>
            <path d="m102.05,87.26c-.05,0-.11-.02-.15-.06-.04-.04-.06-.09-.06-.15s.02-.11.06-.15c.04-.04.09-.06.15-.06s.11.02.15.06c.04.04.06.09.06.15s-.02.11-.06.15c-.04.04-.09.06-.15.06Z"/>
            <path d="m96.05,97.13c.77-.32,1.37-.92,1.68-1.68.32-.77.32-1.61,0-2.38-.32-.77-.92-1.37-1.68-1.68-.38-.16-.78-.24-1.19-.24s-.81.08-1.19.24c-.77.32-1.37.92-1.68,1.68-.32.77-.32,1.61,0,2.38.32.77.92,1.37,1.68,1.68.38.16.78.24,1.19.24s.81-.08,1.19-.24Zm-.16-5.37c.67.28,1.18.79,1.46,1.46.28.67.28,1.4,0,2.06-.28.67-.79,1.18-1.46,1.46-.33.14-.68.21-1.03.21s-.7-.07-1.03-.21c-.67-.28-1.18-.79-1.46-1.46-.28-.67-.28-1.4,0-2.07.28-.67.79-1.18,1.46-1.46.33-.14.68-.21,1.03-.21s.7.07,1.03.21Z"/>
            <path d="m92.99,89.95c-.08,0-.16-.05-.19-.13l-.4-.96c-.02-.05-.02-.11,0-.16.02-.05.06-.09.11-.11.03-.01.05-.02.08-.02.08,0,.16.05.19.13l.4.96c.02.05.02.11,0,.16-.02.05-.06.09-.11.11-.03.01-.05.02-.08.02Z"/>
            <path d="m97.12,99.92c-.08,0-.16-.05-.19-.13l-.4-.96c-.04-.11,0-.23.11-.27.03-.01.05-.02.08-.02.08,0,.16.05.19.13l.4.96c.04.11,0,.23-.11.27-.03.01-.05.02-.08.02Z"/>
            <path d="m99.36,92.59c-.08,0-.16-.05-.19-.13-.02-.05-.02-.11,0-.16.02-.05.06-.09.11-.11l.96-.4s.05-.02.08-.02c.08,0,.16.05.19.13.04.11,0,.23-.11.27l-.96.4s-.05.02-.08.02Z"/>
            <path d="m89.39,96.72c-.08,0-.16-.05-.19-.13-.04-.11,0-.23.11-.27l.96-.4s.05-.02.08-.02c.08,0,.16.05.19.13.04.11,0,.23-.11.27l-.96.4s-.05.02-.08.02Z"/>
            <path d="m96.72,89.95s-.05,0-.08-.02c-.05-.02-.09-.06-.11-.11-.02-.05-.02-.11,0-.16l.4-.96c.03-.08.11-.13.19-.13.03,0,.05,0,.08.02.05.02.09.06.11.11.02.05.02.11,0,.16l-.4.96c-.03.08-.11.13-.19.13Z"/>
            <path d="m92.59,99.92s-.05,0-.08-.02c-.05-.02-.09-.06-.11-.11-.02-.05-.02-.11,0-.16l.4-.96c.03-.08.11-.13.19-.13.03,0,.05,0,.08.02.11.04.16.16.11.27l-.4.96c-.03.08-.11.13-.19.13Z"/>
            <path d="m100.32,96.72s-.05,0-.08-.02l-.96-.4c-.05-.02-.09-.06-.11-.11-.02-.05-.02-.11,0-.16.03-.08.11-.13.19-.13.03,0,.05,0,.08.02l.96.4c.11.04.16.17.11.27-.03.08-.11.13-.19.13Z"/>
            <path d="m90.35,92.59s-.05,0-.08-.02l-.96-.4c-.05-.02-.09-.06-.11-.11-.02-.05-.02-.11,0-.16.03-.08.11-.13.19-.13.03,0,.05,0,.08.02l.96.4c.05.02.09.06.11.11.02.05.02.11,0,.16-.03.08-.11.13-.19.13Z"/>
          </g>
          <g>
            <path d="m44.2,123.2c.14,0,.26-.12.26-.26v-1.81c0-1.52,1.14-2.79,2.65-2.95l.16-.02.08.14c.95,1.56,2.54,2.49,4.26,2.49,1.82,0,3.51-1.06,4.42-2.77.04-.08.04-.17,0-.24-.91-1.71-2.6-2.77-4.42-2.77s-3.33.94-4.28,2.52l-.07.11h-.13c-.85.08-1.65.46-2.24,1.09l-.44.47v-5.26h1.05c.07,0,.13-.03.18-.08l3.01-3.01s.08-.11.08-.18v-1c0-.14-.12-.26-.26-.26s-.26.12-.26.26v.9l-2.86,2.86h-4.46l-2.86-2.86v-5.26h10.33c.82,0,1.49-.67,1.49-1.49s-.67-1.49-1.49-1.49h-.67v-3.65c0-.71-.58-1.28-1.28-1.28s-1.28.58-1.28,1.28v3.65h-4.01v-3.65c0-.71-.58-1.28-1.28-1.28s-1.28.58-1.28,1.28v3.65h-.67c-.82,0-1.49.67-1.49,1.49,0,.62.39,1.18.96,1.39l.17.06v5.4c0,.07.03.13.08.18l3.01,3.01s.11.08.18.08h1.05v5.26l-.44-.47c-.59-.62-1.39-1.01-2.24-1.08h-.13s-.07-.12-.07-.12c-.95-1.58-2.55-2.52-4.28-2.52s-3.51,1.06-4.42,2.77c-.04.08-.04.17,0,.24.91,1.71,2.6,2.77,4.42,2.77,1.72,0,3.32-.93,4.26-2.49l.08-.14.16.02c1.51.16,2.65,1.43,2.65,2.95v1.81c0,.14.12.26.26.26h2.06Zm-1.8-9.25h1.54v8.74h-1.54v-8.74Zm5.44,4.22h2.68c.14,0,.26-.12.26-.26s-.12-.26-.26-.26h-2.68l.34-.42c.87-1.08,2.13-1.7,3.44-1.7,1.54,0,2.97.84,3.82,2.24l.08.13-.08.13c-.85,1.4-2.28,2.24-3.82,2.24-1.31,0-2.57-.62-3.44-1.7l-.34-.42Zm-9.67-.93l.34.42h-2.68c-.14,0-.26.12-.26.26s.12.26.26.26h2.68l-.34.42c-.87,1.08-2.13,1.7-3.44,1.7-1.54,0-2.97-.84-3.82-2.24l-.08-.13.08-.13c.85-1.4,2.28-2.24,3.82-2.24,1.31,0,2.57.62,3.44,1.7Zm10.25-14.38c.54,0,.98.44.98.98s-.44.98-.98.98h-10.48c-.54,0-.98-.44-.98-.98s.44-.98.98-.98h10.48Zm-1.18-4.16v3.65h-1.54v-3.65c0-.43.35-.77.77-.77s.77.35.77.77Zm-6.58,0v3.65h-1.54v-3.65c0-.43.35-.77.77-.77s.77.35.77.77Z"/>
            <path d="m41.63,107.88c-.14,0-.26-.12-.26-.26s.12-.26.26-.26h3.08c.14,0,.26.12.26.26s-.12.26-.26.26h-3.08Z"/>
            <path d="m41.63,110.14c-.14,0-.26-.12-.26-.26s.12-.26.26-.26h3.08c.14,0,.26.12.26.26s-.12.26-.26.26h-3.08Z"/>
            <path d="m48.51,107.63c-.07,0-.13-.03-.18-.08-.05-.05-.08-.11-.08-.18s.03-.13.08-.18c.05-.05.12-.08.18-.08s.13.03.18.08c.05.05.08.12.08.18s-.03.13-.08.18c-.05.05-.12.08-.18.08Z"/>
          </g>
          <g>
            <path d="m37.3,35.05c-.09,0-.19-.04-.26-.11-.07-.07-.11-.16-.11-.26s.04-.19.11-.26c.07-.07.16-.11.26-.11s.19.04.26.11c.07.07.11.16.11.26s-.04.19-.11.26c-.07.07-.16.11-.26.11Z"/>
            <path d="m57.41,52.08c.2,0,.36-.16.36-.36v-4.55l.19-.1c1.05-.58,1.98-1.32,2.78-2.21.06-.07.1-.16.09-.26,0-.1-.05-.19-.12-.25-.07-.06-.15-.09-.24-.09-.1,0-.2.04-.27.12-1.56,1.74-3.69,2.87-5.99,3.18-.18.02-.31.18-.31.36v3.44h-2.79c-.15,0-.28-.07-.37-.2-.08-.13-.09-.28-.03-.41l.3-.7s.03-.09.03-.14v-1.89c0-.2-.16-.36-.36-.36h-6.63c-.56,0-1.12-.05-1.67-.14-.02,0-.04,0-.06,0-.09,0-.17.03-.23.09-.08.07-.13.17-.13.28v3.49h-2.79c-.15,0-.28-.07-.37-.2-.08-.13-.09-.28-.03-.41l.3-.7s.03-.1.03-.15v-3.38c0-.13-.07-.24-.17-.31-1.95-1.2-3.44-3.04-4.17-5.2-.26-.75-.96-1.26-1.75-1.26h-1.02v-3.84l.33-.03c1.2-.1,2.24-.86,2.72-1.96.51-1.18,1.23-2.23,2.15-3.13h0s.02-.02.02-.03h0s0-.01,0-.01c1.84-1.78,4.27-2.75,6.82-2.75h1.01l-.13.46c-.09.31-.13.63-.13.95,0,.37.06.74.18,1.09l.16.48h-1.67c-.2,0-.36.16-.36.36s.16.36.36.36h10.04c.2,0,.36-.16.36-.36s-.16-.36-.36-.36h-2.13l.16-.48c.12-.35.18-.72.18-1.09,0-.32-.05-.64-.13-.95l-.13-.46h1.45c5.42,0,9.83,4.41,9.83,9.83,0,.29-.01.58-.04.87,0,.1.02.19.08.26.06.07.15.12.25.13.01,0,.02,0,.03,0,.19,0,.34-.15.36-.33.03-.31.04-.62.04-.93,0-.85-.1-1.69-.3-2.51l-.09-.37.37-.08c.93-.19,1.71-.82,2.1-1.69l.06-.13.13-.06c1.15-.49,1.9-1.61,1.9-2.86,0-.2-.16-.36-.36-.36s-.36.16-.36.36c0,.5-.16.98-.45,1.39l-.64.88-.02-1.09c-.02-1.02-.86-1.85-1.89-1.85s-1.87.83-1.89,1.86l-.02,1.07-.64-.85c-.96-1.29-2.23-2.37-3.66-3.1-1.5-.77-3.12-1.16-4.81-1.16h-1.92l-.11-.12c-.66-.76-1.61-1.19-2.6-1.19s-1.94.43-2.6,1.19l-.11.12h-1.49c-1.11,0-2.21.18-3.27.52l-.23.07-.16-.18c-1.03-1.19-2.53-1.88-4.11-1.88h-1.19c-.12,0-.23.06-.3.16-.07.1-.08.23-.03.34l1.76,4.12-.16.17c-.84.89-1.51,1.91-1.99,3.03-.41.93-1.32,1.54-2.34,1.54h-.13c-.35,0-.63.28-.63.63v4.04c0,.35.28.63.63.63h1.11c.48,0,.91.31,1.06.77.75,2.18,2.22,4.09,4.15,5.37l.16.11v3.1l-.27.63c-.16.36-.12.77.09,1.1.22.33.58.53.97.53h6.3c.2,0,.36-.16.36-.36v-3.34h4.49v1.45l-.27.63c-.16.36-.12.77.09,1.1.22.33.58.53.97.53h6.3Zm-.36-4.55v3.83h-2.43v-3.12l.29-.06c.56-.11,1.11-.27,1.65-.46l.49-.18Zm-14.37.76l.4.04c.32.03.65.05.98.05h1.05v2.98h-2.43v-3.07Zm19.39-15.78l.94.5c.24.13.49.2.76.22l1.2.08-1.05.6c-.26.15-.54.24-.84.28l-.28.03-.1-.26c-.06-.15-.13-.31-.2-.48l-.44-.97Zm2.99-1.16c0,.64-.52,1.16-1.16,1.16s-1.16-.52-1.16-1.16.52-1.16,1.16-1.16,1.16.52,1.16,1.16Zm-14.08-1.95c0,.49-.13.97-.38,1.39l-.11.18h-4.48l-.11-.18c-.25-.42-.38-.9-.38-1.39,0-1.5,1.22-2.73,2.73-2.73s2.73,1.22,2.73,2.73Zm-15.33-2.88h.64c1.18,0,2.31.44,3.18,1.24l.39.36-.47.23c-.69.34-1.34.75-1.94,1.23l-.37.3-1.43-3.36Z"/>
            <path d="m54.78,19.18c0-1.9-1.55-3.45-3.45-3.45s-3.45,1.55-3.45,3.45,1.55,3.45,3.45,3.45,3.45-1.55,3.45-3.45Zm-.72,0c0,1.5-1.22,2.73-2.73,2.73s-2.73-1.22-2.73-2.73,1.22-2.73,2.73-2.73,2.73,1.22,2.73,2.73Z"/>
            <path d="m54.87,43.02c1.63-1.63,2.19-4.09,1.48-6.44-.04-.12-.12-.2-.24-.24-.66-.2-1.34-.3-2.02-.3-1.7,0-3.27.63-4.42,1.78-.44.44-.81.95-1.1,1.52l-.32.64-.32-.64c-.29-.57-.66-1.08-1.1-1.52-1.15-1.15-2.72-1.78-4.42-1.78-.68,0-1.36.1-2.02.3-.12.04-.21.13-.24.24-.71,2.34-.15,4.81,1.48,6.44,1.15,1.15,2.72,1.78,4.42,1.78.67,0,1.34-.1,1.99-.3h.01s.03-.01.03-.01c0,0,.01,0,.02,0h.03s0-.01,0-.01l.04-.02h.17s.07.03.07.03c0,0,.02,0,.03,0h.02c.66.2,1.33.31,2,.31,1.7,0,3.27-.63,4.42-1.78Zm-3.77-1.94l-2.41,2.41-.06-.79c-.13-1.66.44-3.26,1.55-4.37,1.01-1.01,2.4-1.57,3.91-1.57.47,0,.94.06,1.4.16l.22.05.05.22c.46,1.98-.06,3.97-1.41,5.31-1.01,1.01-2.4,1.57-3.91,1.57-.15,0-.31,0-.46-.02l-.79-.06,2.41-2.41c.14-.14.14-.37,0-.51-.07-.07-.16-.11-.26-.11s-.19.04-.26.11Zm-4.79-2.74c1.11,1.11,1.68,2.71,1.55,4.37l-.06.79-2.41-2.41c-.07-.07-.16-.11-.26-.11s-.19.04-.26.11c-.14.14-.14.37,0,.51l2.41,2.41-.79.06c-.15.01-.31.02-.46.02-1.51,0-2.89-.56-3.91-1.57-1.35-1.35-1.87-3.33-1.41-5.31l.05-.22.22-.05c.46-.11.94-.16,1.4-.16,1.51,0,2.89.56,3.91,1.57Z"/>
            <path d="m62.23,42.24c-.09,0-.19-.04-.26-.11-.07-.07-.11-.16-.11-.26s.04-.19.11-.26c.07-.07.16-.11.26-.11s.19.04.25.11c.07.07.11.16.11.26s-.04.19-.11.26c-.07.07-.16.11-.26.11Z"/>
          </g>
          <g>
            <path d="m52.42,90.63c.94,0,1.71-.77,1.71-1.71v-20.41h1.71c.19,0,.34-.15.34-.34v-7.64c0-.19-.15-.34-.34-.34h-3.34v-2.42c0-.77-.63-1.4-1.4-1.4h-5.53c-.77,0-1.4.63-1.4,1.4v2.42h-10.24v-2.42c0-.77-.63-1.4-1.4-1.4h-5.53c-.77,0-1.4.63-1.4,1.4v2.42h-3.34c-.19,0-.34.15-.34.34v7.64c0,.19.15.34.34.34h1.71v20.41c0,.94.77,1.71,1.71,1.71h26.76Zm-27.78-22.12h11.33c.19,0,.34-.15.34-.34s-.15-.34-.34-.34h-13.38v-6.96h32.9v6.96h-13.38c-.19,0-.34.15-.34.34s.15.34.34.34h11.33v20.41c0,.56-.46,1.02-1.02,1.02h-26.76c-.56,0-1.02-.46-1.02-1.02v-20.41Zm26.45-11.47c.4,0,.72.32.72.72v2.42h-6.96v-2.42c0-.4.32-.72.72-.72h5.53Zm-18.57,0c.4,0,.72.32.72.72v2.42h-6.96v-2.42c0-.4.32-.72.72-.72h5.53Z"/>
            <path d="m27.85,64.69c-.19,0-.34-.15-.34-.34s.15-.34.34-.34h3.82c.19,0,.34.15.34.34s-.15.34-.34.34h-3.82Z"/>
            <path d="m48.32,66.6c-.19,0-.34-.15-.34-.34v-1.57h-1.57c-.19,0-.34-.15-.34-.34s.15-.34.34-.34h1.57v-1.57c0-.19.15-.34.34-.34s.34.15.34.34v1.57h1.57c.19,0,.34.15.34.34s-.15.34-.34.34h-1.57v1.57c0,.19-.15.34-.34.34Z"/>
            <path d="m47.43,79.23c0-4.63-3.76-8.39-8.39-8.39s-8.39,3.76-8.39,8.39,3.76,8.39,8.39,8.39,8.39-3.76,8.39-8.39Zm-8.05,4.05l.4.07c.26.04.52.06.77.06,1.19,0,2.29-.44,3.1-1.25,1.14-1.14,1.54-2.87,1.04-4.51-.03-.11-.12-.19-.23-.23-.46-.14-.94-.21-1.41-.21-1.19,0-2.29.44-3.1,1.25-.24.24-.44.5-.62.79l-.29.48-.29-.48c-.18-.29-.38-.56-.62-.79-.81-.81-1.91-1.25-3.1-1.25-.47,0-.95.07-1.41.21-.11.03-.19.12-.23.23-.5,1.64-.1,3.37,1.04,4.51.81.81,1.91,1.25,3.1,1.25.25,0,.51-.02.77-.06l.4-.07v3.65l-.37-.03c-3.92-.36-6.99-3.73-6.99-7.67,0-4.25,3.46-7.71,7.71-7.71s7.71,3.46,7.71,7.71c0,3.94-3.07,7.31-6.99,7.67l-.37.03v-3.65Zm-1.74-4.34c.64.64,1.01,1.51,1.05,2.46l.03.87-1.58-1.58c-.06-.06-.15-.1-.24-.1s-.18.04-.24.1c-.13.13-.13.35,0,.48l1.58,1.58-.87-.03c-.95-.04-1.82-.41-2.46-1.05-.87-.87-1.23-2.15-.97-3.44l.05-.22.22-.05c.27-.06.55-.08.82-.08,1.01,0,1.94.37,2.62,1.05Zm3.29,1.75l-1.58,1.58.03-.87c.04-.95.41-1.82,1.05-2.46.68-.68,1.61-1.05,2.62-1.05.27,0,.55.03.82.08l.22.04.05.22c.26,1.28-.1,2.57-.97,3.44-.64.64-1.51,1.01-2.46,1.05l-.87.03,1.58-1.58c.13-.13.13-.35,0-.48-.06-.06-.15-.1-.24-.1s-.18.04-.24.1Z"/>
            <path d="m39.04,68.51c-.09,0-.18-.04-.24-.1s-.1-.15-.1-.24.04-.18.1-.24c.06-.06.15-.1.24-.1s.18.04.24.1c.06.06.1.15.1.24s-.04.18-.1.24c-.06.06-.15.1-.24.1Z"/>
          </g>
          <g>
            <path d="m80.73,104.05l.04-.21h1.97c.18,0,.33-.15.33-.33v-2.65c0-1.65-1.34-2.99-2.99-2.99h-1.42l-2.96-4.23c-.53-.76-1.4-1.21-2.32-1.21h-6.11c-1.03,0-1.94.62-2.33,1.58l-1.54,3.86-.15.02c-.93.12-1.63.92-1.63,1.86v1.05l-.29-.03c-2.45-.28-4.3-2.35-4.3-4.82v-.26c0-2.67,2.18-4.85,4.85-4.85h5.52c1.16,0,2.21-.78,2.54-1.89l.03-.1.09-.05c1.62-1,2.62-2.8,2.62-4.69s-1.06-3.79-2.75-4.77c-.04-.02-.09-.04-.13-.04s-.09.01-.13.04c-1.7.98-2.75,2.81-2.75,4.77,0,1.81.89,3.5,2.38,4.53l.17.12-.08.19c-.32.81-1.11,1.36-1.98,1.36h-5.52c-2.97,0-5.38,2.41-5.38,5.38v.26c0,1.35.5,2.64,1.42,3.63.91.99,2.14,1.6,3.47,1.72l.24.02v.98c0,.84.69,1.53,1.53,1.53h.77l.04.21c.22,1.06,1.17,1.83,2.26,1.83,1.27,0,2.31-1.03,2.31-2.31s-1.03-2.31-2.31-2.31c-1.08,0-2.03.77-2.26,1.83l-.04.21h-.77c-.55,0-1-.45-1-1v-2.56c0-.75.61-1.35,1.35-1.35h16.59c1.36,0,2.46,1.1,2.46,2.46v2.46h-1.77l-.04-.21c-.22-1.06-1.17-1.83-2.26-1.83s-2.03.77-2.26,1.83l-.04.21h-3.14c-.15,0-.26.12-.26.26s.12.26.26.26h3.14l.04.21c.22,1.06,1.17,1.83,2.26,1.83s2.03-.77,2.26-1.83Zm-.48-.48c0,.98-.8,1.78-1.78,1.78s-1.78-.8-1.78-1.78.8-1.78,1.78-1.78,1.78.8,1.78,1.78Zm-12.25,0c0,.98-.8,1.78-1.78,1.78s-1.78-.8-1.78-1.78.8-1.78,1.78-1.78,1.78.8,1.78,1.78Zm7.42-9.43l2.61,3.72h-6.33l3.72-3.72Zm-4.63-.81v4.53h-4.53l4.53-4.53Zm-.37-.37l-4.91,4.91h-1.54l1.47-3.66c.3-.75,1.02-1.24,1.84-1.24h3.14Zm.9,0h2.07c.55,0,1.08.2,1.5.56l.22.19-3.79,3.79v-4.53Zm-1.8-7.37v2.61l-.44-.4c-1.05-.95-1.65-2.3-1.65-3.7,0-1.66.83-3.21,2.21-4.14l.15-.1.15.1c1.38.93,2.21,2.48,2.21,4.14,0,1.4-.6,2.75-1.65,3.7l-.44.4v-2.61c0-.15-.12-.26-.26-.26s-.26.12-.26.26Z"/>
            <path d="m66.23,103.84c-.07,0-.14-.03-.19-.08-.05-.05-.08-.12-.08-.19s.03-.14.08-.19c.05-.05.12-.08.19-.08s.14.03.19.08c.05.05.08.12.08.19s-.03.14-.08.19c-.05.05-.12.08-.19.08Z"/>
            <path d="m78.53,103.84c-.07,0-.14-.03-.19-.08-.05-.05-.08-.12-.08-.19s.03-.14.08-.19c.05-.05.12-.08.19-.08s.14.03.19.08c.05.05.08.12.08.19s-.03.14-.08.19c-.05.05-.12.08-.19.08Z"/>
            <path d="m70.65,103.84c-.07,0-.14-.03-.19-.08-.05-.05-.08-.12-.08-.19s.03-.14.08-.19c.05-.05.12-.08.19-.08s.14.03.19.08c.05.05.08.12.08.19s-.03.14-.08.19c-.05.05-.12.08-.19.08Z"/>
          </g>
          <g>
            <path d="m15.95,103.84c.07,0,.13-.05.13-.12v-1.72c0-.07-.06-.12-.13-.12h-3.14s-.08,0-.13,0h-.21s1.51-2.42,1.51-2.42l.43.23s.04.02.06.02c.03,0,.06,0,.08-.02.04-.03.06-.08.05-.13l-.57-1.96c-.02-.05-.07-.09-.12-.09-.01,0-.02,0-.03,0l-2.12.52c-.05.01-.09.05-.09.1,0,.05.02.09.06.12l.43.23-1.35,2.15s-.06.1-.09.15h0s0,0,0,0h0c-.33.64-.29,1.36.09,1.97.42.67,1.17,1.07,2,1.07h.17c.07,0,.13-.05.13-.12s-.06-.12-.13-.12h-.17c-.74,0-1.41-.35-1.78-.95-.24-.39-.33-.84-.25-1.27l.05-.26.18.21c.31.36.74.61,1.22.73h0s.01,0,.02,0h0s0,0,0,0c.18.04.36.06.55.06h3.01v1.48h-.51c-.07,0-.13.05-.13.12s.06.12.13.12h.64Zm-2.13-6.06l.46,1.57-.28-.15s-.04-.02-.06-.02c-.05,0-.09.02-.11.06l-1.61,2.57-.1-.03c-.47-.15-.86-.46-1.1-.87l-.03-.06.04-.07s0-.01.01-.02l1.41-2.26c.04-.06.01-.13-.05-.16l-.27-.15,1.69-.42Z"/>
            <path d="m18.38,104.38s.08-.06.08-.11v-.46h2.7c.06,0,.12,0,.19,0h0s0,0,0,0h0c.76-.06,1.42-.45,1.8-1.06.42-.67.42-1.46,0-2.13l-1.57-2.5s-.07-.06-.11-.06c-.02,0-.04,0-.06.02l-1.62.86s-.05.04-.06.07c0,.03,0,.06.01.09l1.53,2.44h.05v.09s.03.05.04.08l.09.17h-3.02s0-.46,0-.46c0-.05-.03-.09-.08-.11-.02,0-.03,0-.05,0-.03,0-.07.01-.09.03l-1.55,1.43s-.04.05-.04.08.01.06.04.08l1.55,1.43s.06.03.09.03c.02,0,.03,0,.05,0Zm-.18-2.69v.29s.01.06.04.08c.02.02.06.03.09.03h3.22l.02.1c.09.45,0,.92-.26,1.31l-.04.06h-.08s-.02,0-.03,0h-2.83c-.07,0-.13.05-.13.12v.29l-1.24-1.14,1.24-1.14Zm3.23-3.36l1.5,2.4c.37.59.37,1.3,0,1.89-.24.39-.62.68-1.07.83l-.27.09.1-.25c.18-.43.21-.9.07-1.34h0s0-.01,0-.02h0s0,0,0,0c-.05-.16-.13-.32-.22-.47l-1.5-2.4,1.39-.74Z"/>
            <path d="m20.36,97.99l.57-1.96s0-.1-.05-.13c-.02-.02-.05-.02-.08-.02-.02,0-.04,0-.06.02l-.43.23-1.35-2.15s-.06-.1-.1-.14h0s0,0,0-.01c-.44-.58-1.13-.91-1.9-.91-.84,0-1.59.4-2,1.07l-1.57,2.5s-.02.06-.01.09c0,.03.03.06.06.07l1.62.86s.04.02.06.02c.01,0,.02,0,.03,0,.03,0,.06-.03.08-.06l1.57-2.5s.04-.07.07-.1l.12-.16,1.51,2.41-.43.23s-.07.07-.06.12c0,.05.04.09.09.1l2.12.52s.02,0,.03,0c.06,0,.11-.04.12-.09Zm-1.75-3.98h.07s.04.07.04.07c0,0,0,.01.01.02l1.41,2.26s.07.06.11.06c.02,0,.04,0,.06-.02l.27-.15-.45,1.56-1.7-.42.28-.15s.05-.04.06-.07c0-.03,0-.06-.01-.09l-1.61-2.57.08-.06c.37-.29.84-.45,1.32-.45.01,0,.03,0,.04,0Zm-.34-.42l.22.17-.28.04c-.5.07-.94.28-1.29.62h0s0,0,0,.01h0s0,0,0,0c-.13.12-.24.26-.33.41l-1.5,2.4-1.39-.74,1.5-2.4c.37-.59,1.04-.95,1.78-.95.48,0,.95.16,1.32.44Z"/>
            <path d="m14.15,103.84s-.07-.01-.09-.03c-.02-.02-.04-.05-.04-.08s.01-.06.04-.08c.02-.02.06-.03.09-.03s.07.01.09.03c.02.02.04.05.04.08s-.01.06-.04.08c-.02.02-.06.04-.09.04Z"/>
          </g>
          <g>
            <path d="m96.67,50.97c0-2.28-1.85-4.13-4.13-4.13s-4.13,1.85-4.13,4.13,1.85,4.13,4.13,4.13,4.13-1.85,4.13-4.13Zm-.68,0c0,1.9-1.55,3.45-3.45,3.45s-3.45-1.55-3.45-3.45,1.55-3.45,3.45-3.45,3.45,1.55,3.45,3.45Z"/>
            <path d="m92.54,44.94c-.19,0-.34-.15-.34-.34v-1.35c0-.19.15-.34.34-.34s.34.15.34.34v1.35c0,.19-.15.34-.34.34Z"/>
            <path d="m92.54,59.03c-.19,0-.34-.15-.34-.34v-1.35c0-.19.15-.34.34-.34s.34.15.34.34v1.35c0,.19-.15.34-.34.34Z"/>
            <path d="m98.9,51.31c-.19,0-.34-.15-.34-.34s.15-.34.34-.34h1.35c.19,0,.34.15.34.34s-.15.34-.34.34h-1.35Z"/>
            <path d="m84.81,51.31c-.19,0-.34-.15-.34-.34s.15-.34.34-.34h1.35c.19,0,.34.15.34.34s-.15.34-.34.34h-1.35Z"/>
            <path d="m97.04,46.81c-.09,0-.18-.04-.24-.1-.13-.13-.13-.35,0-.48l.96-.96c.06-.06.15-.1.24-.1s.18.04.24.1c.13.13.13.35,0,.48l-.96.96c-.06.06-.15.1-.24.1Z"/>
            <path d="m87.08,56.77c-.09,0-.18-.04-.24-.1-.13-.13-.13-.35,0-.48l.96-.96c.06-.06.15-.1.24-.1s.18.04.24.1c.06.06.1.15.1.24s-.04.18-.1.24l-.96.96c-.06.06-.15.1-.24.1Z"/>
            <path d="m98,56.77c-.09,0-.18-.04-.24-.1l-.96-.96c-.13-.13-.13-.35,0-.48.06-.06.15-.1.24-.1s.18.04.24.1l.96.96c.13.13.13.35,0,.48-.06.06-.15.1-.24.1Z"/>
            <path d="m88.03,46.81c-.09,0-.18-.04-.24-.1l-.96-.96c-.13-.13-.13-.35,0-.48.06-.06.15-.1.24-.1s.18.04.24.1l.96.96c.13.13.13.35,0,.48-.06.06-.15.1-.24.1Z"/>
            <path d="m96.47,76.91c.15,0,.28-.1.33-.24.09-.32.14-.64.14-.97,0-1.91-1.55-3.46-3.46-3.46-.11,0-.23,0-.34.02l-.22.02-.11-.2c-.79-1.45-2.32-2.35-3.98-2.35-1.89,0-3.6,1.19-4.25,2.96l-.08.2-.22.02s-.07,0-.1.01l-.38.04v-7.96h1.56c.14,0,.26-.08.31-.21.05-.13.02-.27-.07-.37l-8.62-8.61h.83s.06,0,.07,0c1.36,0,2.61-.51,3.53-1.43,1.3-1.3,1.76-3.27,1.18-5.15-.03-.11-.12-.19-.23-.23-.53-.16-1.07-.24-1.61-.24-1.36,0-2.61.51-3.53,1.43-.31.31-.58.66-.79,1.05l-.3.53-.3-.53c-.22-.39-.48-.74-.79-1.05-.92-.92-2.18-1.43-3.53-1.43-.54,0-1.08.08-1.61.24-.11.03-.19.12-.23.23-.57,1.87-.12,3.84,1.18,5.15.92.92,2.18,1.43,3.53,1.43.01,0,.07,0,.07,0h.83s-8.62,8.6-8.62,8.6c-.1.1-.13.24-.07.37.05.13.18.21.31.21h1.56v2.57c0,.19.15.34.34.34s.34-.15.34-.34v-2.57h13.95v8.23l-.17.1c-.94.54-1.53,1.51-1.57,2.6v.33h-1.79v-7.65c0-.19-.15-.34-.34-.34h-6.23c-.19,0-.34.15-.34.34v7.65h-3.52v-2.57c0-.19-.15-.34-.34-.34s-.34.15-.34.34v2.91c0,.19.15.34.34.34h27.64Zm-11.74-3.33s.02,0,.03,0c.16,0,.29-.11.33-.26.43-1.72,1.97-2.93,3.74-2.93,1.57,0,2.97.94,3.57,2.39.05.13.18.21.31.21.03,0,.06,0,.08-.01.22-.06.45-.08.68-.08,1.54,0,2.79,1.25,2.79,2.79,0,.08,0,.15,0,.23l-.03.31h-14.18l.02-.36c.08-1.29,1.15-2.3,2.45-2.3.06,0,.13,0,.21,0Zm-11.36-4.66h5.55v7.32h-5.55v-7.32Zm2.78-13l8.4,8.39h-16.8l8.4-8.39Zm2.22-3.15l-1.86,1.86-.02-.79c-.03-1.22.41-2.35,1.23-3.17.79-.79,1.88-1.23,3.06-1.23.34,0,.69.04,1.03.11l.21.05.05.21c.34,1.53-.08,3.05-1.12,4.09-.79.79-1.88,1.23-3.06,1.23-.04,0-.07,0-.11,0l-.79-.02,1.86-1.86c.13-.13.13-.35,0-.48-.06-.06-.15-.1-.24-.1s-.18.04-.24.1Zm-3.79-2.1c.82.82,1.26,1.95,1.23,3.17l-.02.79-1.86-1.86c-.06-.06-.15-.1-.24-.1s-.18.04-.24.1c-.13.13-.13.35,0,.48l1.86,1.86-.79.02s-.07,0-.11,0c-1.18,0-2.26-.44-3.06-1.23-1.03-1.03-1.45-2.56-1.12-4.09l.05-.21.21-.05c.34-.08.69-.11,1.03-.11,1.18,0,2.26.44,3.06,1.23Z"/>
            <path d="m74.92,73.19c-.19,0-.34-.15-.34-.34v-.54c0-.19.15-.34.34-.34s.34.15.34.34v.54c0,.19-.15.34-.34.34Z"/>
            <path d="m68.83,70.95c-.09,0-.18-.04-.24-.1-.06-.06-.1-.15-.1-.24s.04-.18.1-.24c.06-.06.15-.1.24-.1s.18.04.24.1c.06.06.1.15.1.24s-.04.18-.1.24c-.06.06-.15.1-.24.1Z"/>
          </g>
        </g>
        <path d="m44.2,11.2c.14,0,.26-.12.26-.26v-1.81c0-1.52,1.14-2.79,2.65-2.95l.16-.02.08.14c.95,1.56,2.54,2.49,4.26,2.49,1.82,0,3.51-1.06,4.42-2.77.04-.08.04-.17,0-.24-.91-1.71-2.6-2.77-4.42-2.77s-3.33.94-4.28,2.52l-.07.11h-.13c-.85.08-1.65.46-2.24,1.09l-.44.47V1.95h1.05c.07,0,.13-.03.18-.08l3.01-3.01s.08-.11.08-.18v-1c0-.14-.12-.26-.26-.26s-.26.12-.26.26v.9l-2.86,2.86h-4.46l-2.86-2.86v-5.26h10.33c.82,0,1.49-.67,1.49-1.49s-.67-1.49-1.49-1.49h-.67v-3.65c0-.71-.58-1.28-1.28-1.28s-1.28.58-1.28,1.28v3.65h-4.01v-3.65c0-.71-.58-1.28-1.28-1.28s-1.28.58-1.28,1.28v3.65h-.67c-.82,0-1.49.67-1.49,1.49,0,.62.39,1.18.96,1.39l.17.06V-1.32c0,.07.03.13.08.18l3.01,3.01s.11.08.18.08h1.05v5.26l-.44-.47c-.59-.62-1.39-1.01-2.24-1.08h-.13s-.07-.12-.07-.12c-.95-1.58-2.55-2.52-4.28-2.52s-3.51,1.06-4.42,2.77c-.04.08-.04.17,0,.24.91,1.71,2.6,2.77,4.42,2.77,1.72,0,3.32-.93,4.26-2.49l.08-.14.16.02c1.51.16,2.65,1.43,2.65,2.95v1.81c0,.14.12.26.26.26h2.06Zm-1.8-9.25h1.54v8.74h-1.54V1.95Zm5.44,4.22h2.68c.14,0,.26-.12.26-.26s-.12-.26-.26-.26h-2.68l.34-.42c.87-1.08,2.13-1.7,3.44-1.7,1.54,0,2.97.84,3.82,2.24l.08.13-.08.13c-.85,1.4-2.28,2.24-3.82,2.24-1.31,0-2.57-.62-3.44-1.7l-.34-.42Zm-9.67-.93l.34.42h-2.68c-.14,0-.26.12-.26.26s.12.26.26.26h2.68l-.34.42c-.87,1.08-2.13,1.7-3.44,1.7-1.54,0-2.97-.84-3.82-2.24l-.08-.13.08-.13c.85-1.4,2.28-2.24,3.82-2.24,1.31,0,2.57.62,3.44,1.7Zm10.25-14.38c.54,0,.98.44.98.98s-.44.98-.98.98h-10.48c-.54,0-.98-.44-.98-.98s.44-.98.98-.98h10.48Zm-1.18-4.16v3.65h-1.54v-3.65c0-.43.35-.77.77-.77s.77.35.77.77Zm-6.58,0v3.65h-1.54v-3.65c0-.43.35-.77.77-.77s.77.35.77.77Z"/>
      </g>
    </pattern>
  </defs>
  <rect class="cls-1" width="112" height="112"/>
</svg>